SplineFontDB: 1.0
FontName: LikhanNormal
FullName: Likhan
FamilyName: Likhan
Weight: Normal
Copyright: Deepayan Sarkar <deepayan@bengalinux.org>  License: GPL version 2 (or later, at your option). 
Version: 0.5
ItalicAngle: 0
UnderlinePosition: -205
UnderlineWidth: 102
Ascent: 1638
Descent: 410
NeedsXUIDChange: 1
FSType: 12
PfmFamily: 17
TTFWeight: 500
TTFWidth: 5
Panose: 2 0 6 3 0 0 0 0 0 0
LineGap: 184
VLineGap: 0
ScriptLang: 2
 1 beng 1 dflt 
 1 latn 1 dflt 
TableOrder: GSUB 11
	'init'
	'nukt'
	'rphf'
	'blwf'
	'half'
	'pstf'
	'vatu'
	'pres'
	'blws'
	'psts'
	'haln'
LangName: 1033 "" "" "" "PfaEdit : BanglaTemplate : 30-3-2003" "" "" "" "" "Majantali" "Deepayan Sarkar" 
LangName: 1093 "" "" "" "" "" "" "" "" "" "" "" "" "" "" "" "" "" "" "" "+CawJvgmCCbIJvgAA" 
Encoding: compacted
OldEncoding: unicode
DisplaySize: -36
AntiAlias: 1
WinInfo: 0 33 16
AnchorClass: "Reph" abvm 0 0 "ukaar" blwm 0 0 
BeginChars: 520 520
StartChar: .notdef
Encoding: 0 -1 0
OldEncoding: 0
Width: 886
Flags: W
Fore
68 0 m 1
 68 1365 l 1
 750 1365 l 1
 750 0 l 1
 68 0 l 1
136 68 m 1
 682 68 l 1
 682 1297 l 1
 136 1297 l 1
 136 68 l 1
EndSplineSet
EndChar
StartChar: exclam
Encoding: 2 33 4
OldEncoding: 33
Width: 750
VWidth: 1000
Flags: HW
Fore
620 1120 m 1
 620 601 l 1
 581 258 l 1
 521 258 l 1
 483 601 l 1
 483 1120 l 1
 620 1120 l 1
615 160 m 1
 615 0 l 1
 485 0 l 1
 485 160 l 1
 615 160 l 1
EndSplineSet
EndChar
StartChar: quotedbl
Encoding: 3 34 5
OldEncoding: 34
Width: 588
VWidth: 1000
Flags: HW
Fore
30 1090.8 m 1
 201.6 1090.8 l 1
 201.6 886.8 l 1
 151.2 638.4 l 1
 79.2002 638.4 l 1
 30 886.8 l 1
 30 1090.8 l 1
324 1090.8 m 1
 496.8 1090.8 l 1
 496.8 886.8 l 1
 445.2 638.4 l 1
 373.2 638.4 l 1
 324 886.8 l 1
 324 1090.8 l 1
EndSplineSet
EndChar
StartChar: numbersign
Encoding: 4 35 6
OldEncoding: 35
Width: 920
VWidth: 1000
Flags: HW
Fore
792 1159.2 m 1
 726 799.2 l 1
 896.4 799.2 l 1
 896.4 673.2 l 1
 702 673.2 l 1
 643.2 352.8 l 1
 836.4 352.8 l 1
 836.4 228 l 1
 621.6 228 l 1
 549.6 -162 l 1
 409.2 -162 l 1
 480 228 l 1
 252 228 l 1
 180 -162 l 1
 39.5996 -162 l 1
 110.4 228 l 1
 -76.7998 228 l 1
 -76.7998 352.8 l 1
 133.2 352.8 l 1
 192 673.2 l 1
 -9.59961 673.2 l 1
 -9.59961 799.2 l 1
 213.6 799.2 l 1
 282 1159.2 l 1
 421.2 1159.2 l 1
 355.2 799.2 l 1
 584.4 799.2 l 1
 650.4 1159.2 l 1
 792 1159.2 l 1
560.4 673.2 m 1
 332.4 673.2 l 1
 273.6 352.8 l 1
 504 352.8 l 1
 560.4 673.2 l 1
EndSplineSet
EndChar
StartChar: dollar
Encoding: 5 36 7
OldEncoding: 36
Width: 920
VWidth: 1000
Flags: HW
Fore
346.8 1300.8 m 1
 454.8 1300.8 l 1
 454.8 1201.2 l 1
 678 1184.4 813.6 1048.8 813.6 838.8 c 1
 666 838.8 l 1
 664.8 972 579.6 1066.8 454.8 1072.8 c 1
 454.8 613.2 l 1
 624 562.8 648 552 696 524.4 c 0
 804 463.2 854.4 372 854.4 240 c 0
 854.4 97.2002 790.8 -30 682.8 -96 c 0
 622.8 -133.2 554.4 -153.6 454.8 -160.8 c 1
 454.8 -351.6 l 1
 346.8 -351.6 l 1
 346.8 -160.8 l 1
 86.4004 -144 -54 8.40039 -39.5996 265.2 c 1
 104.4 265.2 l 1
 116.4 145.2 123.6 114 152.4 72 c 1
 194.4 13.2002 264 -22.7998 346.8 -34.7998 c 1
 346.8 468 l 1
 212.4 508.8 162 528 114 564 c 0
 27.5996 625.2 -18 716.4 -18 832.8 c 0
 -18 1042.8 111.6 1171.2 346.8 1201.2 c 1
 346.8 1300.8 l 1
346.8 626.4 m 1
 346.8 1070.4 l 1
 210 1051.2 132 972 132 850.8 c 0
 132 738 201.6 666 346.8 626.4 c 1
454.8 451.2 m 1
 454.8 -34.7998 l 1
 534 -25.2002 580.8 -7.2002 624 34.7998 c 0
 674.4 82.7998 702 146.4 702 218.4 c 0
 702 340.8 642 396 454.8 451.2 c 1
EndSplineSet
EndChar
StartChar: percent
Encoding: 6 37 8
OldEncoding: 37
Width: 1473
VWidth: 1000
Flags: HW
Fore
204 1136.4 m 0
 379.2 1136.4 518.4 994.8 518.4 816 c 0
 518.4 646.8 376.8 504 205.2 504 c 0
 31.2002 504 -110.4 646.8 -110.4 820.8 c 0
 -110.4 993.6 31.2002 1136.4 204 1136.4 c 0
204 1006.8 m 0
 102 1006.8 18 922.8 18 820.8 c 128
 18 718.8 102 634.8 205.2 634.8 c 0
 306 634.8 391.2 717.6 391.2 819.6 c 0
 391.2 922.8 307.2 1006.8 204 1006.8 c 0
958.8 1179.6 m 1
 1080 1179.6 l 1
 352.8 -164.4 l 1
 230.4 -164.4 l 1
 958.8 1179.6 l 1
1104 465.6 m 0
 1282.8 465.6 1418.4 326.4 1418.4 148.8 c 0
 1418.4 -20.4004 1274.4 -160.8 1106.4 -160.8 c 0
 933.6 -160.8 792 -20.4004 792 153.6 c 0
 792 324 933.6 465.6 1104 465.6 c 0
1104 338.4 m 0
 1003.2 338.4 918 254.4 918 153.6 c 0
 918 50.4004 1003.2 -33.5996 1106.4 -33.5996 c 0
 1207.2 -33.5996 1293.6 50.4004 1293.6 148.8 c 0
 1293.6 254.4 1210.8 338.4 1104 338.4 c 0
EndSplineSet
EndChar
StartChar: ampersand
Encoding: 7 38 9
OldEncoding: 38
Width: 1100
VWidth: 1000
Flags: HW
Fore
782.4 488.4 m 1
 928.8 488.4 l 1
 928.8 379.2 890.4 258 822 151.2 c 1
 1047.6 -126 l 1
 846 -126 l 1
 730.8 18 l 1
 662.4 -51.5996 628.8 -78 590.4 -102 c 0
 524.4 -144 436.8 -168 346.8 -168 c 0
 118.8 -168 -31.2002 -22.7998 -31.2002 198 c 0
 -31.2002 366 38.4004 457.2 267.6 590.4 c 1
 153.6 734.4 117.6 804 117.6 890.4 c 0
 117.6 1053.6 258 1179.6 434.4 1179.6 c 0
 608.4 1179.6 734.4 1059.6 734.4 890.4 c 0
 734.4 758.4 670.8 679.2 478.8 570 c 1
 724.8 270 l 1
 760.8 333.6 783.6 422.4 782.4 488.4 c 1
398.4 668.4 m 1
 542.4 758.4 588 811.2 588 895.2 c 0
 588 985.2 519.6 1051.2 428.4 1051.2 c 0
 332.4 1051.2 268.8 987.6 268.8 894 c 0
 268.8 829.2 285.6 798 398.4 668.4 c 1
644.4 127.2 m 1
 348 494.4 l 1
 180 387.6 123.6 313.2 123.6 211.2 c 0
 123.6 81.5996 231.6 -24 364.8 -24 c 0
 460.8 -24 540 18 644.4 127.2 c 1
EndSplineSet
EndChar
StartChar: quotesingle
Encoding: 8 39 10
OldEncoding: 39
Width: 480
Flags: HW
Fore
170.4 1395.6 m 1
 363.6 1395.6 l 1
 363.6 1173.6 l 2
 363.6 1015.2 298.8 931.2 170.4 931.2 c 1
 170.4 1002 l 1
 255.6 1006.8 280.8 1042.8 280.8 1170 c 2
 280.8 1203.6 l 1
 170.4 1203.6 l 1
 170.4 1395.6 l 1
EndSplineSet
EndChar
StartChar: parenleft
Encoding: 9 40 11
OldEncoding: 40
Width: 544
VWidth: 1000
Flags: HW
Fore
367.2 1248 m 1
 470.4 1248 l 1
 307.2 986.4 216 675.6 216 381.6 c 0
 216 87.5996 307.2 -223.2 470.4 -484.8 c 1
 367.2 -484.8 l 1
 183.6 -244.8 67.2002 91.2002 67.2002 381.6 c 0
 67.2002 670.8 183.6 1006.8 367.2 1248 c 1
EndSplineSet
EndChar
StartChar: parenright
Encoding: 10 41 12
OldEncoding: 41
Width: 556
VWidth: 1000
Flags: HW
Fore
116.4 -484.8 m 1
 16.7998 -484.8 l 1
 178.8 -224.4 268.8 87.5996 268.8 380.4 c 0
 268.8 675.6 178.8 984 16.7998 1248 c 1
 116.4 1248 l 1
 301.2 1006.8 416.4 670.8 416.4 380.4 c 0
 416.4 91.2002 301.2 -244.8 116.4 -484.8 c 1
EndSplineSet
EndChar
StartChar: asterisk
Encoding: 11 42 13
OldEncoding: 42
Width: 644
VWidth: 1000
Flags: HW
Fore
225.6 1128 m 1
 340.8 1128 l 1
 331.2 921.6 l 1
 526.8 991.2 l 1
 561.6 883.2 l 1
 362.4 826.8 l 1
 492 663.6 l 1
 397.2 597.6 l 1
 283.2 768 l 1
 166.8 597.6 l 1
 74.4004 663.6 l 1
 202.8 826.8 l 1
 2.40039 883.2 l 1
 38.4004 991.2 l 1
 234 921.6 l 1
 225.6 1128 l 1
EndSplineSet
EndChar
StartChar: plus
Encoding: 12 43 14
OldEncoding: 43
Width: 967
VWidth: 1000
Flags: HW
Fore
876 406.8 m 1
 876 277.2 l 1
 495.6 277.2 l 1
 495.6 -103.2 l 1
 366 -103.2 l 1
 366 277.2 l 1
 -15.5996 277.2 l 1
 -15.5996 406.8 l 1
 366 406.8 l 1
 366 788.4 l 1
 495.6 788.4 l 1
 495.6 406.8 l 1
 876 406.8 l 1
EndSplineSet
EndChar
StartChar: comma
Encoding: 13 44 15
OldEncoding: 44
Width: 459
VWidth: 1000
Flags: HW
Fore
109.2 200.4 m 5
 302.4 200.4 l 5
 302.4 -21.5996 l 6
 302.4 -180 237.6 -264 109.2 -264 c 5
 109.2 -193.2 l 5
 194.4 -188.4 219.6 -152.4 219.6 -25.2002 c 6
 219.6 8.40039 l 5
 109.2 8.40039 l 5
 109.2 200.4 l 5
EndSplineSet
EndChar
StartChar: hyphen
Encoding: 14 45 16
OldEncoding: 45
Width: 550
VWidth: 1000
Flags: HW
Fore
463.2 472.8 m 1
 463.2 340.8 l 1
 22.7998 340.8 l 1
 22.7998 472.8 l 1
 463.2 472.8 l 1
EndSplineSet
EndChar
StartChar: period
Encoding: 15 46 17
OldEncoding: 46
Width: 459
VWidth: 1000
Flags: HW
Fore
301.2 172.8 m 1
 301.2 -19.2002 l 1
 109.2 -19.2002 l 1
 109.2 172.8 l 1
 301.2 172.8 l 1
EndSplineSet
EndChar
StartChar: slash
Encoding: 16 47 18
OldEncoding: 47
Width: 459
VWidth: 1000
Flags: HW
Fore
370.8 1213.2 m 1
 472.8 1213.2 l 1
 36 -168 l 1
 -66 -168 l 1
 370.8 1213.2 l 1
EndSplineSet
EndChar
StartChar: zero
Encoding: 17 48 19
OldEncoding: 48
Width: 921
VWidth: 1000
Flags: HW
Fore
405.6 1179.6 m 0
 729.6 1179.6 832.8 873.6 832.8 494.4 c 0
 832.8 66 681.6 -168 405.6 -168 c 0
 124.8 -168 -21.5996 66 -21.5996 505.2 c 0
 -21.5996 747.6 20.4004 921.6 104.4 1035.6 c 0
 172.8 1128 284.4 1179.6 405.6 1179.6 c 0
405.6 1035.6 m 0
 230.4 1035.6 142.8 861.6 142.8 504 c 0
 142.8 146.4 230.4 -34.7998 400.8 -34.7998 c 0
 583.2 -34.7998 667.2 139.2 667.2 510 c 0
 667.2 860.4 580.8 1035.6 405.6 1035.6 c 0
EndSplineSet
EndChar
StartChar: one
Encoding: 18 49 20
OldEncoding: 49
Width: 939
VWidth: 1000
Flags: HW
Fore
393.6 799.2 m 1
 104.4 799.2 l 1
 104.4 916.8 l 1
 355.2 948 392.4 974.4 450 1176 c 1
 558 1176 l 1
 558 -130.8 l 1
 393.6 -130.8 l 1
 393.6 799.2 l 1
EndSplineSet
EndChar
StartChar: two
Encoding: 19 50 21
OldEncoding: 50
Width: 921
VWidth: 1000
Flags: HW
Fore
422.4 1176 m 0
 670.8 1176 841.2 1020 841.2 793.2 c 0
 841.2 632.4 746.4 498 564 398.4 c 2
 381.6 298.8 l 1
 220.8 205.2 162 136.8 144 30 c 1
 832.8 30 l 1
 832.8 -130.8 l 1
 -37.2002 -130.8 l 1
 -22.7998 156 55.2002 280.8 328.8 434.4 c 2
 499.2 530.4 l 2
 614.4 596.4 674.4 685.2 674.4 788.4 c 0
 674.4 930 564 1033.2 417.6 1033.2 c 0
 319.2 1033.2 235.2 986.4 193.2 907.2 c 0
 170.4 865.2 158.4 811.2 154.8 722.4 c 1
 -9.59961 722.4 l 1
 -4.7998 856.8 14.4004 937.2 61.2002 1006.8 c 0
 133.2 1117.2 256.8 1176 422.4 1176 c 0
EndSplineSet
EndChar
StartChar: three
Encoding: 20 51 22
OldEncoding: 51
Width: 922
VWidth: 1000
Flags: HW
Fore
391.2 -168 m 0
 117.6 -168 -19.2002 -30 -39.5996 253.2 c 1
 122.4 253.2 l 1
 133.2 63.5996 218.4 -24 397.2 -24 c 0
 565.2 -24 667.2 73.2002 667.2 236.4 c 0
 667.2 393.6 576 475.2 397.2 475.2 c 2
 328.8 474 l 1
 308.4 474 l 1
 308.4 609.6 l 1
 523.2 614.4 628.8 644.4 628.8 816 c 0
 628.8 954 542.4 1038 398.4 1038 c 0
 296.4 1038 216 993.6 177.6 921.6 c 0
 158.4 882 151.2 837.6 150 758.4 c 1
 -12 758.4 l 1
 -7.2002 1035.6 133.2 1179.6 397.2 1179.6 c 0
 644.4 1179.6 794.4 1046.4 794.4 822 c 0
 794.4 690 734.4 597.6 613.2 549.6 c 1
 769.2 495.6 834 404.4 834 240 c 0
 834 -8.40039 660 -168 391.2 -168 c 0
EndSplineSet
EndChar
StartChar: four
Encoding: 21 52 23
OldEncoding: 52
Width: 921
VWidth: 1000
Flags: HW
Fore
501.6 182.4 m 1
 -50.4004 182.4 l 1
 -50.4004 354 l 1
 543.6 1176 l 1
 663.6 1176 l 1
 663.6 328.8 l 1
 858 328.8 l 1
 858 182.4 l 1
 663.6 182.4 l 1
 663.6 -130.8 l 1
 501.6 -130.8 l 1
 501.6 182.4 l 1
501.6 328.8 m 1
 501.6 900 l 1
 92.4004 328.8 l 1
 501.6 328.8 l 1
EndSplineSet
EndChar
StartChar: five
Encoding: 22 53 24
OldEncoding: 53
Width: 921
VWidth: 1000
Flags: HW
Fore
776.4 1179.6 m 1
 776.4 1020 l 1
 232.8 1020 l 1
 181.2 655.2 l 1
 255.6 710.4 328.8 734.4 422.4 734.4 c 0
 673.2 734.4 844.8 558 844.8 300 c 0
 844.8 24 661.2 -168 397.2 -168 c 0
 248.4 -168 116.4 -111.6 43.2002 -12 c 1
 3.59961 36 -14.4004 87.5996 -36 194.4 c 1
 124.8 194.4 l 1
 164.4 48 252 -24 392.4 -24 c 0
 568.8 -24 679.2 90 679.2 277.2 c 0
 679.2 470.4 567.6 590.4 392.4 590.4 c 0
 291.6 590.4 229.2 559.2 153.6 469.2 c 1
 3.59961 469.2 l 1
 100.8 1179.6 l 1
 776.4 1179.6 l 1
EndSplineSet
EndChar
StartChar: six
Encoding: 23 54 25
OldEncoding: 54
Width: 920
VWidth: 1000
Flags: HW
Fore
415.2 -168 m 0
 88.7998 -168 -22.7998 99.5996 -22.7998 469.2 c 0
 -22.7998 708 13.2002 866.4 93.5996 993.6 c 0
 171.6 1110 301.2 1179.6 445.2 1179.6 c 0
 643.2 1179.6 783.6 1053.6 816 840 c 1
 652.8 840 l 1
 627.6 963.6 548.4 1035.6 434.4 1035.6 c 0
 247.2 1035.6 144 860.4 141.6 541.2 c 1
 212.4 637.2 314.4 686.4 444 686.4 c 0
 676.8 686.4 843.6 516 843.6 271.2 c 0
 843.6 15.5996 663.6 -168 415.2 -168 c 0
422.4 542.4 m 0
 264 542.4 152.4 429.6 152.4 267.6 c 0
 152.4 99.5996 266.4 -24 417.6 -24 c 0
 566.4 -24 676.8 96 676.8 259.2 c 0
 676.8 434.4 579.6 542.4 422.4 542.4 c 0
EndSplineSet
EndChar
StartChar: seven
Encoding: 24 55 26
OldEncoding: 55
Width: 918
VWidth: 1000
Flags: HW
Fore
854.4 1176 m 1
 854.4 1039.2 l 1
 559.2 646.8 394.8 288 322.8 -130.8 c 1
 151.2 -130.8 l 1
 248.4 298.8 374.4 571.2 686.4 1015.2 c 1
 -20.4004 1015.2 l 1
 -20.4004 1176 l 1
 854.4 1176 l 1
EndSplineSet
EndChar
StartChar: eight
Encoding: 25 56 27
OldEncoding: 56
Width: 920
VWidth: 1000
Flags: HW
Fore
620.4 560.4 m 1
 770.4 488.4 844.8 380.4 844.8 235.2 c 0
 844.8 -3.59961 663.6 -168 405.6 -168 c 0
 147.6 -168 -32.4004 -3.59961 -32.4004 236.4 c 0
 -32.4004 380.4 40.7998 488.4 189.6 560.4 c 1
 57.5996 644.4 12 710.4 12 831.6 c 0
 12 1035.6 174 1179.6 405.6 1179.6 c 0
 638.4 1179.6 796.8 1035.6 796.8 831.6 c 0
 796.8 709.2 753.6 642 620.4 560.4 c 1
405.6 1035.6 m 0
 268.8 1035.6 178.8 955.2 178.8 830.4 c 0
 178.8 708 268.8 626.4 405.6 626.4 c 128
 542.4 626.4 632.4 708 632.4 829.2 c 0
 632.4 955.2 543.6 1035.6 405.6 1035.6 c 0
405.6 488.4 m 0
 243.6 488.4 132 385.2 132 231.6 c 0
 132 79.2002 243.6 -24 400.8 -24 c 0
 567.6 -24 678 78 678 231.6 c 128
 678 385.2 567.6 488.4 405.6 488.4 c 0
EndSplineSet
EndChar
StartChar: nine
Encoding: 26 57 28
OldEncoding: 57
Width: 921
VWidth: 1000
Flags: HW
Fore
397.2 1179.6 m 0
 721.2 1179.6 836.4 914.4 836.4 542.4 c 0
 836.4 303.6 800.4 145.2 716.4 18 c 0
 642 -98.4004 511.2 -168 367.2 -168 c 0
 168 -168 28.7998 -42 -3.59961 171.6 c 1
 158.4 171.6 l 1
 184.8 48 265.2 -24 378 -24 c 0
 564 -24 667.2 151.2 669.6 470.4 c 1
 584.4 369.6 494.4 325.2 369.6 325.2 c 0
 134.4 325.2 -30 495.6 -30 740.4 c 0
 -30 996 148.8 1179.6 397.2 1179.6 c 0
396 1038 m 0
 246 1038 134.4 919.2 134.4 752.4 c 0
 134.4 577.2 234 469.2 390 469.2 c 0
 548.4 469.2 661.2 583.2 661.2 744 c 0
 661.2 913.2 546 1038 396 1038 c 0
EndSplineSet
EndChar
StartChar: colon
Encoding: 27 58 29
OldEncoding: 58
Width: 451
VWidth: 1000
Flags: HW
Fore
334.8 96 m 1
 334.8 -96 l 1
 142.8 -96 l 1
 142.8 96 l 1
 334.8 96 l 1
334.8 868.8 m 1
 334.8 676.8 l 1
 142.8 676.8 l 1
 142.8 868.8 l 1
 334.8 868.8 l 1
EndSplineSet
EndChar
StartChar: semicolon
Encoding: 28 59 30
OldEncoding: 59
Width: 451
VWidth: 1000
Flags: HW
Fore
336 896.4 m 1
 336 704.4 l 1
 144 704.4 l 1
 144 896.4 l 1
 336 896.4 l 1
142.8 122.4 m 1
 336 122.4 l 1
 336 -99.5996 l 2
 336 -256.8 271.2 -340.8 142.8 -340.8 c 1
 142.8 -270 l 1
 229.2 -266.4 253.2 -230.4 253.2 -102 c 2
 253.2 -69.5996 l 1
 142.8 -69.5996 l 1
 142.8 122.4 l 1
EndSplineSet
EndChar
StartChar: less
Encoding: 29 60 31
OldEncoding: 60
Width: 968
VWidth: 1000
Flags: HW
Fore
-24 280.8 m 1
 -24 405.6 l 1
 877.2 788.4 l 1
 877.2 642 l 1
 151.2 344.4 l 1
 877.2 43.2002 l 1
 877.2 -102 l 1
 -24 280.8 l 1
EndSplineSet
EndChar
StartChar: equal
Encoding: 30 61 32
OldEncoding: 61
Width: 967
VWidth: 1000
Flags: HW
Fore
876 565.2 m 1
 876 436.8 l 1
 -15.5996 436.8 l 1
 -15.5996 565.2 l 1
 876 565.2 l 1
876 249.6 m 1
 876 118.8 l 1
 -15.5996 118.8 l 1
 -15.5996 249.6 l 1
 876 249.6 l 1
EndSplineSet
EndChar
StartChar: greater
Encoding: 31 62 33
OldEncoding: 62
Width: 966
VWidth: 1000
Flags: HW
Fore
884.4 405.6 m 1
 884.4 280.8 l 1
 -16.7998 -102 l 1
 -16.7998 43.2002 l 1
 709.2 340.8 l 1
 -16.7998 642 l 1
 -16.7998 788.4 l 1
 884.4 405.6 l 1
EndSplineSet
EndChar
StartChar: question
Encoding: 32 63 34
OldEncoding: 63
Width: 1189
Flags: HW
Fore
775 1012 m 0
 875 1008 959.667 973.333 1029 908 c 2
 1030 907 l 2
 1102 839 1137.67 756.667 1137 660 c 0
 1137 617.333 1122 576.333 1092 537 c 0
 1052 483.667 977.667 427 869 367 c 0
 810.333 335 777.667 315.667 771 309 c 0
 745 284.333 731.333 237.333 730 168 c 1
 732 102 l 1
 675 111 l 1
 618 285 l 1
 618 347.667 639 396.667 681 432 c 0
 687 437.333 694.333 443.333 703 450 c 1
 703 451 l 1
 836 547 l 2
 919.333 607.667 961.667 653.333 963 684 c 0
 965 736 955 780 933 816 c 0
 896.333 876.667 833.333 909.333 744 914 c 0
 687.333 917.333 639.333 904.667 600 876 c 2
 599 876 l 1
 579 858 l 1
 607 824 622 785 624 741 c 0
 624.667 721 616 702.333 598 685 c 0
 569.333 657 532 640.667 486 636 c 0
 458 633.333 430.667 644 404 668 c 0
 372.667 697.333 357 729.667 357 765 c 0
 357 823 383.667 871.333 437 910 c 0
 439.667 912 442 913.667 444 915 c 1
 444 915 l 1
 544 983.667 654.333 1016 775 1012 c 0
693 15 m 0
 730.333 14.3333 759 -2 779 -34 c 0
 789.667 -50.6667 795 -69.3333 795 -90 c 0
 795 -128.667 779.333 -158.667 748 -180 c 0
 730.667 -192 711.333 -198 690 -198 c 0
 652.667 -197.333 624 -180.667 604 -148 c 0
 592.667 -129.333 587.333 -109 588 -87 c 0
 589.333 -49.6667 605.667 -21 637 -1 c 0
 654.333 9.66667 673 15 693 15 c 0
EndSplineSet
EndChar
StartChar: at
Encoding: 33 64 35
OldEncoding: 64
Width: 1687
VWidth: 1000
Flags: HW
Fore
1044 813.6 m 1
 1196.4 813.6 l 1
 1032 297.6 l 1
 1016.4 255.6 1009.2 220.8 1009.2 204 c 0
 1009.2 160.8 1051.2 123.6 1100.4 123.6 c 0
 1256.4 123.6 1410 332.4 1410 548.4 c 0
 1410 855.6 1114.8 1113.6 762 1113.6 c 0
 373.2 1113.6 37.2002 778.8 37.2002 392.4 c 0
 37.2002 40.7998 338.4 -230.4 728.4 -230.4 c 0
 828 -230.4 932.4 -213.6 1084.8 -171.6 c 1
 1135.2 -295.2 l 1
 1003.2 -344.4 856.8 -373.2 720 -373.2 c 0
 253.2 -373.2 -118.8 -44.4004 -118.8 364.8 c 0
 -118.8 607.2 -7.2002 854.4 172.8 1017.6 c 0
 334.8 1164 566.4 1256.4 786 1256.4 c 0
 1214.4 1256.4 1572 944.4 1572 571.2 c 0
 1572 427.2 1513.2 276 1412.4 158.4 c 0
 1318.8 48 1206 -4.7998 1070.4 -4.7998 c 0
 954 -4.7998 883.2 43.2002 866.4 135.6 c 1
 782.4 44.4004 703.2 3.59961 604.8 3.59961 c 0
 433.2 3.59961 306 148.8 306 340.8 c 0
 306 608.4 532.8 850.8 778.8 850.8 c 0
 880.8 850.8 958.8 796.8 1003.2 692.4 c 1
 1044 813.6 l 1
768 734.4 m 0
 613.2 734.4 470.4 544.8 470.4 339.6 c 0
 470.4 218.4 552 122.4 654 122.4 c 0
 721.2 122.4 788.4 165.6 841.2 242.4 c 0
 888 309.6 937.2 464.4 940.8 556.8 c 0
 946.8 656.4 870 734.4 768 734.4 c 0
EndSplineSet
EndChar
StartChar: A
Encoding: 34 65 36
OldEncoding: 65
Width: 1104
VWidth: 1000
Flags: HW
Fore
751.2 268.8 m 1
 231.6 268.8 l 1
 91.2002 -134.4 l 1
 -92.4004 -134.4 l 1
 386.4 1209.6 l 1
 608.4 1209.6 l 1
 1080 -134.4 l 1
 888 -134.4 l 1
 751.2 268.8 l 1
703.2 412.8 m 1
 495.6 1024.8 l 1
 273.6 412.8 l 1
 703.2 412.8 l 1
EndSplineSet
EndChar
StartChar: B
Encoding: 35 66 37
OldEncoding: 66
Width: 1098
VWidth: 1000
Flags: HW
Fore
15.5996 -134.4 m 1
 15.5996 1209.6 l 1
 561.6 1209.6 l 2
 691.2 1209.6 782.4 1179.6 853.2 1114.8 c 0
 921.6 1052.4 960 967.2 960 867.6 c 0
 960 732 895.2 632.4 774 574.8 c 1
 944.4 508.8 1020 411.6 1020 249.6 c 0
 1020 142.8 981.6 48 915.6 -21.5996 c 0
 843.6 -99.5996 750 -134.4 624 -134.4 c 2
 15.5996 -134.4 l 1
187.2 631.2 m 1
 519.6 631.2 l 2
 614.4 631.2 668.4 643.2 715.2 679.2 c 0
 763.2 715.2 788.4 772.8 788.4 843.6 c 0
 788.4 916.8 763.2 974.4 715.2 1010.4 c 0
 668.4 1046.4 614.4 1058.4 519.6 1058.4 c 2
 187.2 1058.4 l 1
 187.2 631.2 l 1
847.2 247.2 m 0
 847.2 384 764.4 478.8 606 478.8 c 2
 187.2 478.8 l 1
 187.2 16.7998 l 1
 606 16.7998 l 2
 687.6 16.7998 745.2 36 786 81.5996 c 0
 825.6 123.6 847.2 182.4 847.2 247.2 c 0
EndSplineSet
EndChar
StartChar: C
Encoding: 36 67 38
OldEncoding: 67
Width: 1195
VWidth: 1000
Flags: HW
Fore
1087.2 794.4 m 1
 912 794.4 l 1
 890.4 895.2 864 950.4 814.8 997.2 c 0
 758.4 1050 656.4 1082.4 548.4 1082.4 c 0
 288 1082.4 126 870 126 525.6 c 0
 126 189.6 295.2 -22.7998 562.8 -22.7998 c 0
 706.8 -22.7998 822 38.4004 876 150 c 0
 904.8 204 922.8 265.2 937.2 357.6 c 1
 1114.8 357.6 l 1
 1074 2.40039 889.2 -174 560.4 -174 c 0
 386.4 -174 253.2 -124.8 150 -18 c 0
 22.7998 111.6 -45.5996 302.4 -45.5996 523.2 c 0
 -45.5996 741.6 20.4004 932.4 142.8 1065.6 c 0
 242.4 1176 388.8 1233.6 568.8 1233.6 c 0
 864 1233.6 1033.2 1089.6 1087.2 794.4 c 1
EndSplineSet
EndChar
StartChar: D
Encoding: 37 68 39
OldEncoding: 68
Width: 1189
VWidth: 1000
Flags: HW
Fore
24 -134.4 m 1
 24 1209.6 l 1
 543.6 1209.6 l 2
 883.2 1209.6 1090.8 955.2 1090.8 538.8 c 0
 1090.8 120 882 -134.4 543.6 -134.4 c 2
 24 -134.4 l 1
196.8 16.7998 m 1
 513.6 16.7998 l 2
 778.8 16.7998 919.2 196.8 919.2 536.4 c 0
 919.2 879.6 778.8 1058.4 513.6 1058.4 c 2
 196.8 1058.4 l 1
 196.8 16.7998 l 1
EndSplineSet
EndChar
StartChar: uni0045
Encoding: 38 69 40
OldEncoding: 69
Width: 1098
VWidth: 1000
Flags: HW
Fore
207.6 477.6 m 1
 207.6 16.7998 l 1
 999.6 16.7998 l 1
 999.6 -134.4 l 1
 36 -134.4 l 1
 36 1209.6 l 1
 967.2 1209.6 l 1
 967.2 1058.4 l 1
 207.6 1058.4 l 1
 207.6 628.8 l 1
 939.6 628.8 l 1
 939.6 477.6 l 1
 207.6 477.6 l 1
EndSplineSet
EndChar
StartChar: F
Encoding: 39 70 41
OldEncoding: 70
Width: 1000
VWidth: 1000
Flags: HW
Fore
213.6 477.6 m 1
 213.6 -134.4 l 1
 42 -134.4 l 1
 42 1209.6 l 1
 944.4 1209.6 l 1
 944.4 1058.4 l 1
 213.6 1058.4 l 1
 213.6 628.8 l 1
 854.4 628.8 l 1
 854.4 477.6 l 1
 213.6 477.6 l 1
EndSplineSet
EndChar
StartChar: G
Encoding: 40 71 42
OldEncoding: 71
Width: 1293
VWidth: 1000
Flags: HW
Fore
1167.6 577.2 m 1
 1167.6 -140.4 l 1
 1059.6 -140.4 l 1
 1016.4 38.4004 l 1
 885.6 -106.8 740.4 -174 556.8 -174 c 0
 195.6 -174 -57.5996 111.6 -57.5996 525.6 c 0
 -57.5996 765.6 31.2002 975.6 184.8 1104 c 0
 290.4 1190.4 423.6 1233.6 586.8 1233.6 c 0
 895.2 1233.6 1101.6 1076.4 1149.6 804 c 1
 974.4 804 l 1
 938.4 978 789.6 1082.4 585.6 1082.4 c 0
 301.2 1082.4 115.2 865.2 115.2 535.2 c 0
 115.2 368.4 166.8 207.6 255.6 111.6 c 0
 334.8 26.4004 458.4 -22.7998 595.2 -22.7998 c 0
 838.8 -22.7998 1016.4 150 1016.4 390 c 2
 1016.4 427.2 l 1
 607.2 427.2 l 1
 607.2 577.2 l 1
 1167.6 577.2 l 1
EndSplineSet
EndChar
StartChar: H
Encoding: 41 72 43
OldEncoding: 72
Width: 1194
VWidth: 1000
Flags: HW
Fore
882 477.6 m 1
 192 477.6 l 1
 192 -134.4 l 1
 19.2002 -134.4 l 1
 19.2002 1209.6 l 1
 189.6 1209.6 l 1
 189.6 628.8 l 1
 882 628.8 l 1
 882 1209.6 l 1
 1052.4 1209.6 l 1
 1052.4 -134.4 l 1
 882 -134.4 l 1
 882 477.6 l 1
EndSplineSet
EndChar
StartChar: I
Encoding: 42 73 44
OldEncoding: 73
Width: 457
VWidth: 1000
Flags: HW
Fore
302.4 1209.6 m 1
 302.4 -134.4 l 1
 130.8 -134.4 l 1
 130.8 1209.6 l 1
 302.4 1209.6 l 1
EndSplineSet
EndChar
StartChar: J
Encoding: 43 74 45
OldEncoding: 74
Width: 838
VWidth: 1000
Flags: HW
Fore
531.6 1214.4 m 1
 703.2 1214.4 l 1
 703.2 206.4 l 2
 703.2 -26.4004 559.2 -172.8 325.2 -172.8 c 0
 93.5996 -172.8 -50.4004 -33.5996 -50.4004 183.6 c 2
 -50.4004 300 l 1
 123.6 300 l 1
 123.6 214.8 l 2
 123.6 57.5996 195.6 -28.7998 326.4 -28.7998 c 0
 393.6 -28.7998 457.2 2.40039 489.6 54 c 0
 520.8 100.8 531.6 160.8 531.6 267.6 c 2
 531.6 1214.4 l 1
EndSplineSet
EndChar
StartChar: K
Encoding: 44 75 46
OldEncoding: 75
Width: 1092
VWidth: 1000
Flags: HW
Fore
180 334.8 m 1
 180 -134.4 l 1
 9.59961 -134.4 l 1
 9.59961 1209.6 l 1
 180 1209.6 l 1
 180 528 l 1
 850.8 1209.6 l 1
 1071.6 1209.6 l 1
 524.4 662.4 l 1
 1077.6 -134.4 l 1
 873.6 -134.4 l 1
 400.8 555.6 l 1
 180 334.8 l 1
EndSplineSet
EndChar
StartChar: L
Encoding: 45 76 47
OldEncoding: 76
Width: 909
VWidth: 1000
Flags: HW
Fore
205.2 1209.6 m 1
 205.2 16.7998 l 1
 870 16.7998 l 1
 870 -134.4 l 1
 33.5996 -134.4 l 1
 33.5996 1209.6 l 1
 205.2 1209.6 l 1
EndSplineSet
EndChar
StartChar: M
Encoding: 46 77 48
OldEncoding: 77
Width: 1380
VWidth: 1000
Flags: HW
Fore
708 -134.4 m 1
 528 -134.4 l 1
 146.4 992.4 l 1
 146.4 -134.4 l 1
 -15.5996 -134.4 l 1
 -15.5996 1209.6 l 1
 222 1209.6 l 1
 620.4 39.5996 l 1
 1010.4 1209.6 l 1
 1248 1209.6 l 1
 1248 -134.4 l 1
 1086 -134.4 l 1
 1086 992.4 l 1
 708 -134.4 l 1
EndSplineSet
EndChar
StartChar: N
Encoding: 47 78 49
OldEncoding: 78
Width: 1195
VWidth: 1000
Flags: HW
Fore
1058.4 1209.6 m 1
 1058.4 -134.4 l 1
 864 -134.4 l 1
 170.4 955.2 l 1
 170.4 -134.4 l 1
 7.2002 -134.4 l 1
 7.2002 1209.6 l 1
 192 1209.6 l 1
 895.2 110.4 l 1
 895.2 1209.6 l 1
 1058.4 1209.6 l 1
EndSplineSet
EndChar
StartChar: O
Encoding: 48 79 50
OldEncoding: 79
Width: 1287
VWidth: 1000
Flags: HW
Fore
573.6 1233.6 m 0
 967.2 1233.6 1224 950.4 1224 518.4 c 0
 1224 297.6 1137.6 91.2002 991.2 -32.4004 c 0
 883.2 -124.8 736.8 -174 574.8 -174 c 0
 187.2 -174 -73.2002 109.2 -73.2002 529.2 c 0
 -73.2002 949.2 187.2 1233.6 573.6 1233.6 c 0
573.6 1082.4 m 0
 289.2 1082.4 97.2002 860.4 97.2002 529.2 c 128
 97.2002 198 289.2 -22.7998 574.8 -22.7998 c 0
 858 -22.7998 1051.2 198 1051.2 522 c 0
 1051.2 860.4 864 1082.4 573.6 1082.4 c 0
EndSplineSet
EndChar
StartChar: P
Encoding: 49 80 51
OldEncoding: 80
Width: 1098
VWidth: 1000
Flags: HW
Fore
208.8 435.6 m 1
 208.8 -134.4 l 1
 37.2002 -134.4 l 1
 37.2002 1209.6 l 1
 592.8 1209.6 l 2
 858 1209.6 1006.8 1066.8 1006.8 814.8 c 0
 1006.8 692.4 972 604.8 890.4 530.4 c 0
 818.4 466.8 736.8 435.6 631.2 435.6 c 2
 208.8 435.6 l 1
208.8 586.8 m 1
 565.2 586.8 l 2
 730.8 586.8 828 674.4 828 823.2 c 0
 828 969.6 730.8 1058.4 565.2 1058.4 c 2
 208.8 1058.4 l 1
 208.8 586.8 l 1
EndSplineSet
EndChar
StartChar: Q
Encoding: 50 81 52
OldEncoding: 81
Width: 1287
VWidth: 1000
Flags: HW
Fore
1207.2 -127.2 m 1
 1120.8 -235.2 l 1
 927.6 -74.4004 l 1
 817.2 -138 708 -168 574.8 -168 c 0
 187.2 -168 -73.2002 115.2 -73.2002 535.2 c 0
 -73.2002 955.2 187.2 1240.8 574.8 1240.8 c 0
 961.2 1240.8 1224 955.2 1224 538.8 c 0
 1224 327.6 1161.6 154.8 1033.2 15.5996 c 1
 1207.2 -127.2 l 1
742.8 252 m 1
 906 117.6 l 1
 1006.8 230.4 1051.2 364.8 1051.2 537.6 c 0
 1051.2 867.6 861.6 1089.6 574.8 1089.6 c 0
 289.2 1089.6 97.2002 867.6 97.2002 535.2 c 0
 97.2002 204 286.8 -16.7998 573.6 -16.7998 c 0
 654 -16.7998 714 -2.40039 793.2 34.7998 c 1
 658.8 148.8 l 1
 742.8 252 l 1
EndSplineSet
EndChar
StartChar: R
Encoding: 51 82 53
OldEncoding: 82
Width: 1185
VWidth: 1000
Flags: HW
Fore
201.6 444 m 1
 201.6 -134.4 l 1
 28.7998 -134.4 l 1
 28.7998 1209.6 l 1
 648 1209.6 l 2
 912 1209.6 1057.2 1082.4 1057.2 849.6 c 0
 1057.2 696 997.2 602.4 846 528 c 1
 991.2 466.8 1026 399.6 1027.2 178.8 c 0
 1032 0 1044 -48 1110 -92.4004 c 1
 1110 -134.4 l 1
 900 -134.4 l 1
 877.2 -79.2002 862.8 2.40039 862.8 84 c 1
 864 204 l 1
 864 370.8 795.6 444 642 444 c 2
 201.6 444 l 1
201.6 596.4 m 1
 615.6 596.4 l 2
 796.8 596.4 879.6 668.4 879.6 825.6 c 0
 879.6 907.2 855.6 968.4 808.8 1006.8 c 0
 766.8 1042.8 711.6 1058.4 615.6 1058.4 c 2
 201.6 1058.4 l 1
 201.6 596.4 l 1
EndSplineSet
EndChar
StartChar: S
Encoding: 52 83 54
OldEncoding: 83
Width: 1105
VWidth: 1000
Flags: HW
Fore
976.8 817.2 m 1
 812.4 817.2 l 1
 811.2 991.2 691.2 1089.6 477.6 1089.6 c 0
 296.4 1089.6 176.4 998.4 176.4 864 c 0
 176.4 759.6 235.2 708 398.4 663.6 c 2
 734.4 572.4 l 2
 918 523.2 1021.2 402 1021.2 236.4 c 0
 1021.2 121.2 964.8 0 873.6 -70.7998 c 0
 787.2 -138 656.4 -174 496.8 -174 c 0
 292.8 -174 136.8 -108 44.4004 18 c 0
 -9.59961 91.2002 -33.5996 171.6 -34.7998 295.2 c 1
 127.2 295.2 l 1
 126 212.4 148.8 147.6 198 90 c 0
 261.6 12 361.2 -22.7998 506.4 -22.7998 c 0
 616.8 -22.7998 700.8 -3.59961 753.6 32.4004 c 0
 811.2 73.2002 849.6 147.6 849.6 219.6 c 0
 849.6 325.2 772.8 392.4 602.4 438 c 2
 270 525.6 l 2
 92.4004 571.2 6 674.4 6 837.6 c 0
 6 1082.4 188.4 1233.6 482.4 1233.6 c 0
 793.2 1233.6 973.2 1081.2 976.8 817.2 c 1
EndSplineSet
EndChar
StartChar: T
Encoding: 53 84 55
OldEncoding: 84
Width: 1011
VWidth: 1000
Flags: HW
Fore
540 1058.4 m 1
 540 -134.4 l 1
 368.4 -134.4 l 1
 368.4 1058.4 l 1
 -74.4004 1058.4 l 1
 -74.4004 1209.6 l 1
 979.2 1209.6 l 1
 979.2 1058.4 l 1
 540 1058.4 l 1
EndSplineSet
EndChar
StartChar: U
Encoding: 54 85 56
OldEncoding: 85
Width: 1194
VWidth: 1000
Flags: HW
Fore
882 1214.4 m 1
 1054.8 1214.4 l 1
 1054.8 268.8 l 2
 1054.8 0 852 -172.8 536.4 -172.8 c 0
 218.4 -172.8 21.5996 -2.40039 21.5996 268.8 c 2
 21.5996 1214.4 l 1
 194.4 1214.4 l 1
 194.4 268.8 l 2
 194.4 66 339.6 -20.4004 536.4 -20.4004 c 0
 752.4 -20.4004 882 88.7998 882 268.8 c 2
 882 1214.4 l 1
EndSplineSet
EndChar
StartChar: V
Encoding: 55 86 57
OldEncoding: 86
Width: 1104
VWidth: 1000
Flags: HW
Fore
598.8 -134.4 m 1
 414 -134.4 l 1
 -69.5996 1209.6 l 1
 115.2 1209.6 l 1
 510 70.7998 l 1
 882 1209.6 l 1
 1065.6 1209.6 l 1
 598.8 -134.4 l 1
EndSplineSet
EndChar
StartChar: W
Encoding: 56 87 58
OldEncoding: 87
Width: 1562
VWidth: 1000
Flags: HW
Fore
1195.2 -134.4 m 1
 1008 -134.4 l 1
 699.6 969.6 l 1
 397.2 -134.4 l 1
 210 -134.4 l 1
 -134.4 1209.6 l 1
 57.5996 1209.6 l 1
 309.6 118.8 l 1
 607.2 1209.6 l 1
 792 1209.6 l 1
 1098 118.8 l 1
 1345.2 1209.6 l 1
 1537.2 1209.6 l 1
 1195.2 -134.4 l 1
EndSplineSet
EndChar
StartChar: X
Encoding: 57 88 59
OldEncoding: 88
Width: 1104
VWidth: 1000
Flags: HW
Fore
597.6 555.6 m 1
 1071.6 -134.4 l 1
 860.4 -134.4 l 1
 494.4 427.2 l 1
 124.8 -134.4 l 1
 -82.7998 -134.4 l 1
 392.4 555.6 l 1
 -52.7998 1209.6 l 1
 153.6 1209.6 l 1
 499.2 681.6 l 1
 844.8 1209.6 l 1
 1051.2 1209.6 l 1
 597.6 555.6 l 1
EndSplineSet
EndChar
StartChar: Y
Encoding: 58 89 60
OldEncoding: 89
Width: 1104
VWidth: 1000
Flags: HW
Fore
590.4 393.6 m 1
 590.4 -134.4 l 1
 417.6 -134.4 l 1
 417.6 393.6 l 1
 -100.8 1209.6 l 1
 111.6 1209.6 l 1
 506.4 555.6 l 1
 890.4 1209.6 l 1
 1094.4 1209.6 l 1
 590.4 393.6 l 1
EndSplineSet
EndChar
StartChar: Z
Encoding: 59 90 61
OldEncoding: 90
Width: 1011
VWidth: 1000
Flags: HW
Fore
958.8 1209.6 m 1
 958.8 1054.8 l 1
 154.8 16.7998 l 1
 961.2 16.7998 l 1
 961.2 -134.4 l 1
 -61.2002 -134.4 l 1
 -61.2002 16.7998 l 1
 745.2 1058.4 l 1
 -9.59961 1058.4 l 1
 -9.59961 1209.6 l 1
 958.8 1209.6 l 1
EndSplineSet
EndChar
StartChar: bracketleft
Encoding: 60 91 62
OldEncoding: 91
Width: 453
VWidth: 1000
Flags: HW
Fore
403.2 1248 m 1
 403.2 1116 l 1
 213.6 1116 l 1
 213.6 -352.8 l 1
 403.2 -352.8 l 1
 403.2 -484.8 l 1
 60 -484.8 l 1
 60 1248 l 1
 403.2 1248 l 1
EndSplineSet
EndChar
StartChar: backslash
Encoding: 61 92 63
OldEncoding: 92
Width: 459
VWidth: 1000
Flags: HW
Fore
36 1213.2 m 1
 472.8 -168 l 1
 370.8 -168 l 1
 -66 1213.2 l 1
 36 1213.2 l 1
EndSplineSet
EndChar
StartChar: bracketright
Encoding: 62 93 64
OldEncoding: 93
Width: 468
VWidth: 1000
Flags: HW
Fore
-1.2002 -484.8 m 1
 -1.2002 -352.8 l 1
 189.6 -352.8 l 1
 189.6 1116 l 1
 -1.2002 1116 l 1
 -1.2002 1248 l 1
 343.2 1248 l 1
 343.2 -484.8 l 1
 -1.2002 -484.8 l 1
EndSplineSet
EndChar
StartChar: asciicircum
Encoding: 63 94 65
OldEncoding: 94
Width: 777
VWidth: 1000
Flags: HW
Fore
276 1114.8 m 1
 411.6 1114.8 l 1
 696 415.2 l 1
 568.8 415.2 l 1
 344.4 968.4 l 1
 122.4 415.2 l 1
 -4.7998 415.2 l 1
 276 1114.8 l 1
EndSplineSet
EndChar
StartChar: underscore
Encoding: 64 95 66
OldEncoding: 95
Width: 920
VWidth: 1000
Flags: HW
Fore
962.4 -176.4 m 1
 962.4 -268.8 l 1
 -142.8 -268.8 l 1
 -142.8 -176.4 l 1
 962.4 -176.4 l 1
EndSplineSet
EndChar
StartChar: grave
Encoding: 65 96 67
OldEncoding: 96
Width: 480
Flags: HW
Fore
322.8 932.4 m 1
 129.6 932.4 l 1
 129.6 1154.4 l 2
 129.6 1312.8 194.4 1396.8 322.8 1396.8 c 1
 322.8 1326 l 1
 237.6 1321.2 212.4 1285.2 212.4 1158 c 2
 212.4 1124.4 l 1
 322.8 1124.4 l 1
 322.8 932.4 l 1
EndSplineSet
EndChar
StartChar: a
Encoding: 66 97 68
OldEncoding: 97
Width: 915
VWidth: 1000
Flags: HW
Fore
880.8 -4.7998 m 1
 880.8 -120 l 1
 829.2 -134.4 805.2 -136.8 774 -136.8 c 0
 674.4 -136.8 626.4 -93.5996 616.8 4.7998 c 1
 506.4 -94.7998 409.2 -136.8 288 -136.8 c 0
 93.5996 -136.8 -28.7998 -26.4004 -28.7998 147.6 c 0
 -28.7998 273.6 28.7998 361.2 139.2 405.6 c 0
 199.2 429.6 232.8 436.8 450 465.6 c 0
 571.2 480 610.8 507.6 610.8 572.4 c 2
 610.8 613.2 l 2
 610.8 704.4 534 757.2 394.8 757.2 c 0
 250.8 757.2 180 703.2 168 585.6 c 1
 13.2002 585.6 l 1
 16.7998 680.4 36 735.6 79.2002 784.8 c 0
 144 856.8 261.6 897.6 400.8 897.6 c 0
 637.2 897.6 763.2 806.4 763.2 636 c 2
 763.2 67.2002 l 2
 763.2 19.2002 792 -8.40039 846 -8.40039 c 0
 854.4 -8.40039 862.8 -8.40039 880.8 -4.7998 c 1
610.8 208.8 m 2
 610.8 381.6 l 1
 558 357.6 525.6 351.6 362.4 328.8 c 0
 199.2 303.6 130.8 253.2 130.8 151.2 c 0
 130.8 55.2002 201.6 -3.59961 321.6 -3.59961 c 0
 410.4 -3.59961 486 26.4004 549.6 84 c 0
 595.2 127.2 610.8 158.4 610.8 208.8 c 2
EndSplineSet
EndChar
StartChar: b
Encoding: 67 98 69
OldEncoding: 98
Width: 915
VWidth: 1000
Flags: HW
Fore
-6 1214.4 m 1
 146.4 1214.4 l 1
 146.4 705.6 l 1
 217.2 813.6 312 862.8 444 862.8 c 0
 698.4 862.8 858 669.6 858 357.6 c 0
 858 34.7998 691.2 -172.8 436.8 -172.8 c 0
 302.4 -172.8 205.2 -120 130.8 -7.2002 c 1
 130.8 -129.6 l 1
 -6 -129.6 l 1
 -6 1214.4 l 1
415.2 718.8 m 0
 252 718.8 146.4 571.2 146.4 345.6 c 0
 146.4 118.8 252 -28.7998 415.2 -28.7998 c 0
 583.2 -28.7998 697.2 120 697.2 339.6 c 0
 697.2 570 586.8 718.8 415.2 718.8 c 0
EndSplineSet
EndChar
StartChar: c
Encoding: 68 99 70
OldEncoding: 99
Width: 826
VWidth: 1000
Flags: HW
Fore
775.2 547.2 m 1
 620.4 547.2 l 1
 601.2 680.4 519.6 757.2 391.2 757.2 c 0
 223.2 757.2 123.6 613.2 123.6 372 c 0
 123.6 141.6 224.4 4.7998 396 4.7998 c 0
 525.6 4.7998 604.8 81.5996 631.2 236.4 c 1
 784.8 236.4 l 1
 768 1.2002 621.6 -136.8 391.2 -136.8 c 0
 129.6 -136.8 -36 60 -36 372 c 0
 -36 691.2 133.2 897.6 393.6 897.6 c 0
 528 897.6 643.2 843.6 710.4 753.6 c 0
 746.4 700.8 768 639.6 775.2 547.2 c 1
EndSplineSet
EndChar
StartChar: d
Encoding: 69 100 71
OldEncoding: 100
Width: 926
VWidth: 1000
Flags: HW
Fore
816 1214.4 m 1
 816 -129.6 l 1
 679.2 -129.6 l 1
 679.2 -2.40039 l 1
 597.6 -122.4 505.2 -172.8 372 -172.8 c 0
 112.8 -172.8 -48 28.7998 -48 354 c 0
 -48 663.6 117.6 862.8 366 862.8 c 0
 494.4 862.8 598.8 811.2 662.4 714 c 1
 662.4 1214.4 l 1
 816 1214.4 l 1
393.6 718.8 m 0
 225.6 718.8 112.8 570 112.8 345.6 c 0
 112.8 120 225.6 -28.7998 394.8 -28.7998 c 0
 556.8 -28.7998 662.4 118.8 662.4 340.8 c 0
 662.4 571.2 558 718.8 393.6 718.8 c 0
EndSplineSet
EndChar
StartChar: e
Encoding: 70 101 72
OldEncoding: 101
Width: 920
VWidth: 1000
Flags: HW
Fore
844.8 336 m 1
 132 336 l 1
 133.2 241.2 146.4 184.8 182.4 129.6 c 0
 235.2 49.2002 318 4.7998 415.2 4.7998 c 0
 540 4.7998 625.2 69.5996 669.6 199.2 c 1
 823.2 199.2 l 1
 784.8 -12 631.2 -136.8 409.2 -136.8 c 0
 139.2 -136.8 -28.7998 57.5996 -28.7998 374.4 c 0
 -28.7998 691.2 144 897.6 414 897.6 c 0
 594 897.6 742.8 801.6 805.2 644.4 c 0
 832.8 572.4 844.8 483.6 844.8 336 c 1
134.4 460.8 m 1
 678 460.8 l 1
 679.2 465.6 679.2 469.2 679.2 472.8 c 0
 679.2 631.2 562.8 757.2 412.8 757.2 c 0
 256.8 757.2 148.8 639.6 134.4 460.8 c 1
EndSplineSet
EndChar
StartChar: f
Encoding: 71 102 73
OldEncoding: 102
Width: 459
VWidth: 1000
Flags: HW
Fore
424.8 831.6 m 1
 424.8 705.6 l 1
 264 705.6 l 1
 264 -134.4 l 1
 111.6 -134.4 l 1
 111.6 705.6 l 1
 -18 705.6 l 1
 -18 831.6 l 1
 111.6 831.6 l 1
 111.6 994.8 l 2
 111.6 1132.8 195.6 1213.2 337.2 1213.2 c 0
 369.6 1213.2 388.8 1212 424.8 1204.8 c 1
 424.8 1078.8 l 1
 388.8 1080 384 1080 370.8 1080 c 0
 301.2 1080 264 1047.6 264 982.8 c 2
 264 831.6 l 1
 424.8 831.6 l 1
EndSplineSet
EndChar
StartChar: g
Encoding: 72 103 74
OldEncoding: 103
Width: 927
VWidth: 1000
Flags: HW
Fore
663.6 907.2 m 1
 806.4 907.2 l 1
 806.4 99.5996 l 2
 806.4 -128.4 778.8 -249.6 704.4 -336 c 0
 640.8 -415.2 518.4 -460.8 374.4 -460.8 c 0
 147.6 -460.8 7.2002 -352.8 -12 -170.4 c 1
 146.4 -170.4 l 1
 154.8 -226.8 170.4 -252 204 -280.8 c 0
 248.4 -314.4 310.8 -332.4 380.4 -332.4 c 0
 475.2 -332.4 554.4 -298.8 595.2 -242.4 c 0
 632.4 -188.4 648 -108 648 21.5996 c 2
 648 72 l 1
 562.8 -50.4004 477.6 -100.8 356.4 -100.8 c 0
 254.4 -100.8 151.2 -52.7998 80.4004 27.5996 c 0
 0 120 -43.2002 248.4 -43.2002 408 c 0
 -43.2002 721.2 123.6 933.6 369.6 933.6 c 0
 492 933.6 586.8 879.6 663.6 768 c 1
 663.6 907.2 l 1
386.4 793.2 m 0
 220.8 793.2 118.8 649.2 118.8 416.4 c 0
 118.8 182.4 219.6 40.7998 387.6 40.7998 c 0
 549.6 40.7998 648 181.2 648 410.4 c 0
 648 652.8 550.8 793.2 386.4 793.2 c 0
EndSplineSet
EndChar
StartChar: h
Encoding: 73 104 75
OldEncoding: 104
Width: 920
VWidth: 1000
Flags: HW
Fore
26.4004 1209.6 m 1
 180 1209.6 l 1
 180 699.6 l 1
 270 816 354 859.2 488.4 859.2 c 0
 678 859.2 793.2 758.4 793.2 596.4 c 2
 793.2 -134.4 l 1
 639.6 -134.4 l 1
 639.6 535.2 l 2
 639.6 602.4 621.6 648 578.4 680.4 c 0
 541.2 708 489.6 723.6 440.4 723.6 c 0
 283.2 723.6 180 596.4 180 398.4 c 2
 180 -134.4 l 1
 26.4004 -134.4 l 1
 26.4004 1209.6 l 1
EndSplineSet
EndChar
StartChar: i
Encoding: 74 105 76
OldEncoding: 105
Width: 367
VWidth: 1000
Flags: HW
Fore
236.4 831.6 m 1
 236.4 -134.4 l 1
 82.7998 -134.4 l 1
 82.7998 831.6 l 1
 236.4 831.6 l 1
236.4 1209.6 m 1
 236.4 1016.4 l 1
 81.5996 1016.4 l 1
 81.5996 1209.6 l 1
 236.4 1209.6 l 1
EndSplineSet
EndChar
StartChar: j
Encoding: 75 106 77
OldEncoding: 106
Width: 382
VWidth: 1000
Flags: HW
Fore
104.4 871.2 m 1
 256.8 871.2 l 1
 256.8 -295.2 l 2
 256.8 -426 166.8 -496.8 -7.2002 -496.8 c 0
 -31.2002 -496.8 -39.5996 -493.2 -57.5996 -489.6 c 1
 -57.5996 -360 l 1
 -26.4004 -361.2 -26.4004 -361.2 -21.5996 -361.2 c 0
 72 -361.2 104.4 -330 104.4 -235.2 c 2
 104.4 871.2 l 1
256.8 1250.4 m 1
 256.8 1056 l 1
 104.4 1056 l 1
 104.4 1250.4 l 1
 256.8 1250.4 l 1
EndSplineSet
EndChar
StartChar: k
Encoding: 76 107 78
OldEncoding: 107
Width: 817
VWidth: 1000
Flags: HW
Fore
156 1209.6 m 1
 156 422.4 l 1
 566.4 831.6 l 1
 763.2 831.6 l 1
 427.2 496.8 l 1
 822 -134.4 l 1
 631.2 -134.4 l 1
 306 388.8 l 1
 156 242.4 l 1
 156 -134.4 l 1
 3.59961 -134.4 l 1
 3.59961 1209.6 l 1
 156 1209.6 l 1
EndSplineSet
EndChar
StartChar: l
Encoding: 77 108 79
OldEncoding: 108
Width: 367
VWidth: 1000
Flags: HW
Fore
240 1209.6 m 1
 240 -134.4 l 1
 84 -134.4 l 1
 84 1209.6 l 1
 240 1209.6 l 1
EndSplineSet
EndChar
StartChar: m
Encoding: 78 109 80
OldEncoding: 109
Width: 1380
VWidth: 1000
Flags: HW
Fore
-24 866.4 m 1
 117.6 866.4 l 1
 117.6 729.6 l 1
 200.4 847.2 284.4 894 415.2 894 c 0
 540 894 618 849.6 674.4 746.4 c 1
 764.4 856.8 842.4 894 969.6 894 c 0
 1152 894 1251.6 798 1251.6 625.2 c 2
 1251.6 -99.5996 l 1
 1095.6 -99.5996 l 1
 1095.6 565.2 l 2
 1095.6 686.4 1029.6 758.4 918 758.4 c 0
 793.2 758.4 691.2 645.6 691.2 506.4 c 2
 691.2 -99.5996 l 1
 536.4 -99.5996 l 1
 536.4 565.2 l 2
 536.4 690 470.4 758.4 356.4 758.4 c 0
 231.6 758.4 129.6 645.6 129.6 506.4 c 2
 129.6 -99.5996 l 1
 -24 -99.5996 l 1
 -24 866.4 l 1
EndSplineSet
EndChar
StartChar: n
Encoding: 79 110 81
OldEncoding: 110
Width: 920
VWidth: 1000
Flags: HW
Fore
26.4004 866.4 m 1
 169.2 866.4 l 1
 169.2 704.4 l 1
 253.2 837.6 345.6 894 488.4 894 c 0
 674.4 894 794.4 789.6 794.4 631.2 c 2
 794.4 -99.5996 l 1
 640.8 -99.5996 l 1
 640.8 570 l 2
 640.8 685.2 565.2 758.4 444 758.4 c 0
 284.4 758.4 181.2 631.2 181.2 433.2 c 2
 181.2 -99.5996 l 1
 26.4004 -99.5996 l 1
 26.4004 866.4 l 1
EndSplineSet
EndChar
StartChar: o
Encoding: 80 111 82
OldEncoding: 111
Width: 921
VWidth: 1000
Flags: HW
Fore
400.8 897.6 m 0
 679.2 897.6 838.8 708 838.8 373.2 c 0
 838.8 56.4004 673.2 -136.8 402 -136.8 c 0
 127.2 -136.8 -34.7998 56.4004 -34.7998 380.4 c 0
 -34.7998 704.4 130.8 897.6 400.8 897.6 c 0
402 757.2 m 0
 230.4 757.2 126 613.2 126 380.4 c 0
 126 146.4 230.4 4.7998 402 4.7998 c 0
 573.6 4.7998 679.2 147.6 679.2 374.4 c 0
 679.2 614.4 576 757.2 402 757.2 c 0
EndSplineSet
EndChar
StartChar: p
Encoding: 81 112 83
OldEncoding: 112
Width: 915
VWidth: 1000
Flags: HW
Fore
-6 -460.8 m 1
 -6 907.2 l 1
 134.4 907.2 l 1
 134.4 760.8 l 1
 206.4 876 312 933.6 442.8 933.6 c 0
 698.4 933.6 858 732 858 408 c 0
 858 99.5996 693.6 -100.8 444 -100.8 c 0
 319.2 -100.8 229.2 -57.5996 148.8 43.2002 c 1
 148.8 -460.8 l 1
 -6 -460.8 l 1
417.6 789.6 m 0
 254.4 789.6 148.8 643.2 148.8 416.4 c 0
 148.8 189.6 254.4 43.2002 417.6 43.2002 c 0
 585.6 43.2002 697.2 192 697.2 410.4 c 0
 697.2 640.8 586.8 789.6 417.6 789.6 c 0
EndSplineSet
EndChar
StartChar: q
Encoding: 82 113 84
OldEncoding: 113
Width: 926
VWidth: 1000
Flags: HW
Fore
816 -460.8 m 1
 662.4 -460.8 l 1
 662.4 51.5996 l 1
 590.4 -52.7998 499.2 -100.8 364.8 -100.8 c 0
 109.2 -100.8 -48 92.4004 -48 405.6 c 0
 -48 724.8 118.8 933.6 372 933.6 c 0
 499.2 933.6 607.2 878.4 679.2 777.6 c 1
 679.2 907.2 l 1
 816 907.2 l 1
 816 -460.8 l 1
394.8 789.6 m 0
 225.6 789.6 112.8 639.6 112.8 416.4 c 0
 112.8 192 225.6 43.2002 394.8 43.2002 c 0
 556.8 43.2002 662.4 189.6 662.4 410.4 c 0
 662.4 643.2 558 789.6 394.8 789.6 c 0
EndSplineSet
EndChar
StartChar: r
Encoding: 83 114 85
OldEncoding: 114
Width: 540
VWidth: 1000
Flags: HW
Fore
55.2002 866.4 m 1
 196.8 866.4 l 1
 196.8 691.2 l 1
 285.6 835.2 361.2 894 460.8 894 c 0
 480 894 493.2 892.8 519.6 889.2 c 1
 519.6 732 l 1
 412.8 729.6 366 717.6 318 684 c 0
 244.8 631.2 210 541.2 210 402 c 2
 210 -99.5996 l 1
 55.2002 -99.5996 l 1
 55.2002 866.4 l 1
EndSplineSet
EndChar
StartChar: s
Encoding: 84 115 86
OldEncoding: 115
Width: 829
VWidth: 1000
Flags: HW
Fore
716.4 601.2 m 1
 554.4 601.2 l 1
 550.8 703.2 483.6 757.2 360 757.2 c 0
 235.2 757.2 154.8 699.6 154.8 609.6 c 0
 154.8 542.4 208.8 501.6 334.8 472.8 c 2
 482.4 436.8 l 2
 674.4 392.4 754.8 313.2 754.8 169.2 c 0
 754.8 -16.7998 600 -136.8 357.6 -136.8 c 0
 104.4 -136.8 -20.4004 -31.2002 -27.5996 192 c 1
 134.4 192 l 1
 142.8 123.6 153.6 97.2002 177.6 68.4004 c 0
 216 27.5996 286.8 4.7998 369.6 4.7998 c 0
 504 4.7998 595.2 64.7998 595.2 156 c 0
 595.2 225.6 552 264 446.4 290.4 c 2
 302.4 325.2 l 2
 72 380.4 -3.59961 452.4 -3.59961 603.6 c 0
 -3.59961 782.4 141.6 897.6 367.2 897.6 c 0
 590.4 897.6 715.2 792 716.4 601.2 c 1
EndSplineSet
EndChar
StartChar: t
Encoding: 85 116 87
OldEncoding: 116
Width: 462
VWidth: 1000
Flags: HW
Fore
418.8 847.2 m 1
 418.8 721.2 l 1
 259.2 721.2 l 1
 259.2 60 l 2
 259.2 -8.40039 279.6 -27.5996 345.6 -27.5996 c 0
 375.6 -27.5996 399.6 -26.4004 418.8 -18 c 1
 418.8 -148.8 l 1
 367.2 -158.4 330 -160.8 294 -160.8 c 0
 174 -160.8 106.8 -106.8 106.8 -8.40039 c 2
 106.8 721.2 l 1
 -24 721.2 l 1
 -24 847.2 l 1
 106.8 847.2 l 1
 106.8 1112.4 l 1
 259.2 1112.4 l 1
 259.2 847.2 l 1
 418.8 847.2 l 1
EndSplineSet
EndChar
StartChar: u
Encoding: 86 117 88
OldEncoding: 117
Width: 921
VWidth: 1000
Flags: HW
Fore
787.2 -92.4004 m 1
 649.2 -92.4004 l 1
 649.2 43.2002 l 1
 559.2 -85.2002 469.2 -134.4 326.4 -134.4 c 0
 139.2 -134.4 19.2002 -31.2002 19.2002 129.6 c 2
 19.2002 873.6 l 1
 172.8 873.6 l 1
 172.8 189.6 l 2
 172.8 72 248.4 -1.2002 369.6 -1.2002 c 0
 530.4 -1.2002 633.6 129.6 633.6 326.4 c 2
 633.6 873.6 l 1
 787.2 873.6 l 1
 787.2 -92.4004 l 1
EndSplineSet
EndChar
StartChar: v
Encoding: 87 118 89
OldEncoding: 118
Width: 829
VWidth: 1000
Flags: HW
Fore
433.2 -96 m 1
 265.2 -96 l 1
 -73.2002 868.8 l 1
 100.8 868.8 l 1
 358.8 86.4004 l 1
 631.2 868.8 l 1
 804 868.8 l 1
 433.2 -96 l 1
EndSplineSet
EndChar
StartChar: w
Encoding: 88 119 90
OldEncoding: 119
Width: 1196
VWidth: 1000
Flags: HW
Fore
890.4 -96 m 1
 714 -96 l 1
 519.6 661.2 l 1
 333.6 -96 l 1
 159.6 -96 l 1
 -121.2 868.8 l 1
 50.4004 868.8 l 1
 246 117.6 l 1
 430.8 868.8 l 1
 618 868.8 l 1
 807.6 117.6 l 1
 999.6 868.8 l 1
 1173.6 868.8 l 1
 890.4 -96 l 1
EndSplineSet
EndChar
StartChar: x
Encoding: 89 120 91
OldEncoding: 120
Width: 830
VWidth: 1000
Flags: HW
Fore
448.8 403.2 m 1
 781.2 -96 l 1
 602.4 -96 l 1
 361.2 273.6 l 1
 115.2 -96 l 1
 -58.7998 -96 l 1
 282 396 l 1
 -40.7998 868.8 l 1
 134.4 868.8 l 1
 367.2 518.4 l 1
 600 868.8 l 1
 772.8 868.8 l 1
 448.8 403.2 l 1
EndSplineSet
EndChar
StartChar: y
Encoding: 90 121 92
OldEncoding: 121
Width: 829
VWidth: 1000
Flags: HW
Fore
624 909.6 m 1
 788.4 909.6 l 1
 360 -259.2 l 1
 330 -337.2 302.4 -376.8 254.4 -411.6 c 0
 213.6 -441.6 162 -458.4 110.4 -458.4 c 0
 69.5996 -458.4 38.4004 -451.2 8.40039 -434.4 c 1
 8.40039 -296.4 l 1
 40.7998 -302.4 67.2002 -307.2 90 -307.2 c 0
 152.4 -307.2 188.4 -280.8 212.4 -212.4 c 1
 271.2 -60 l 1
 -54 909.6 l 1
 109.2 909.6 l 1
 356.4 158.4 l 1
 624 909.6 l 1
EndSplineSet
EndChar
StartChar: z
Encoding: 91 122 93
OldEncoding: 122
Width: 830
VWidth: 1000
Flags: HW
Fore
726 868.8 m 1
 726 733.2 l 1
 153.6 38.4004 l 1
 753.6 38.4004 l 1
 753.6 -96 l 1
 -33.5996 -96 l 1
 -33.5996 40.7998 l 1
 544.8 734.4 l 1
 6 734.4 l 1
 6 868.8 l 1
 726 868.8 l 1
EndSplineSet
EndChar
StartChar: braceleft
Encoding: 92 123 94
OldEncoding: 123
Width: 555
VWidth: 1000
Flags: HW
Fore
450 1248 m 1
 450 1128 l 1
 422.4 1128 l 2
 331.2 1128 307.2 1100.4 307.2 1005.6 c 2
 307.2 670.8 l 2
 307.2 501.6 266.4 427.2 156 381.6 c 1
 258 333.6 307.2 243.6 307.2 91.2002 c 2
 307.2 -242.4 l 2
 307.2 -338.4 331.2 -367.2 422.4 -367.2 c 2
 450 -367.2 l 1
 450 -484.8 l 1
 366 -484.8 l 2
 237.6 -484.8 164.4 -398.4 164.4 -244.8 c 2
 164.4 63.5996 l 2
 164.4 232.8 128.4 295.2 20.4004 316.8 c 1
 20.4004 444 l 1
 128.4 466.8 164.4 526.8 164.4 699.6 c 2
 164.4 1006.8 l 2
 164.4 1160.4 237.6 1248 366 1248 c 2
 450 1248 l 1
EndSplineSet
EndChar
StartChar: bar
Encoding: 93 124 95
OldEncoding: 124
Width: 429
VWidth: 1000
Flags: HW
Fore
136.8 1248 m 1
 247.2 1248 l 1
 247.2 -484.8 l 1
 136.8 -484.8 l 1
 136.8 1248 l 1
EndSplineSet
EndChar
StartChar: braceright
Encoding: 94 125 96
OldEncoding: 125
Width: 560
VWidth: 1000
Flags: HW
Fore
-1.2002 -484.8 m 1
 -1.2002 -367.2 l 1
 28.7998 -367.2 l 2
 122.4 -367.2 147.6 -338.4 147.6 -242.4 c 2
 147.6 91.2002 l 2
 147.6 243.6 195.6 333.6 298.8 380.4 c 1
 195.6 428.4 147.6 519.6 147.6 670.8 c 2
 147.6 1005.6 l 2
 147.6 1100.4 122.4 1128 28.7998 1128 c 2
 -1.2002 1128 l 1
 -1.2002 1248 l 1
 87.5996 1248 l 2
 214.8 1248 290.4 1160.4 290.4 1006.8 c 2
 290.4 699.6 l 2
 290.4 528 324 466.8 429.6 444 c 1
 429.6 316.8 l 1
 324 295.2 290.4 232.8 290.4 63.5996 c 2
 290.4 -244.8 l 2
 290.4 -398.4 214.8 -484.8 87.5996 -484.8 c 2
 -1.2002 -484.8 l 1
EndSplineSet
EndChar
StartChar: asciitilde
Encoding: 95 126 97
OldEncoding: 126
Width: 967
VWidth: 1000
Flags: HW
Fore
730.8 627.6 m 1
 828 627.6 l 1
 828 597.6 l 2
 828 456 753.6 363.6 634.8 363.6 c 0
 588 363.6 535.2 381.6 484.8 411.6 c 2
 304.8 528 l 2
 286.8 538.8 244.8 554.4 226.8 554.4 c 0
 192 554.4 160.8 530.4 142.8 489.6 c 0
 135.6 471.6 132 452.4 128.4 410.4 c 1
 31.2002 410.4 l 1
 39.5996 584.4 110.4 676.8 230.4 676.8 c 0
 262.8 676.8 298.8 666 328.8 646.8 c 2
 544.8 520.8 l 2
 583.2 498 610.8 489.6 636 489.6 c 0
 705.6 489.6 732 530.4 730.8 627.6 c 1
EndSplineSet
EndChar
StartChar: uni0964
Encoding: 96 2404 98
OldEncoding: 2404
Width: 914
VWidth: 1000
Flags: HW
Fore
649 904 m 2
 649 44 l 2
 649 19 630 0 596 0 c 0
 567 0 544 16 544 44 c 1
 544 904 l 2
 544 929 561 946 596 946 c 0
 626 946 649 933 649 904 c 2
EndSplineSet
EndChar
StartChar: uni0965
Encoding: 97 2405 99
OldEncoding: 2405
Width: 933
VWidth: 1000
Flags: HW
Fore
806 906 m 2
 806 44 l 2
 806 26 797 14 775 6 c 1
 773 6 l 2
 763 2 759 2 751 2 c 0
 724 2 696 19 696 44 c 2
 696 906 l 2
 696 927 719 947 751 947 c 0
 778 947 806 933 806 906 c 2
580 904 m 2
 580 44 l 2
 580 19 561 0 531 0 c 0
 500 0 476 16 476 44 c 1
 476 904 l 2
 476 929 495 946 531 946 c 0
 558 946 580 933 580 904 c 2
EndSplineSet
EndChar
StartChar: bn_chandrabindu
Encoding: 98 2433 100
OldEncoding: 2433
Width: 5
VWidth: 1000
Flags: HW
Fore
-462 1476 m 24
 -402.456 1477.65 -355.652 1427.54 -354 1368 c 24
 -352.345 1308.36 -396.364 1255.66 -456 1254 c 24
 -515.544 1252.35 -562.348 1302.46 -564 1362 c 24
 -565.655 1421.64 -521.636 1474.34 -462 1476 c 24
-456 1026 m 24
 -644.164 1018.75 -811 1221 -866 1281 c 8
 -909.223 1328.15 -996 1381 -996 1381 c 1
 -989 1381 -918 1476 -918 1476 c 0
 -918 1476 -667.973 1128 -462 1128 c 0
 -276 1128 -75 1480 -30 1512 c 1
 70 1436 l 1
 41 1425 -39.7559 1350.99 -72 1308 c 0
 -102 1268 -270.332 1033.15 -456 1026 c 24
EndSplineSet
EndChar
StartChar: bn_anusvar
Encoding: 99 2434 101
OldEncoding: 2434
Width: 957
VWidth: 1000
Flags: HW
Fore
800 0 m 1
 680 0 336 412 64 412 c 1
 112 578 l 1
 312 578 680 100 856 100 c 1
 800 0 l 1
436 971 m 0
 580 971 624 801 624 755 c 0
 624 651 520 564 416 564 c 0
 288.006 564 191 645 191 745 c 0
 191 799 263.953 971 436 971 c 0
412 863 m 1
 384 871 312 815 320 759 c 1
 320 699 375.778 671 412 671 c 0
 444 671 508 731 508 767 c 0
 508 807 456 863 412 863 c 1
EndSplineSet
EndChar
StartChar: bn_bisarga
Encoding: 100 2435 102
OldEncoding: 2435
Width: 705
VWidth: 1000
Flags: HW
Fore
352 447 m 0
 496 447 540 277 540 231 c 0
 540 127 436 40 332 40 c 0
 204.006 40 107 121 107 221 c 0
 107 275 179.953 447 352 447 c 0
328 339 m 1
 300 347 228 291 236 235 c 1
 236 175 291.778 147 328 147 c 0
 360 147 424 207 424 243 c 0
 424 283 372 339 328 339 c 1
352 939 m 0
 496 939 540 769 540 723 c 0
 540 619 436 532 332 532 c 0
 204.006 532 107 613 107 713 c 0
 107 767 179.953 939 352 939 c 0
328 831 m 1
 300 839 228 783 236 727 c 1
 236 667 291.778 639 328 639 c 0
 360 639 424 699 424 735 c 0
 424 775 372 831 328 831 c 1
EndSplineSet
EndChar
StartChar: bn_a
Encoding: 101 2437 103
OldEncoding: 2437
Width: 1256
VWidth: 1000
Flags: HW
Fore
159 772 m 1
 195.96 633.96 261.4 476.56 323 400 c 0
 395.16 319.96 436.322 256.12 536.84 256.12 c 16
 635 256.12 739 357.8 739 492 c 8
 739 541.915 702.279 608.76 673.239 601.8 c 1
 663.56 550.76 587.88 483.48 505.159 483.48 c 0
 438.279 483.48 355.56 570.48 355.56 664.44 c 0
 355.56 765.36 451.48 832.641 551.8 832.641 c 0
 687 832.641 873.64 700 873.64 512.88 c 8
 873.64 457.729 847 374 847 374 c 1
 994 266 l 1
 994 850 l 1
 1 850 l 1
 1 933 l 1
 1258 933 l 1
 1258 850 l 1
 1110 850 l 1
 1110 0 l 1
 1023 103 899 192 791 272 c 1
 755 204 654.067 132 543 132 c 16
 424.199 132 323.88 191.16 222.68 346.601 c 0
 140.84 469.561 84.5195 666.76 65.1592 738.681 c 1
 159 772 l 1
EndSplineSet
EndChar
StartChar: bn_aa
Encoding: 102 2438 104
OldEncoding: 2438
Width: 1551
VWidth: 1000
Flags: HW
Fore
1286 850 m 1
 1106 850 l 1
 1106 0 l 1
 1019 103 895 192 787 272 c 1
 751 204 650.067 132 539 132 c 16
 420.199 132 319.88 191.16 218.68 346.601 c 0
 136.84 469.561 80.5195 666.76 61.1592 738.681 c 1
 155 772 l 1
 191.96 633.96 257.4 476.56 319 400 c 0
 391.16 319.96 432.322 256.12 532.84 256.12 c 16
 631 256.12 735 357.8 735 492 c 8
 735 541.915 698.279 608.76 669.239 601.8 c 1
 659.56 550.76 583.88 483.48 501.159 483.48 c 0
 434.279 483.48 351.56 570.48 351.56 664.44 c 0
 351.56 765.36 447.48 832.641 547.8 832.641 c 0
 683 832.641 869.64 700 869.64 512.88 c 8
 869.64 457.729 843 374 843 374 c 1
 990 266 l 1
 990 850 l 1
 1 850 l 1
 1 933 l 1
 1552 933 l 1
 1552 850 l 1
 1404 850 l 1
 1404 0 l 1
 1286 -1 l 1
 1286 850 l 1
EndSplineSet
EndChar
StartChar: bn_i
Encoding: 103 2439 105
OldEncoding: 2439
Width: 899
VWidth: 1000
Flags: HW
Fore
640 1040 m 16
 570 1120 195 1140 130 1200 c 0
 92.1738 1234.92 57.6357 1284.14 50 1350 c 16
 42 1419 75 1509 105 1569 c 1
 222 1569 l 1
 177 1509 151.88 1396.26 215 1325 c 16
 246 1290 570 1235 630 1215 c 8
 693.277 1193.91 727.896 1165.43 765 1110 c 24
 804.845 1050.48 814 933 814 933 c 1
 694 933 l 1
 694 933 670.78 1004.82 640 1040 c 16
810 130.008 m 1
 810 0 l 1
 734.175 79.1777 537.029 162.265 396.332 213.095 c 0
 309.555 244.375 107.354 262.947 107.354 262.947 c 0
 167.172 459.425 l 1
 167.172 459.425 226.147 420.325 280.91 420.325 c 0
 392.962 420.325 577.47 502.435 577.47 596.274 c 0
 577.47 716.508 439.3 737.035 386.223 737.035 c 1
 386.223 737.035 426 704.426 426 636 c 0
 426 595.923 343.953 528 270 528 c 24
 195.128 528 120 584.462 120 648 c 8
 120 762.724 215.194 825.987 354.207 825.987 c 1
 537.029 825.987 697.947 743.877 732.49 611.915 c 1
 732.49 532.737 736.702 533.715 663.404 441.83 c 0
 614.54 381.225 508.385 338.215 451.938 321.598 c 1
 810 130.008 l 1
0 850 m 1
 0 933 l 1
 899 933 l 1
 899 850 l 1
 0 850 l 1
EndSplineSet
EndChar
StartChar: bn_ii
Encoding: 104 2440 106
OldEncoding: 2440
Width: 1133
VWidth: 1000
Flags: HW
Fore
972 584 m 0
 798 486 747 361 747 247 c 0
 747 141 805 0 805 0 c 1
 711 0 l 1
 711 0 604 153 604 253 c 0
 604 302 627 366 627 366 c 1
 627 366 345 183 300 187 c 0
 252.178 191.251 150 325 97 414 c 1
 133 392 216.57 363.737 290 384 c 24
 384.778 410.154 484 498 484 545 c 0
 484 661 421 714 363 714 c 1
 363 714 405 662 405 624 c 0
 405 548 324.583 467.342 237 474 c 24
 138.662 481.476 60.5625 571.595 76 669 c 24
 95.4596 791.78 183 840 345 840 c 0
 519 840 600 691 612 650 c 0
 624 610 626 580 626 580 c 0
 626 580 879 763 902 800 c 1
 972 584 l 0
695 1040 m 16
 625 1120 250 1140 185 1200 c 0
 147.174 1234.92 112.636 1284.14 105 1350 c 16
 97 1419 130 1509 160 1569 c 1
 277 1569 l 1
 232 1509 206.88 1396.26 270 1325 c 16
 301 1290 625 1235 685 1215 c 8
 748.277 1193.91 782.896 1165.43 820 1110 c 24
 859.845 1050.48 869 933 869 933 c 1
 749 933 l 1
 749 933 725.78 1004.82 695 1040 c 16
0 850 m 1
 0 933 l 1
 1133 933 l 1
 1133 850 l 1
 0 850 l 1
EndSplineSet
EndChar
StartChar: bn_u
Encoding: 105 2441 107
OldEncoding: 2441
Width: 1108
VWidth: 1000
Flags: HW
Fore
716 1065 m 16
 641 1115 235 1070 155 1120 c 0
 111.347 1147.28 45 1245 45 1305 c 1
 45 1462 60 1477 60 1477 c 1
 195 1477 l 1
 170 1430 177.117 1351.7 205 1280 c 16
 240 1190 648 1235 708 1215 c 8
 771.277 1193.91 805.896 1165.43 843 1110 c 24
 882.845 1050.48 892 933 892 933 c 1
 743 933 l 1
 743 933 759.721 1035.85 716 1065 c 16
942 616 m 0
 942 616 986 522 939 330 c 0
 896 164 739 0 555 0 c 0
 360 0 234 118 160 263 c 0
 67 444 65 606 65 728 c 1
 200 700 l 0
 200 621 186 499 273 320 c 0
 336 189 445 135 550 135 c 0
 644 135 815 255 815 380 c 0
 815 470.951 805 505 805 505 c 1
 805 505 675 345 560 345 c 0
 511 345 477 370 439 397 c 0
 391 438 364 531 364 574 c 1
 364 850 l 1
 1 850 l 1
 1 933 l 1
 1109 933 l 1
 1109 850 l 1
 512 850 l 1
 512 574 l 1
 512 546 541 514 579 514 c 0
 623 514 778 706 778 706 c 1
 942 616 l 0
EndSplineSet
EndChar
StartChar: bn_uu
Encoding: 106 2442 108
OldEncoding: 2442
Width: 1208
VWidth: 1000
Flags: HW
Fore
816 1065 m 16
 741 1115 335 1070 255 1120 c 0
 211.347 1147.28 145 1245 145 1305 c 1
 145 1462 160 1477 160 1477 c 1
 295 1477 l 1
 270 1430 277.117 1351.7 305 1280 c 16
 340 1190 748 1235 808 1215 c 8
 871.277 1193.91 905.896 1165.43 943 1110 c 24
 982.845 1050.48 992 933 992 933 c 1
 843 933 l 1
 843 933 859.721 1035.85 816 1065 c 16
1042 616 m 0
 1042 616 1086 522 1039 330 c 0
 996 164 839 0 655 0 c 0
 460 0 334 118 260 263 c 0
 167 444 190 608 190 730 c 1
 300 700 l 0
 300 621 286 499 373 320 c 0
 436 189 545 135 650 135 c 0
 744 135 915 255 915 380 c 0
 915 470.951 905 505 905 505 c 1
 905 505 775 345 660 345 c 0
 611 345 577 370 539 397 c 0
 491 438 464 531 464 574 c 1
 464 850 l 1
 5 850 l 1
 5 933 l 1
 1209 933 l 1
 1209 850 l 1
 612 850 l 1
 612 574 l 1
 612 546 641 514 679 514 c 0
 723 514 878 706 878 706 c 1
 1042 616 l 0
5 690 m 1
 130 645 l 1
 130 512 160 420 185 360 c 128
 210 300 310 210 310 210 c 1
 321.761 148.802 370.828 121.38 410 85 c 1
 350 70 269.175 84.9238 220 130 c 0
 160 185 100 260 55 395 c 0
 32 464 5 590 5 690 c 1
EndSplineSet
EndChar
StartChar: bn_ri
Encoding: 107 2443 109
OldEncoding: 2443
Width: 1266
VWidth: 1000
Flags: HW
Fore
717 933 m 1
 812 933 l 1
 812 348 l 1
 995 222 l 1
 995 933 l 1
 1266 933 l 1
 1266 850 l 1
 1109 850 l 1
 1109 0 l 1
 1058 33 843 212 812 230 c 1
 812 0 l 1
 720 60 l 1
 596 186 357 309 200 356 c 1
 126 463 l 1
 613 726 l 0
 591 717 577 710 560 710 c 0
 495 710 454 728 439 754 c 1
 428 736 311 630 172 630 c 0
 68 630 7 722 0 782 c 0
 -9 852 53 934 148 934 c 24
 227 934 275 883 285 822 c 24
 292 771 230 724 205 718 c 1
 239 718 266 718 294 738 c 16
 348 777 384 854 384 933 c 1
 478 933 l 1
 478 881 526 810 608 803 c 16
 693 798 717 933 717 933 c 1
355 432 m 1
 676 252 l 1
 676 610 l 1
 355 432 l 1
EndSplineSet
EndChar
StartChar: bn_li
Encoding: 108 2444 110
OldEncoding: 2444
Width: 942
VWidth: 1000
Flags: HW
Fore
292 824 m 0
 292 703.401 489 668 564 636 c 1
 684 584 800 512 800 388 c 0
 800 316 783 279 744 232 c 0
 665 143 584 72 484 0 c 1
 484 0 480 84 456 144 c 0
 420 238 362 305 277 329 c 1
 294 314 332 288 332 220 c 8
 332 138.342 240 76 180 76 c 0
 117 76 40 136 40 240 c 8
 40 351.213 123.223 439.171 234 449 c 24
 381.854 462.119 516 309 538 220 c 1
 600 284 652 344 652 396 c 0
 652 496.08 399 534 308 596 c 0
 243 640 168.561 690.019 164 820 c 0
 160 934 270 1030 270 1030 c 1
 412 1000 l 0
 405 989 292 928 292 824 c 0
EndSplineSet
EndChar
StartChar: bn_e
Encoding: 109 2447 111
OldEncoding: 2447
Width: 1044
VWidth: 1000
Flags: HW
Fore
351 0 m 8
 179.696 0 66 228 48 318 c 0
 31.8446 398.777 39 519 39 654 c 1
 141 654 l 1
 129 567 126 426 150 345 c 8
 178.708 248.109 220.006 153 324 153 c 0
 416 153 482.938 264 555 264 c 0
 663 264 729 201 771 174 c 1
 771 594 l 0
 771 687 660 792 603 792 c 0
 561.058 792 465 711 465 711 c 1
 489 711 561 652.98 561 594 c 16
 561 516 480 432 408 432 c 8
 319.744 432 267 504 267 609 c 1
 267 735 510 903 603 903 c 8
 755.251 903 884 657 884 632 c 1
 884 30 l 1
 790 0 l 1
 761 44 703.205 117 624 117 c 16
 552 117 492 0 351 0 c 8
EndSplineSet
EndChar
StartChar: bn_ai
Encoding: 110 2448 112
OldEncoding: 2448
Width: 1266
VWidth: 1000
Flags: HW
Fore
1192 740 m 0
 1192 580 1092 476 984 452 c 1
 885 433 l 1
 885 566 l 1
 932 566 1052 588 1052 712 c 0
 1052 840 746.585 1001.49 660 1052 c 0
 612 1080 520 1131.79 520 1244 c 0
 520 1352 620 1416 652 1436 c 0
 776 1408 l 1
 724 1368 664 1321.45 664 1244 c 16
 664 1136 1192 968 1192 740 c 0
351 0 m 8
 179.696 0 66 228 48 318 c 0
 31.8446 398.777 39 519 39 654 c 1
 141 654 l 1
 129 567 126 426 150 345 c 8
 178.708 248.109 220.006 153 324 153 c 0
 416 153 482.938 264 555 264 c 0
 663 264 729 201 771 174 c 1
 771 594 l 0
 771 687 660 792 603 792 c 0
 561.058 792 465 711 465 711 c 1
 489 711 561 652.98 561 594 c 16
 561 516 480 432 408 432 c 8
 319.744 432 267 504 267 609 c 1
 267 735 510 903 603 903 c 8
 755.251 903 884 657 884 632 c 1
 884 30 l 1
 790 0 l 1
 761 44 703.205 117 624 117 c 16
 552 117 492 0 351 0 c 8
EndSplineSet
EndChar
StartChar: bn_o
Encoding: 111 2451 113
OldEncoding: 2451
Width: 1171
VWidth: 1000
Flags: HW
Fore
1017 320 m 0
 1017 135.975 744 0 600 0 c 0
 356 0 194.14 212.842 128 372 c 0
 68.1602 516 32 656 32 840 c 1
 132 816 l 1
 132 706 175.152 551.286 224 436 c 0
 269.76 328 418.8 152 540 152 c 0
 732 152 844 256 844 340 c 8
 844 387.392 792.434 412.23 760 428 c 0
 735.32 440 696.162 375.973 648 384 c 0
 576 396 544.08 542 604 580 c 0
 637.331 601.138 792 576 792 676 c 0
 792 748.001 672.4 816 624 816 c 1
 571.542 816 512 800 492 772 c 1
 492 772 536 728 536 684 c 1
 536 626 472.087 544 380 544 c 0
 300 544 236 611.913 236 704 c 0
 236 832 428.396 933 594.2 933 c 16
 800 933 985.8 776 985.8 708 c 0
 985.8 584.006 930.68 540 877 512 c 1
 905 496 1017 436 1017 320 c 0
EndSplineSet
EndChar
StartChar: bn_au
Encoding: 112 2452 114
OldEncoding: 2452
Width: 1327
VWidth: 1000
Flags: HW
Fore
32 839.854 m 1
 132 816 l 1
 132 706 175.152 551.286 224 436 c 0
 269.76 328 418.8 152 540 152 c 0
 732 152 844 256 844 340 c 8
 844 387.445 792.434 412.23 760 428 c 0
 735.32 440 696.162 375.973 648 384 c 0
 576 396 544.08 542 604 580 c 0
 637.331 601.138 792 576 792 676 c 0
 792 748.001 672.4 816 624 816 c 1
 571.542 816 512 800 492 772 c 1
 492 772 536 728 536 684 c 1
 536 626 472.087 544 380 544 c 0
 300 544 236 611.913 236 704 c 0
 236 832 428.394 933 594.2 933 c 16
 800 933 985.8 776 985.8 708 c 0
 985.8 657.911 926.261 604.201 912 576 c 1
 1016 576 1088 704.623 1088 768 c 0
 1088 896 782.585 1057.49 696 1108 c 0
 648 1136 556 1187.79 556 1300 c 0
 556 1408 656 1472 688 1492 c 0
 812 1464 l 1
 760 1424 700 1377.45 700 1300 c 16
 700 1192 1228 1024 1228 796 c 0
 1228 636 1116 504 1008 480 c 1
 936 472 l 1
 965.839 440.818 1017 375.542 1017 320 c 0
 1017 135.975 744 0 600 0 c 0
 356 0 194.14 212.842 128 372 c 0
 68.1602 516 32 655.854 32 839.854 c 1
EndSplineSet
EndChar
StartChar: bn_ka
Encoding: 113 2453 115
OldEncoding: 2453
Width: 1166
VWidth: 1000
Flags: HW
Fore
700 848 m 1
 840 796 1084 660 1084 428 c 0
 1084 335.913 1020 260 952 260 c 0
 887.875 260 812 304 812 368 c 8
 812 439.777 856 504 936 504 c 1
 936 588 828 699 701 699 c 1
 701 0 l 1
 596 60 l 1
 476 178 377 262 302 311 c 0
 244 348 188 377 137 390 c 1
 63 501 l 1
 577 837 l 1
 577 850 l 1
 700 848 l 1
0 850 m 1
 0 933 l 1
 1169 933 l 1
 1169 850 l 1
 0 850 l 1
568 664 m 1
 296 468 l 1
 568 248 l 1
 568 664 l 1
EndSplineSet
AnchorPoint: "ukaar" 672 -2 basechar 0
AnchorPoint: "Reph" 632 933 basechar 0
EndChar
StartChar: bn_kha
Encoding: 114 2454 116
OldEncoding: 2454
Width: 1046
VWidth: 1000
Flags: HW
Fore
432 933 m 1
 602 933 704 760.077 704 656 c 0
 704 508 412 356 412 356 c 1
 771 198 l 1
 771 933 l 1
 1047 933 l 1
 1047 850 l 1
 898 850 l 1
 898 0 l 1
 764 60 l 1
 632 135 280 280 168 280 c 1
 164 388 l 1
 284 388 568 568 568 644 c 0
 568 684.199 516 748 516 748 c 1
 460 680 352 524 220 524 c 0
 167.846 524 100 580 100 652 c 128
 100 724 136 808 204 808 c 0
 296 808 340 708 340 708 c 1
 408 720 432 933 432 933 c 1
EndSplineSet
AnchorPoint: "ukaar" 845 2 basechar 0
AnchorPoint: "Reph" 830 932 basechar 0
EndChar
StartChar: bn_ga
Encoding: 115 2455 117
OldEncoding: 2455
Width: 900
VWidth: 1000
Flags: HW
Fore
368 512 m 0
 368 568.143 290.447 588.326 228 580 c 0
 168 572 96 556 96 556 c 1
 40 576 20 660 28 700 c 1
 56 788 201 932 316 932 c 0
 411 932 519 881 602 804 c 1
 640 767 l 1
 640 933 l 1
 901 933 l 1
 901 850 l 1
 761 850 l 1
 761 0 l 1
 643 85 l 1
 643 243 l 2
 643 366 651.832 493.337 621 580 c 0
 584 684 452 812 332 812 c 0
 280 812 164 724 168 700 c 1
 392 700 492 640.276 492 524 c 0
 492 384 272 308 196 276 c 1
 100 392 l 0
 188 392 368 464 368 512 c 0
EndSplineSet
AnchorPoint: "ukaar" 718 2 basechar 0
AnchorPoint: "Reph" 699 931 basechar 0
EndChar
StartChar: bn_gha
Encoding: 116 2456 118
OldEncoding: 2456
Width: 980
VWidth: 1000
Flags: HW
Fore
708 200 m 1
 708 850 l 1
 834 850 l 1
 834 0 l 1
 696 71 l 1
 534 192 296 232 180 232 c 1
 85 356 l 1
 332 492 l 0
 332 492 186.257 508.772 126 570 c 24
 75.9844 620.822 64 692 64 742 c 0
 64 787.854 110 825 146 850 c 1
 357 850 l 1
 337 837 240 766 240 712 c 0
 240 646.724 335 608 396 608 c 0
 463 608 536 656 536 656 c 1
 576 524 l 1
 328 364 l 1
 708 200 l 1
-1 850 m 1
 -1 933 l 1
 981 933 l 1
 981 850 l 1
 -1 850 l 1
EndSplineSet
AnchorPoint: "ukaar" 781 2 basechar 0
AnchorPoint: "Reph" 770 931 basechar 0
EndChar
StartChar: bn_nga
Encoding: 117 2457 119
OldEncoding: 2457
Width: 1121
VWidth: 1000
Flags: HW
Fore
899 510 m 1
 899 510 683 344 575 342 c 1
 478 362 415 438 408 537 c 1
 403 655 l 1
 355 676 287 719 218 742 c 1
 288 840 l 1
 328 815 381 774 415 767 c 0
 425 767 483.588 918.002 570 927 c 24
 663.601 936.747 770 834 770 792 c 0
 770 730 739.135 703.451 693 673 c 24
 641.147 638.775 550 645 536 646 c 1
 536 587 l 1
 544 550 608 481 638 481 c 0
 664 481 754.425 512.224 806 564 c 24
 848.59 606.757 874 703 874 703 c 1
 1036 666 l 1
 1036 666 1033 537 1027 456 c 0
 1019 346 808.797 -0.475131 552 0 c 24
 320.871 0.427734 179 240 126 412 c 0
 73 594 48 701 38 842 c 1
 137 838 l 1
 137 769 176 579 234 441 c 0
 329 220 443 123 537 123 c 0
 738 123 900 363 899 510 c 1
609 837 m 24
 561 837 531 798 538 759 c 24
 544 740 561 732 589 730 c 24
 623 730 654 744 660 771 c 24
 669 802 647 835 609 837 c 24
EndSplineSet
AnchorPoint: "ukaar" 552 -6 basechar 0
AnchorPoint: "Reph" 769 931 basechar 0
EndChar
StartChar: bn_cha
Encoding: 118 2458 120
OldEncoding: 2458
Width: 964
VWidth: 1000
Flags: HW
Fore
273 521 m 1
 273 175 l 1
 348 176 620 340 620 376 c 1
 618.584 419.923 273 521 273 521 c 1
808 388 m 0
 808 292 752 276 704 236 c 0
 607.509 155.591 305 16 238 0 c 1
 136 30 l 1
 136 850 l 1
 262 850 l 1
 262 775 l 1
 262 751 264 725 281 703 c 0
 354 630 552.155 546.192 676 540 c 0
 756 536 808 427 808 388 c 0
0 850 m 1
 0 933 l 1
 964 933 l 1
 964 850 l 1
 0 850 l 1
EndSplineSet
EndChar
StartChar: bn_chha
Encoding: 119 2459 121
OldEncoding: 2459
Width: 1051
VWidth: 1000
Flags: HW
Fore
717 661 m 1
 763 655 841 584 881 538 c 1
 877 502 850.334 450.964 784 392 c 0
 712 328 661 304 532 252 c 1
 675 229 795 167 940 92 c 1
 874 0 l 1
 869 6 840 19 828 28 c 0
 739 89 474 160 336 160 c 1
 140 88 l 1
 80 240 l 1
 447 292 720 476 720 527 c 0
 720 572.177 585 563 544 572 c 1
 484.001 470.733 438.447 437.735 344 392 c 24
 285.602 363.721 244.883 364 180 364 c 24
 140.304 364 80 383 80 383 c 1
 80 850 l 1
 191 850 l 1
 191 798 l 1
 220 769 436 708 488 691 c 0
 717 661 l 1
-2 850 m 1
 -2 933 l 1
 1051 933 l 1
 1051 850 l 1
 -2 850 l 1
200 656 m 1
 200 472 l 1
 200 472 287.868 474.702 332 504 c 24
 369.172 528.677 394 546 400 596 c 1
 200 656 l 1
EndSplineSet
EndChar
StartChar: bn_ja
Encoding: 120 2460 122
OldEncoding: 2460
Width: 1272
VWidth: 1000
Flags: HW
Fore
1072 656 m 1
 1084 552 l 1
 1012 464 972 389.612 972 272 c 16
 972 176 1092 0 1092 0 c 1
 972 0 l 1
 972 0 848 179.539 848 336 c 0
 848 488 900 564 900 564 c 1
 812 564 560 728 552 792 c 1
 552 792 448 700 448 616 c 0
 448 572 495.904 544 532 544 c 0
 580 544 624 604 624 604 c 1
 728 512 l 1
 728 512 746.6 355.433 688 248 c 0
 640 160 532 52 428 64 c 0
 265.733 82.7227 157.135 232.404 104 380 c 0
 32 580 58 821 58 821 c 1
 157 784 l 1
 157 651 155 605 184 500 c 0
 192 458 282.59 208 432 208 c 16
 540 208 640 328 592 464 c 0
 592 464 539 424 480 424 c 8
 371.862 424 290 535.016 290 626 c 0
 290 732 432 850 432 850 c 0
 -3 850 l 1
 -3 933 l 1
 1273 933 l 1
 1273 850 l 1
 662 850 l 1
 774 730 936 656 1072 656 c 1
EndSplineSet
AnchorPoint: "ukaar" 1020 -1 basechar 0
EndChar
StartChar: bn_jha
Encoding: 121 2461 123
OldEncoding: 2461
Width: 1136
VWidth: 1000
Flags: HW
Fore
263 458 m 1
 591 203 l 1
 591 676 l 1
 263 458 l 1
591 850 m 1
 -2 850 l 1
 -2 933 l 1
 712 933 l 1
 712 329 l 1
 730 318 746 305 770 288 c 1
 770 286 l 1
 867 203 l 1
 867 933 l 1
 1142 933 l 1
 1142 850 l 1
 988 850 l 1
 988 11 l 1
 913 67 795 164 712 230 c 1
 712 0 l 1
 609 60 l 1
 570 94 536 127 497 158 c 0
 364 273 244 344 138 381 c 1
 60 489 l 1
 591 837 l 1
 591 850 l 1
EndSplineSet
AnchorPoint: "ukaar" 684 -1 basechar 0
AnchorPoint: "Reph" 926 931 basechar 0
EndChar
StartChar: bn_nya
Encoding: 122 2462 124
OldEncoding: 2462
Width: 1450
VWidth: 1000
Flags: HW
Fore
880 284 m 0
 960 232 1000 188 1076 188 c 8
 1120.56 188 1144 235.431 1144 280 c 24
 1144 338.495 1044 392 1044 392 c 0
 1044 392 1132 440 1132 504 c 8
 1132 550.8 1082.68 576 1036 576 c 16
 980 576 928 512 880 455 c 0
 880 284 l 0
884 563.604 m 1
 935.027 615.687 1031.58 699.372 1116 688 c 8
 1219.91 674.002 1300 574 1300 492 c 0
 1300 442.015 1244 395 1176 368 c 1
 1243 351 1300 300.933 1300 228 c 16
 1300 141 1168 48 1092 56 c 0
 1016.26 63.9729 931.014 136.576 884 182.47 c 1
 884 30 l 1
 790 0 l 1
 761 44 703.205 117 624 117 c 16
 552 117 492 0 351 0 c 8
 179.696 0 66 228 48 318 c 0
 31.8446 398.777 39 519 39 654 c 1
 141 654 l 1
 129 567 126 426 150 345 c 8
 178.708 248.109 220.006 153 324 153 c 0
 416 153 482.938 264 555 264 c 0
 663 264 729 201 771 174 c 1
 771 594 l 0
 771 687 660 792 603 792 c 0
 561.058 792 465 711 465 711 c 1
 489 711 561 652.98 561 594 c 16
 561 516 480 432 408 432 c 8
 319.744 432 267 504 267 609 c 1
 267 735 510 903 603 903 c 8
 755.251 903 884 657 884 632 c 1
 884 563.604 l 1
EndSplineSet
AnchorPoint: "ukaar" 846 -1 basechar 0
AnchorPoint: "Reph" 887 1060 basechar 0
EndChar
StartChar: bn_Ta
Encoding: 123 2463 125
OldEncoding: 2463
Width: 902
VWidth: 1000
Flags: HW
Fore
609.308 1021.55 m 16
 545.467 1087.76 203.457 1104.31 144.175 1153.97 c 0
 109.677 1182.86 66 1236 66 1293 c 0
 66 1350.49 94.0146 1409.69 121.375 1459.35 c 1
 228.082 1459.35 l 1
 187.04 1409.69 166.66 1313.8 221.697 1257.42 c 16
 249.971 1228.45 545.467 1182.93 600.188 1166.38 c 8
 656.443 1149.37 688.867 1127.11 723.311 1079.48 c 24
 758.314 1031.09 768 933 768 933 c 1
 658.558 933 l 1
 658.558 933 636.737 993.105 609.308 1021.55 c 16
540 276 m 0
 586.103 337.47 608 440 608 440 c 1
 572 396 532 364 464 364 c 8
 377.846 364 316 433 316 528 c 8
 316 621.925 402 688 496 688 c 0
 647 688 746 524 746 454 c 0
 746 403.98 735.609 305.272 680 236 c 24
 562.381 89.4814 445 0 260 0 c 0
 199.917 0 104 170 87 217 c 1
 87 850 l 1
 214 850 l 1
 214 285 l 2
 214 240 244 132 304 132 c 0
 355.885 132 492 212 540 276 c 0
-7 850 m 1
 -7 933 l 1
 902 933 l 1
 902 850 l 1
 -7 850 l 1
EndSplineSet
AnchorPoint: "ukaar" 440 -1 basechar 0
AnchorPoint: "Reph" 786 931 basechar 0
EndChar
StartChar: bn_Tha
Encoding: 124 2464 126
OldEncoding: 2464
Width: 911
VWidth: 1000
Flags: HW
Fore
-3 933 m 1
 913 933 l 1
 913 850 l 1
 -3 850 l 1
 -3 933 l 1
179 1227 m 8
 179 1305.08 242 1380 278 1401 c 9
 398 1401 l 17
 326 1353 296 1284 296 1221 c 0
 296 1143 464 933 464 933 c 9
 320 933 l 17
 320 933 179 1110 179 1227 c 8
444 768 m 1
 444 441 201 302.934 201 255 c 0
 201 198 327 123 381 123 c 0
 452.889 123 648 353.962 648 471 c 0
 648 594 444 768 444 768 c 1
525 850 m 0
 525 850 773 561 773 447 c 0
 773 380.955 539 0 398 0 c 1
 321 0 68 119.408 68 291 c 16
 68 348 340 507 340 850 c 1
 525 850 l 0
EndSplineSet
AnchorPoint: "ukaar" 408 4 basechar 0
AnchorPoint: "Reph" 607 933 basechar 0
EndChar
StartChar: bn_Da
Encoding: 125 2465 127
OldEncoding: 2465
Width: 1108
VWidth: 1000
Flags: HW
Fore
942 616 m 0
 942 616 986 522 939 330 c 0
 896 164 724 0 540 0 c 0
 345 0 234 118 160 263 c 0
 67 444 65 606 65 728 c 1
 200 700 l 0
 200 621 186 499 273 320 c 0
 336 189 445 135 550 135 c 0
 644 135 815 255 815 380 c 0
 815 470.951 805 505 805 505 c 1
 805 505 675 345 560 345 c 0
 511 345 477 370 439 397 c 0
 391 438 364 531 364 574 c 1
 364 850 l 1
 1 850 l 1
 1 933 l 1
 1109 933 l 1
 1109 850 l 1
 512 850 l 1
 512 574 l 1
 512 546 541 514 579 514 c 0
 623 514 778 706 778 706 c 1
 942 616 l 0
EndSplineSet
AnchorPoint: "ukaar" 536 -1 basechar 0
EndChar
StartChar: bn_Dha
Encoding: 126 2466 128
OldEncoding: 2466
Width: 902
VWidth: 1000
Flags: HW
Fore
540 276 m 0
 586.103 337.47 608 440 608 440 c 1
 572 396 532 364 464 364 c 8
 377.846 364 316 433 316 528 c 8
 316 621.925 402 688 496 688 c 0
 647 688 746 524 746 454 c 0
 746 403.98 736.415 304.617 680 236 c 24
 555.46 84.5225 421 0 236 0 c 0
 175.917 0 104 170 87 217 c 1
 87 850 l 1
 214 850 l 1
 214 285 l 2
 214 240 244 132 304 132 c 0
 355.885 132 492 212 540 276 c 0
-7 850 m 1
 -7 933 l 1
 902 933 l 1
 902 850 l 1
 -7 850 l 1
EndSplineSet
AnchorPoint: "ukaar" 455 0 basechar 0
EndChar
StartChar: bn_Na
Encoding: 127 2467 129
OldEncoding: 2467
Width: 934
VWidth: 1000
Flags: HW
Fore
307 760 m 0
 307 760 471 760.045 471 584 c 0
 471 452 356.111 396 284 396 c 0
 220 396 83 431.932 83 612 c 0
 83 848 305 929 384 929 c 0
 469 929 503 916 567 872 c 0
 612.821 840.498 634 794 650 763 c 1
 650 933 l 1
 935 933 l 1
 935 850 l 1
 760 850 l 1
 760 0 l 1
 650 85 l 1
 650 367 l 0
 650 644 526 804 406 804 c 0
 310 804 307 760 307 760 c 0
EndSplineSet
AnchorPoint: "ukaar" 691 2 basechar 0
AnchorPoint: "Reph" 707 931 basechar 0
EndChar
StartChar: bn_ta
Encoding: 128 2468 130
OldEncoding: 2468
Width: 1226
VWidth: 1000
Flags: HW
Fore
1076 432 m 0
 1074.43 206.997 832 0 636 0 c 0
 372 0 190.418 288.898 124 464 c 0
 80 580 55 706 49 756 c 1
 132 800 l 1
 132 800 168 620 228 472 c 128
 288 324 474 138 654 138 c 0
 810 138 937.822 308.081 944 444 c 0
 948 532 896 692 768 708 c 0
 768 708 819 666 822 564 c 0
 823.707 505.947 737.25 366 609 366 c 0
 489 366 392 476 392 600 c 0
 392 796 589.004 834.816 671 834 c 0
 872 832 1078 719 1076 432 c 0
0 850 m 1
 0 933 l 1
 1227 933 l 1
 1227 850 l 1
 0 850 l 1
EndSplineSet
EndChar
StartChar: bn_tha
Encoding: 129 2469 131
OldEncoding: 2469
Width: 978
VWidth: 1000
Flags: HW
Fore
600 654 m 0
 600 534 453 447 390 411 c 1
 712 216 l 1
 712 933 l 1
 977 933 l 1
 977 850 l 1
 829 850 l 1
 829 0 l 1
 693 108 l 1
 618 181 300 312 201 330 c 0
 196.081 330.894 120 477 120 477 c 0
 204 486 483 582 483 681 c 0
 483 759.058 333 795 333 795 c 1
 344 716 280 628 196 628 c 8
 119.496 628 61.7256 704.189 72 780 c 24
 85.4863 879.512 169 929 282 929 c 0
 457 929 600 791 600 654 c 0
EndSplineSet
AnchorPoint: "ukaar" 767 3 basechar 0
AnchorPoint: "Reph" 765 931 basechar 0
EndChar
StartChar: bn_da
Encoding: 130 2470 132
OldEncoding: 2470
Width: 906
VWidth: 1000
Flags: HW
Fore
724 0 m 0
 613 0 l 1
 540 118 494 212 494 339 c 0
 494 410 520 515 564 564 c 1
 567 569 l 1
 443 497 326 412 224 286 c 1
 114 315 l 1
 114 850 l 1
 230 850 l 1
 230 470 l 1
 309 572 450 662 571 731 c 1
 780 628 l 1
 731 575 620 462 620 276 c 0
 620 138 724 0 724 0 c 0
0 850 m 1
 0 933 l 1
 904 933 l 1
 904 850 l 1
 0 850 l 1
EndSplineSet
AnchorPoint: "ukaar" 667 1 basechar 0
EndChar
StartChar: bn_dha
Encoding: 131 2471 133
OldEncoding: 2471
Width: 928
VWidth: 1000
Flags: HW
Fore
636 681 m 1
 300 468 l 1
 636 216 l 1
 636 681 l 1
247.6 791 m 1
 247.6 743 370.72 686 370.72 686 c 1
 305.92 651 l 1
 305.92 651 127.72 722 127.72 830 c 0
 127.72 893.071 176.32 980 263.8 980 c 0
 325.445 980 396.64 956 396.64 884 c 0
 396.64 805.942 302.68 770 247.6 791 c 1
632.08 837 m 1
 632.08 933 l 1
 928 933 l 1
 928 850 l 1
 760.6 850 l 1
 760.6 0 l 1
 639.64 60 l 1
 464.68 217 l 2
 344.8 317 233.56 381 141.76 402 c 1
 58.5996 508 l 1
 632.08 837 l 1
EndSplineSet
AnchorPoint: "ukaar" 703 1 basechar 0
AnchorPoint: "Reph" 689 931 basechar 0
EndChar
StartChar: bn_na
Encoding: 132 2472 134
OldEncoding: 2472
Width: 933
VWidth: 1000
Flags: HW
Fore
656 485 m 0
 656 850 l 1
 776 850 l 1
 776 0 l 1
 704 104 l 1
 704 104 644.423 319.181 592 400 c 0
 496 548 377 536 332 516 c 1
 332 516 423 476 423 384 c 8
 423 284.596 354.491 192 255 192 c 24
 145.352 192 75 270.996 75 408 c 0
 75 544 242.922 648 327 648 c 0
 523 648 616 528 656 485 c 0
0 850 m 1
 0 933 l 1
 932 933 l 1
 932 850 l 1
 0 850 l 1
EndSplineSet
AnchorPoint: "ukaar" 730 1 basechar 0
AnchorPoint: "Reph" 730 931 basechar 0
EndChar
StartChar: bn_pa
Encoding: 133 2474 135
OldEncoding: 2474
Width: 1063
VWidth: 1000
Flags: HW
Fore
260 656 m 0
 260 656 408 580 408 524 c 0
 630 744 l 0
 630 744 528.109 824 452 824 c 16
 416 824 260 700 260 656 c 0
458 933 m 24
 612.355 933 762 759 802 736 c 1
 802 933 l 1
 1065 933 l 1
 1065 850 l 1
 918 850 l 1
 918 0 l 1
 804 85 l 1
 804 367 l 1
 804 531 776 568 724 628 c 1
 676 620 410 316 346 316 c 8
 299.787 316 246 380 246 380 c 0
 246 380 306.468 444.027 306 448 c 0
 300.472 494.988 190 556 118 556 c 0
 118 556 78 612 86 660 c 0
 95.5576 717.347 278.331 933 458 933 c 24
EndSplineSet
AnchorPoint: "ukaar" 857 1 basechar 0
AnchorPoint: "Reph" 864 931 basechar 0
EndChar
StartChar: bn_pha
Encoding: 134 2475 136
OldEncoding: 2475
Width: 1265
VWidth: 1000
Flags: HW
Fore
810 720 m 1
 810 0 l 1
 700 45 l 0
 700 45 506.838 177.581 430 216 c 0
 334 264 120 313 120 313 c 1
 84 398 l 1
 84 398 309 564 422 642 c 1
 316 744 115 798 115 850 c 0
 324 850 l 0
 428 774 504 705 560 632 c 1
 560 579 l 1
 328 400 l 1
 688 176 l 1
 688 850 l 1
 810 850 l 1
 810 835 l 0
 905 790 1155 760 1155 480 c 0
 1155 359.896 1065 340 1010 340 c 0
 935 340 895 395 895 480 c 0
 895 560.156 1015 600 1015 600 c 1
 998.624 683.925 915 675 810 720 c 1
0 850 m 1
 0 933 l 1
 1264 933 l 1
 1264 850 l 1
 0 850 l 1
EndSplineSet
AnchorPoint: "ukaar" 735 1 basechar 0
EndChar
StartChar: bn_ba
Encoding: 135 2476 137
OldEncoding: 2476
Width: 992
VWidth: 1000
Flags: HW
Fore
0 850 m 1
 0 933 l 1
 992 933 l 1
 992 850 l 1
 0 850 l 1
814 0 m 1
 703 64 l 1
 573 194 374 318 172 381 c 1
 101 489 l 1
 688 837 l 1
 688 850 l 1
 814 850 l 1
 814 0 l 1
691 702 m 1
 307 473 l 1
 691 201 l 1
 691 702 l 1
EndSplineSet
AnchorPoint: "ukaar" 772 1 basechar 0
AnchorPoint: "Reph" 771 931 basechar 0
EndChar
StartChar: bn_bha
Encoding: 136 2477 138
OldEncoding: 2477
Width: 1242
VWidth: 1000
Flags: HW
Fore
332 572 m 0
 332 704 395.174 780 496 780 c 0
 564 780 680 736 680 632 c 8
 680 555.242 628 476 560 476 c 1
 596 428 642.387 416.649 696 420 c 0
 824 428 860 604 860 776 c 1
 1044 728 l 1
 1044 728 1061.68 605.46 1052 528 c 16
 1044 464 1016 0 592 0 c 0
 352 0 176 184 112 372 c 0
 49.6309 555.211 53 788 53 788 c 1
 156 788 l 1
 156 788 153.233 566.276 212 424 c 0
 288 240 436 116 592 116 c 0
 784 116 912 304 912 440 c 1
 888 368 799.827 298.76 668 292 c 0
 512 284 332 404 332 572 c 0
0 850 m 1
 0 933 l 1
 1242 933 l 1
 1242 850 l 1
 0 850 l 1
EndSplineSet
EndChar
StartChar: bn_ma
Encoding: 137 2478 139
OldEncoding: 2478
Width: 1041
VWidth: 1000
Flags: HW
Fore
352 420 m 0
 352 420 109.329 669.354 92 756 c 0
 84 796 86 833 98 850 c 1
 300 850 l 1
 288 825 282.197 800.021 287 768 c 16
 299 688 459 472 459 440 c 0
 459 436 759 228 759 217 c 1
 759 850 l 1
 881 850 l 1
 881 0 l 1
 772 44 l 1
 768 51 728.745 74.7188 691 118 c 0
 616 204 459 300 459 300 c 0
 459 184 424 96 292 96 c 8
 205.846 96 128 158.103 128 244 c 24
 128 340.193 200.649 425.581 284 436 c 0
 316 440 352 420 352 420 c 0
0 850 m 1
 0 933 l 1
 1041 933 l 1
 1041 850 l 1
 0 850 l 1
EndSplineSet
AnchorPoint: "ukaar" 813 1 basechar 0
AnchorPoint: "Reph" 819 931 basechar 0
EndChar
StartChar: bn_ya
Encoding: 138 2479 140
OldEncoding: 2479
Width: 969
VWidth: 1000
Flags: HW
Fore
109 850 m 0
 318 850 l 0
 422 774 498 705 554 632 c 1
 554 579 l 1
 322 400 l 1
 682 176 l 1
 682 850 l 1
 804 850 l 1
 804 0 l 1
 694 45 l 0
 694 45 500.838 177.581 424 216 c 0
 328 264 114 313 114 313 c 1
 78 398 l 1
 78 398 303 564 416 642 c 1
 310 744 109 798 109 850 c 0
0 850 m 1
 0 933 l 1
 969 933 l 1
 969 850 l 1
 0 850 l 1
EndSplineSet
AnchorPoint: "ukaar" 748 1 basechar 0
AnchorPoint: "Reph" 738 931 basechar 0
EndChar
StartChar: bn_la
Encoding: 140 2482 142
OldEncoding: 2482
Width: 1047
VWidth: 1000
Flags: HW
Fore
198 456 m 1
 198 456 224 524 305 524 c 8
 389 524 452 473 452 406 c 16
 452 342 382 274 290 274 c 16
 176 274 68 384 68 502 c 0
 68 579 148 736 340 736 c 0
 476 736 538 655 538 655 c 1
 538 655 611 736 678 736 c 8
 741 736 816 694 821 686 c 1
 821 850 l 1
 935 850 l 1
 935 0 l 1
 821 71 l 1
 821 520 l 1
 821 520 771 605 712 605 c 24
 618 605 544 477 544 477 c 1
 544 477 463 632 350 632 c 0
 229 632 181 564 181 506 c 0
 181 482 198 456 198 456 c 1
-2 850 m 1
 -2 933 l 1
 1072 933 l 1
 1072 850 l 1
 -2 850 l 1
EndSplineSet
AnchorPoint: "ukaar" 879 1 basechar 0
AnchorPoint: "Reph" 871 931 basechar 0
EndChar
StartChar: bn_sha
Encoding: 141 2486 143
OldEncoding: 2486
Width: 1102
VWidth: 1000
Flags: HW
Fore
275 771 m 0
 275 771 121 850 0 850 c 1
 0 933 l 1
 84 923 l 1
 242 898 343 864 398 808 c 1
 458.999 881.31 572.734 933 616 933 c 1
 696 933 l 1
 696 933 794 896 812 840 c 1
 812 933 l 1
 1135 933 l 1
 1135 850 l 1
 934 850 l 1
 934 0 l 1
 814 85 l 1
 814 658 l 1
 814 740 728 844 656 844 c 1
 616 844 514 771 514 771 c 1
 544 759 588 761 632 732 c 0
 698 689 724 628 724 592 c 0
 724 496 672 386 588 386 c 0
 518.971 386 398 499 398 592 c 1
 398 491 287.561 386 224 386 c 0
 128 386 72 520 72 592 c 0
 72 639.015 128.246 694.934 184 732 c 0
 223.115 758.004 257.862 757.895 275 771 c 0
EndSplineSet
AnchorPoint: "ukaar" 878 1 basechar 0
AnchorPoint: "Reph" 868 931 basechar 0
EndChar
StartChar: bn_Sha
Encoding: 142 2487 144
OldEncoding: 2487
Width: 965
VWidth: 1000
Flags: HW
Fore
0 850 m 1
 0 933 l 1
 969 933 l 1
 969 850 l 1
 0 850 l 1
662 572.069 m 1
 662 850 l 1
 784 850 l 1
 784 0 l 1
 674 45 l 0
 674 45 480.838 177.581 404 216 c 0
 308 264 94 313 94 313 c 1
 58 398 l 1
 58 398 283 564 396 642 c 1
 290 744 89 798 89 850 c 0
 298 850 l 0
 662 572.069 l 1
662 432.48 m 1
 496 552 l 1
 302 400 l 1
 662 176 l 1
 662 432.48 l 1
EndSplineSet
AnchorPoint: "ukaar" 734 1 basechar 0
AnchorPoint: "Reph" 723 931 basechar 0
EndChar
StartChar: bn_sa
Encoding: 143 2488 145
OldEncoding: 2488
Width: 950
VWidth: 1000
Flags: HW
Fore
672 464 m 1
 672 588 488 544 488 544 c 1
 452 544 342 324 224 324 c 0
 129.992 324 56 488 56 488 c 0
 116 572 l 1
 116 572 193.431 484 224 484 c 0
 304.1 484 360 584 360 644 c 8
 360 711.963 327.839 759.779 268 792 c 16
 216 820 108 812 108 850 c 1
 350 850 l 1
 391 833 467 724 476 672 c 1
 476 672 536 700 564 700 c 0
 605 700 640 682 671 654 c 1
 671 850 l 1
 792 850 l 1
 792 0 l 1
 672 58 l 1
 672 464 l 1
0 850 m 1
 0 933 l 1
 951 933 l 1
 951 850 l 1
 0 850 l 1
EndSplineSet
AnchorPoint: "ukaar" 735 1 basechar 0
AnchorPoint: "Reph" 743 931 basechar 0
EndChar
StartChar: bn_ha
Encoding: 144 2489 146
OldEncoding: 2489
Width: 899
VWidth: 1000
Flags: HW
Fore
810 130.008 m 1
 810 0 l 1
 734.175 79.1777 537.029 162.265 396.332 213.095 c 0
 309.555 244.375 107.354 262.947 107.354 262.947 c 0
 167.172 459.425 l 1
 167.172 459.425 226.147 420.325 280.91 420.325 c 0
 392.962 420.325 577.47 502.435 577.47 596.274 c 0
 577.47 716.508 439.3 737.035 386.223 737.035 c 1
 386.223 737.035 426 704.426 426 636 c 0
 426 595.923 343.953 528 270 528 c 24
 195.128 528 120 584.462 120 648 c 8
 120 762.724 215.194 825.987 354.207 825.987 c 1
 537.029 825.987 697.947 743.877 732.49 611.915 c 1
 732.49 532.737 736.702 533.715 663.404 441.83 c 0
 614.54 381.225 508.385 338.215 451.938 321.598 c 1
 810 130.008 l 1
0 850 m 1
 0 933 l 1
 899 933 l 1
 899 850 l 1
 0 850 l 1
EndSplineSet
AnchorPoint: "ukaar" 727 1 basechar 0
EndChar
StartChar: bn_nukta
Encoding: 145 2492 147
OldEncoding: 2492
Width: 883
VWidth: 1000
Flags: HW
Fore
442 -75 m 24
 512.6 -74.0439 570.188 -134.428 568 -205 c 24
 565.972 -270.396 509.381 -320.491 444 -318 c 24
 379.212 -315.531 330.419 -261.834 330 -197 c 24
 329.582 -132.412 377.416 -75.875 442 -75 c 24
EndSplineSet
EndChar
StartChar: bn_aakaar
Encoding: 146 2494 148
OldEncoding: 2494
Width: 411
VWidth: 1000
Flags: HW
Fore
0 933 m 1
 428 933 l 1
 428 850 l 1
 268 850 l 1
 268 0 l 1
 148 0 l 1
 148 850 l 1
 0 850 l 1
 0 933 l 1
EndSplineSet
EndChar
StartChar: bn_ikaar
Encoding: 147 2495 149
OldEncoding: 2495
Width: 390
VWidth: 1000
Flags: HW
Fore
984 1059 m 1
 886 1146 609.031 1350 462 1350 c 0
 330 1350 180 1254 177 1128 c 0
 174.924 1040.82 251 933 251 933 c 1
 411 933 l 1
 411 850 l 1
 271 850 l 1
 271 0 l 1
 148 0 l 1
 148 850 l 1
 0 850 l 1
 0 933 l 1
 126 933 l 1
 126 933 45 1086 45 1131 c 8
 45 1336.75 253.25 1458 459 1458 c 16
 675 1458 1107 1050 1107 1050 c 1
 984 1059 l 1
EndSplineSet
EndChar
StartChar: bn_iikaar
Encoding: 148 2496 150
OldEncoding: 2496
Width: 343
VWidth: 1000
Flags: HW
Fore
-444 1209 m 24
 -444 1124.71 -317.73 1170.57 -237 1146 c 17
 -99.6082 1122.05 98 1009 98 933 c 1
 165 933 l 0
 165 933 132.82 1090.77 66 1161 c 24
 -19.4778 1250.84 -95.0615 1302 -219 1302 c 24
 -313.896 1302 -444 1303.84 -444 1209 c 24
-585 1197 m 24
 -585 1362.2 -387.339 1416 -222 1416 c 16
 -18 1416 84.7218 1315.19 171 1209 c 0
 249 1113 258 933 258 933 c 1
 364 933 l 1
 364 850 l 1
 259 850 l 1
 259 0 l 1
 137 0 l 1
 137 850 l 1
 -122 850 l 1
 -122 933 l 1
 0 933 l 1
 -46 994 -163.377 1047 -282 1047 c 16
 -418 1047 -585 1065.26 -585 1197 c 24
EndSplineSet
EndChar
StartChar: bn_ukaar
Encoding: 149 2497 151
OldEncoding: 2497
Width: 0
VWidth: 1000
Flags: HW
Fore
-476.08 -313.82 m 0
 -566 -313.82 -608.92 -248 -608.92 -171.82 c 1
 -601.36 -96.5605 -553.84 -44.0205 -478.24 -31.2402 c 0
 -478.24 -31.2402 -426.4 -34.0801 -399.4 -44.0205 c 1
 -399.4 1 l 1
 -340 1 l 1
 -340 -71 l 1
 -233.08 -102.24 -108.78 -201.632 27.2002 -302.46 c 24
 45.5488 -316.065 71.4795 -340.8 71.4795 -340.8 c 1
 42 -400 l 1
 -67.0801 -307.7 -244 -203 -344 -167 c 1
 -344 -235.16 -417.76 -313.82 -476.08 -313.82 c 0
-472 -123 m 0
 -495.729 -126.089 -532.479 -152.7 -532.479 -189.62 c 1
 -530 -209 -509.991 -232 -480 -232 c 0
 -438 -232 -408 -145 -408 -145 c 0
 -408 -145 -447.88 -119.86 -472 -123 c 0
EndSplineSet
AnchorPoint: "ukaar" -372 -1 mark 0
EndChar
StartChar: bn_uukaar
Encoding: 150 2498 152
OldEncoding: 2498
Width: 0
VWidth: 1000
Flags: HW
Fore
-263.16 -3.25977 m 1
 -263.16 -74 l 1
 -322.32 -74 -390 -91.5303 -390 -140 c 0
 -390 -175.37 -354 -220 -334 -220 c 0
 -300 -220 -219.16 -160.72 -208.72 -133.21 c 1
 -173.92 -150.24 l 1
 -60 -242 62 -308 167.12 -362.46 c 1
 128 -408 l 1
 64 -378 -142 -276 -198 -240 c 1
 -232 -252 -279.68 -308 -340 -308 c 1
 -427 -308 -488.28 -228.84 -499.88 -152.86 c 1
 -499.88 -45.4404 -411.64 -3.25977 -263.16 -3.25977 c 1
EndSplineSet
AnchorPoint: "ukaar" -266 -4 mark 0
EndChar
StartChar: bn_rikaar
Encoding: 151 2499 153
OldEncoding: 2499
Width: 0
VWidth: 1000
Flags: HW
Fore
-76 -410 m 1
 -216.576 -334.242 -472.484 -245.845 -596 -216 c 1
 -602 -131 l 1
 -266 15 l 1
 -198 -49 l 1
 -454 -168 l 1
 -343.017 -181.354 -106 -302 -44 -348 c 1
 -76 -410 l 1
EndSplineSet
AnchorPoint: "ukaar" -227 -2 mark 0
EndChar
StartChar: bn_rrikaar
Encoding: 152 2500 154
OldEncoding: 2500
Width: 0
VWidth: 1000
Flags: HW
Fore
-77 -411.32 m 1
 -203.519 -343.896 -433.836 -265.222 -545 -238.66 c 1
 -550.4 -163.01 l 1
 -206 -33.0703 l 1
 -144.8 -90.0303 l 1
 -417.2 -195.94 l 1
 -362 -210 -104 -327.2 -48.2002 -368.14 c 1
 -77 -411.32 l 1
-264.4 71.0596 m 1
 -568.4 -58.8799 l 1
 -464.6 -131.86 l 1
 -395.3 -106.6 l 1
 -442.4 -74.9004 l 1
 -209.5 15.8799 l 1
 -264.4 71.0596 l 1
EndSplineSet
AnchorPoint: "ukaar" -217 44 mark 0
EndChar
StartChar: bn_ekaar
Encoding: 153 2503 155
OldEncoding: 2503
Width: 595
VWidth: 1000
Flags: HW
Fore
525 144 m 0
 525 48 462 0 351 0 c 0
 249.565 0 43 220 43 490 c 0
 43 680 165 814 205 850 c 1
 0 850 l 1
 0 933 l 1
 603 933 l 1
 603 850 l 1
 414 850 l 1
 284.336 799.812 152.97 640.149 154 430 c 0
 155 226 288 108 327 108 c 1
 297 162 308.446 264.099 408 258 c 1
 468.075 258 525 201 525 144 c 0
EndSplineSet
EndChar
StartChar: bn_aikaar
Encoding: 154 2504 156
OldEncoding: 2504
Width: 589
VWidth: 1000
Flags: HW
Fore
603 933 m 1
 603 850 l 1
 391 850 l 1
 316 788 152.97 640.149 154 430 c 0
 155 226 288 108 327 108 c 1
 297 162 308.446 264.099 408 258 c 1
 468.075 258 525 201 525 144 c 0
 525 48 462 0 351 0 c 0
 249.565 0 43 220 43 490 c 0
 43 680 165 814 205 850 c 1
 0 850 l 1
 0 933 l 1
 603 933 l 1
316 1044 m 0
 307.031 1151.63 62 1112 62 1356 c 0
 62 1396 86 1440 138 1496 c 0
 214 1432 l 0
 214 1432 155.214 1371.36 158 1324 c 16
 162 1256 454 1214.68 454 1060 c 16
 454 1024 440 976 423 932 c 0
 259 933 l 0
 284 960 320 996 316 1044 c 0
EndSplineSet
EndChar
StartChar: bn_okaar
Encoding: 155 2507 157
OldEncoding: 2507
Width: 894
VWidth: 1000
Flags: HW
Fore
746 927 m 1
 814 927 l 1
 797 197 l 1
 717 217 l 1
 746 927 l 1
611 864 m 1
 364 864 l 1
 217 804 189 747 137 590 c 1
 126 539 123 496 123 458 c 0
 123 321 193 247 343 230 c 1
 350 261 l 1
 369 311 403 338 451 338 c 1
 468 325 507 321 507 292 c 0
 507 224 449 166 375 158 c 1
 265 164 183 210 128 298 c 0
 94 356 67 449 43 574 c 1
 43 670 68 752 125 822 c 0
 177 891 247 931 333 934 c 1
 546 933 l 1
 611 864 l 1
EndSplineSet
EndChar
StartChar: bn_aukaar
Encoding: 156 2508 158
OldEncoding: 2508
Width: 877
VWidth: 1000
Flags: HW
Fore
672 933 m 1
 770 927 l 1
 763 186 l 1
 679 187 l 1
 672 933 l 1
664 918 m 1
 662 943 l 1
 662 945 l 2
 662 976 662 997 654 1006 c 1
 654 1010 l 1
 640 1031 602 1045 544 1053 c 0
 444 1068 369 1086 369 1159 c 0
 369 1163 370 1169 370 1175 c 1
 367 1182 364 1186 364 1194 c 0
 364 1211 375 1226 375 1240 c 1
 394 1219 413 1196 413 1177 c 2
 413 1175 l 1
 442 1154 476 1140 524 1129 c 0
 630 1101 708 1092 739 1034 c 0
 753 1013 761 974 763 918 c 1
 664 918 l 1
611 864 m 1
 364 864 l 1
 217 804 189 747 137 590 c 1
 126 539 123 496 123 458 c 0
 123 321 193 247 343 230 c 1
 350 261 l 1
 369 311 403 338 451 338 c 1
 468 325 507 321 507 292 c 0
 507 224 449 166 375 158 c 1
 265 164 183 210 128 298 c 0
 94 356 67 449 43 574 c 1
 43 670 68 752 125 822 c 0
 177 891 247 931 333 934 c 1
 546 933 l 1
 611 864 l 1
EndSplineSet
EndChar
StartChar: bn_hasanta
Encoding: 157 2509 159
OldEncoding: 2509
Width: 168
VWidth: 1000
Flags: HW
Fore
-68 -114 m 25
 0 2 l 25
 428 -326 l 25
 384 -394 l 25
 -68 -114 l 25
EndSplineSet
AnchorPoint: "ukaar" -74 2 mark 0
EndChar
StartChar: bn_auMark
Encoding: 158 2519 160
OldEncoding: 2519
Width: 390
VWidth: 1000
Flags: HW
Fore
39 1482 m 0
 9 1458 -69 1404 -69 1350 c 0
 -69 1262.95 40.3701 1251.47 129 1182 c 0
 240 1095 270 1032 270 933 c 1
 411 933 l 1
 411 850 l 1
 270 850 l 1
 270 0 l 1
 148 0 l 1
 148 850 l 1
 0 850 l 1
 0 933 l 1
 148 933 l 1
 148 933 153 1020 54 1107 c 0
 -19.5759 1171.66 -198 1185 -198 1344 c 0
 -198 1416 -87 1518 -45 1557 c 0
 39 1482 l 0
EndSplineSet
EndChar
StartChar: bn_lli
Encoding: 163 2529 165
OldEncoding: 2529
Width: 1009
VWidth: 1000
Flags: HW
Fore
544.818 474.086 m 0
 544.818 397.675 675.312 375.244 724.992 354.969 c 1
 804.48 322.021 881.318 276.402 881.318 197.836 c 0
 881.318 152.217 870.058 128.773 844.225 98.9951 c 0
 791.895 42.6045 738.24 -2.38184 672 -48 c 1
 672 -48 669.351 5.22168 653.453 43.2373 c 0
 629.606 102.796 591.187 145.247 534.883 160.453 c 1
 546.145 150.95 571.315 134.476 571.315 91.3916 c 8
 571.315 39.6523 510.374 0.15332 470.631 0.15332 c 0
 428.898 0.15332 377.895 38.1689 377.895 104.063 c 8
 377.895 174.528 433.021 230.259 506.4 236.486 c 24
 604.338 244.799 693.196 147.782 707.77 91.3916 c 1
 748.838 131.941 783.283 169.958 783.283 202.904 c 0
 783.283 266.316 615.696 290.342 555.418 329.625 c 0
 512.362 357.504 463.053 389.195 460.032 471.551 c 0
 457.383 543.782 530.246 604.607 530.246 604.607 c 1
 624.307 585.6 l 0
 619.671 578.63 544.818 539.98 544.818 474.086 c 0
299.52 1141.28 m 0
 299.52 1035.15 480.76 1004 549.76 975.84 c 1
 660.16 930.08 766.88 866.72 766.88 757.6 c 0
 766.88 694.24 751.24 661.68 715.36 620.32 c 0
 642.68 542 568.16 479.52 476.16 416.16 c 1
 476.16 416.16 472.48 490.08 450.4 542.88 c 0
 417.28 625.6 363.92 684.56 285.72 705.68 c 1
 301.36 692.48 336.32 669.6 336.32 609.76 c 8
 336.32 537.9 251.68 483.04 196.48 483.04 c 0
 138.52 483.04 67.6797 535.84 67.6797 627.36 c 8
 67.6797 725.228 144.245 802.631 246.16 811.28 c 24
 382.186 822.825 505.6 688.08 525.84 609.76 c 1
 582.88 666.08 630.72 718.88 630.72 764.64 c 0
 630.72 852.711 397.96 886.08 314.24 940.64 c 0
 254.44 979.36 185.956 1023.38 181.76 1137.76 c 0
 178.08 1238.08 279.28 1322.56 279.28 1322.56 c 1
 409.92 1296.16 l 0
 403.48 1286.48 299.52 1232.8 299.52 1141.28 c 0
EndSplineSet
EndChar
StartChar: bn_likaar
Encoding: 164 2530 166
OldEncoding: 2530
Width: 223
VWidth: 1000
Flags: HW
Fore
-304.182 129.086 m 0
 -304.182 52.6748 -173.688 30.2441 -124.008 9.96875 c 1
 -44.5195 -22.9785 32.3184 -68.5977 32.3184 -147.164 c 0
 32.3184 -192.783 21.0576 -216.227 -4.77539 -246.005 c 0
 -57.1055 -302.396 -110.76 -347.382 -177 -393 c 1
 -177 -393 -179.649 -339.778 -195.547 -301.763 c 0
 -219.394 -242.204 -257.813 -199.753 -314.117 -184.547 c 1
 -302.855 -194.05 -277.685 -210.524 -277.685 -253.608 c 8
 -277.685 -305.348 -338.626 -344.847 -378.369 -344.847 c 0
 -420.102 -344.847 -471.105 -306.831 -471.105 -240.937 c 8
 -471.105 -170.472 -415.979 -114.741 -342.6 -108.514 c 24
 -244.662 -100.201 -155.804 -197.218 -141.23 -253.608 c 1
 -100.162 -213.059 -65.7168 -175.042 -65.7168 -142.096 c 0
 -65.7168 -78.6836 -233.304 -54.6582 -293.582 -15.375 c 0
 -336.638 12.5039 -385.947 44.1953 -388.968 126.551 c 0
 -391.617 198.782 -318.754 259.607 -318.754 259.607 c 1
 -224.693 240.6 l 0
 -229.329 233.63 -304.182 194.98 -304.182 129.086 c 0
EndSplineSet
EndChar
StartChar: bn_llikaar
Encoding: 165 2531 167
OldEncoding: 2531
Width: 520
VWidth: 1000
Flags: HW
Fore
199.818 237.086 m 0
 199.818 160.675 330.312 138.244 379.992 117.969 c 1
 459.48 85.0215 536.318 39.4023 536.318 -39.1641 c 0
 536.318 -84.7832 525.058 -108.227 499.225 -138.005 c 0
 446.895 -194.396 393.24 -239.382 327 -285 c 1
 327 -285 324.351 -231.778 308.453 -193.763 c 0
 284.606 -134.204 246.187 -91.7529 189.883 -76.5469 c 1
 201.145 -86.0498 226.315 -102.524 226.315 -145.608 c 8
 226.315 -197.348 165.374 -236.847 125.631 -236.847 c 0
 83.8984 -236.847 32.8945 -198.831 32.8945 -132.937 c 8
 32.8945 -62.4717 88.0215 -6.74121 161.4 -0.513672 c 24
 259.338 7.79883 348.196 -89.2178 362.77 -145.608 c 1
 403.838 -105.059 438.283 -67.042 438.283 -34.0957 c 0
 438.283 29.3164 270.696 53.3418 210.418 92.625 c 0
 167.362 120.504 118.053 152.195 115.032 234.551 c 0
 112.383 306.782 185.246 367.607 185.246 367.607 c 1
 279.307 348.6 l 0
 274.671 341.63 199.818 302.98 199.818 237.086 c 0
-133.182 102.086 m 0
 -133.182 25.6748 -2.68848 3.24414 46.9922 -17.0312 c 1
 126.48 -49.9785 203.318 -95.5977 203.318 -174.164 c 0
 203.318 -219.783 192.058 -243.227 166.225 -273.005 c 0
 113.895 -329.396 60.2402 -374.382 -6 -420 c 1
 -6 -420 -8.64941 -366.778 -24.5469 -328.763 c 0
 -48.3936 -269.204 -86.8135 -226.753 -143.117 -211.547 c 1
 -131.855 -221.05 -106.685 -237.524 -106.685 -280.608 c 8
 -106.685 -332.348 -167.626 -371.847 -207.369 -371.847 c 0
 -249.102 -371.847 -300.105 -333.831 -300.105 -267.937 c 8
 -300.105 -197.472 -244.979 -141.741 -171.6 -135.514 c 24
 -73.6621 -127.201 15.1963 -224.218 29.7695 -280.608 c 1
 70.8379 -240.059 105.283 -202.042 105.283 -169.096 c 0
 105.283 -105.684 -62.3037 -81.6582 -122.582 -42.375 c 0
 -165.638 -14.4961 -214.947 17.1953 -217.968 99.5508 c 0
 -220.617 171.782 -147.754 232.607 -147.754 232.607 c 1
 -53.6934 213.6 l 0
 -58.3291 206.63 -133.182 167.98 -133.182 102.086 c 0
EndSplineSet
EndChar
StartChar: bn_shunya
Encoding: 166 2534 168
OldEncoding: 2534
Width: 873
VWidth: 1000
Flags: HW
Fore
406 0 m 0
 -34 0 -31 927 409 927 c 0
 850 927 838 0 406 0 c 0
406 105 m 0
 706.005 105 708 820 409 820 c 0
 129 820 114 105 406 105 c 0
EndSplineSet
EndChar
StartChar: bn_ek
Encoding: 167 2535 169
OldEncoding: 2535
Width: 816
VWidth: 1000
Flags: HW
Fore
361 932 m 17
 333 908 292 857.468 292 820 c 0
 292 700 671 508 671 295 c 0
 671 226.003 667 0 312 0 c 1
 -3 0 38 328 213 328 c 0
 347 328 416 179 372 104 c 1
 428 104 524 162.008 524 292 c 0
 524 480 141 668 141 812 c 0
 141 896.299 229 968 269 1008 c 9
 361 932 l 17
EndSplineSet
EndChar
StartChar: bn_dui
Encoding: 168 2536 170
OldEncoding: 2536
Width: 1008
VWidth: 1000
Flags: HW
Fore
424 316 m 1
 465 316 796 176 912 88 c 1
 876 -52 l 1
 652 112 148 264 148 264 c 17
 76 477 l 1
 106.508 462.382 177.499 410.726 220 416 c 0
 378.107 435.623 568 472 568 596 c 0
 568 635.319 228 768 108 864 c 1
 108 864 152 1004 148 1008 c 1
 280 868 764 787.587 764 608 c 1
 764 452 499 316 424 316 c 1
EndSplineSet
EndChar
StartChar: bn_tin
Encoding: 169 2537 171
OldEncoding: 2537
Width: 1087
VWidth: 1000
Flags: HW
Fore
951 456 m 0
 951 138 678 3 573 3 c 0
 372 3 233.431 215.771 156.236 408 c 0
 96 558 57 855 57 855 c 1
 150 882 l 1
 150 882 198 573 249 441 c 0
 299.261 310.912 408.001 138.511 561 138.511 c 0
 663 138.511 837 276 837 408 c 0
 837 516.374 813 603 696 699 c 1
 667.461 626.355 602.893 570 543 570 c 0
 464.384 570 384 614.804 384 693 c 24
 384 792.035 440.963 876 561 876 c 0
 741 876 951 648 951 456 c 0
EndSplineSet
EndChar
StartChar: bn_chaar
Encoding: 170 2538 172
OldEncoding: 2538
Width: 846
VWidth: 1000
Flags: HW
Fore
208.788 496.108 m 1
 132.109 542.167 109.553 625.658 123.469 711.591 c 0
 146.271 852.386 262.986 964 404 964 c 0
 558.141 964 678.579 848.528 695.344 706.579 c 0
 705.187 623.246 680.677 543.102 609.278 498.614 c 1
 680.583 453.26 742.25 345.932 732.512 263.213 c 0
 715.89 122.011 562.26 0 408 0 c 0
 259.473 0 92.5117 118.317 92.5117 263.213 c 0
 92.5117 339.846 138.804 454.505 208.788 496.108 c 1
408 445.997 m 0
 312.51 445.997 240.512 359.213 240.512 263.213 c 0
 240.512 183.213 328.34 116.511 408 116.511 c 0
 524.512 116.511 592.512 183.213 592.512 291.213 c 0
 592.512 379.152 516.512 445.997 408 445.997 c 0
408 551.232 m 0
 508.512 551.232 568.512 619.213 568.512 699.213 c 0
 568.512 784.675 492.512 851.213 408.512 851.213 c 0
 336.482 851.213 248.512 771.427 248.512 687.213 c 0
 248.512 618.835 320.489 551.232 408 551.232 c 0
EndSplineSet
EndChar
StartChar: bn_paanch
Encoding: 171 2539 173
OldEncoding: 2539
Width: 776
VWidth: 1000
Flags: HW
Fore
336 780 m 1
 219 696 138 582 138 450 c 0
 138 389.925 159.654 316.861 213 261 c 0
 251 223 335 147 366 138 c 1
 348 177 321 267 321 375 c 0
 321 449.507 349.507 544.784 471 603 c 1
 336 780 l 1
498 876 m 1
 414 831 l 1
 552 648 l 1
 666 702 l 1
 708 582 l 1
 567.245 564.351 424.324 473.107 424.324 366 c 0
 424.324 230.364 484.77 69.2861 525 0 c 1
 467 -10 295 39 200 126 c 0
 97.9613 212.688 12 327 12 468 c 0
 12 669 168 843 444 969 c 1
 498 876 l 1
EndSplineSet
EndChar
StartChar: bn_chhoi
Encoding: 172 2540 174
OldEncoding: 2540
Width: 1054
VWidth: 1000
Flags: HW
Fore
371 876 m 1
 316 876 338.451 1012 380 1012 c 0
 428 1012 465.382 977.432 512 924 c 1
 512 522 l 1
 554 522 805 587 868 708 c 1
 868 708 928 600 928 468 c 0
 928 221.312 716 0 452 0 c 0
 313.091 0 161.667 156.625 104 308 c 0
 72 392 48 592 48 740 c 1
 160 704 l 1
 160 624 177.205 428.836 208 348 c 0
 240 264 383.356 136 468 136 c 0
 600 136 692 228 736 296 c 0
 759.758 332.716 792 416.376 792 468 c 1
 736 424 600 354 488 354 c 9
 372 416 l 1
 371 876 l 1
EndSplineSet
EndChar
StartChar: bn_saat
Encoding: 173 2541 175
OldEncoding: 2541
Width: 1029
VWidth: 1000
Flags: HW
Fore
639 359 m 1
 544.374 344.442 446.046 325.501 384 336 c 0
 231.811 361.752 92 492 92 640 c 0
 92 749.203 204.165 972 440 972 c 0
 732 972 776 756 776 608 c 1
 776 0 l 1
 779 -10 646 85 639 78 c 0
 639 359 l 1
640 504 m 1
 640 640 l 1
 640 723 556 816 404 816 c 0
 306.316 816 236 716.217 236 644 c 0
 236 580 308.842 468 424 468 c 0
 480.093 468 541.425 487.434 640 504 c 1
EndSplineSet
EndChar
StartChar: bn_aat
Encoding: 174 2542 176
OldEncoding: 2542
Width: 1021
VWidth: 1000
Flags: HW
Fore
816 704 m 1
 900 588 l 1
 796 480 628 445 628 445 c 1
 628 393 l 0
 628 261.187 564.096 158.289 423 88.832 c 0
 342.928 49.4141 249.476 18.5381 152 0 c 1
 73 67 l 1
 73 908 l 1
 33.6895 941.545 26.7969 986.628 48 997.46 c 0
 67.251 1007.29 124.662 988.896 187 908 c 1
 187 517 l 1
 187 589.547 372 560 544 560 c 0
 596.154 560 744 588 816 704 c 1
188 152 m 1
 266.79 176.394 341.726 194.484 392 228 c 0
 452 268 488 363.198 488 432 c 1
 380 388 188 456 188 372 c 1
 188 152 l 1
EndSplineSet
EndChar
StartChar: bn_noi
Encoding: 175 2543 177
OldEncoding: 2543
Width: 980
VWidth: 1000
Flags: HW
Fore
364 952 m 1
 364 952 300 884 300 800 c 0
 300 647.962 796 568 796 364 c 0
 796 227.941 712 0 384 0 c 1
 296 58 l 1
 361.479 78.3584 382.735 119.911 382.735 160 c 0
 382.735 192.769 359.483 224.56 328 243 c 1
 345.459 206.496 277.303 144 220 144 c 0
 148 144 96 212 96 284 c 0
 96 380.083 189.629 444 248 444 c 0
 380 444 512 340 512 252 c 0
 512 218.265 515.31 183.22 492 144 c 1
 552 144 632 184.052 632 320 c 0
 632 464 164 554.282 164 760 c 0
 164 892 247 984 247 984 c 1
 364 952 l 1
EndSplineSet
EndChar
StartChar: bn_asamiba
Encoding: 176 2544 178
OldEncoding: 2544
Width: 972
VWidth: 1000
Flags: HW
Fore
316 460 m 25
 695 226 l 25
 695 340 l 25
 408 514 l 25
 316 460 l 25
0 850 m 1
 0 933 l 1
 992 933 l 1
 992 850 l 1
 0 850 l 1
814 0 m 1
 703 64 l 1
 573 194 374 318 172 381 c 1
 101 489 l 1
 688 837 l 1
 688 850 l 1
 814 850 l 1
 814 0 l 1
695 702 m 1
 485 570 l 1
 695 441 l 1
 695 702 l 1
EndSplineSet
EndChar
StartChar: bn_asamira
Encoding: 177 2545 179
OldEncoding: 2545
Width: 972
VWidth: 1000
Flags: HW
Fore
130 213 m 9
 227 282 l 17
 430 209 497 141 611 62 c 9
 538 0 l 17
 439 83 299 170 130 213 c 9
0 850 m 1
 0 933 l 1
 992 933 l 1
 992 850 l 1
 0 850 l 1
814 0 m 1
 703 64 l 1
 573 194 374 318 172 381 c 1
 101 489 l 1
 688 837 l 1
 688 850 l 1
 814 850 l 1
 814 0 l 1
691 702 m 1
 307 473 l 1
 691 201 l 1
 691 702 l 1
EndSplineSet
EndChar
StartChar: bn_takamark
Encoding: 178 2546 180
OldEncoding: 2546
Width: 662
VWidth: 1000
Flags: HW
Fore
34 452 m 1
 476 534 596 27 596 27 c 1
 531 54 l 1
 531 54 449 371 99 371 c 1
 34 452 l 1
EndSplineSet
EndChar
StartChar: bn_takasign
Encoding: 179 2547 181
OldEncoding: 2547
Width: 778
VWidth: 1000
Flags: HW
Fore
0 916 m 1
 -34 943 l 1
 67 1039 299 1174 299 918 c 2
 299 610 l 1
 746 610 l 1
 814 530 l 1
 299 530 l 1
 299 100 l 1
 492 143 621 176 577 314 c 1
 463 265 418 367 430 398 c 0
 454 462 628 526 672 355 c 0
 744 78 490 26 261 0 c 9
 200 67 l 1
 200 530 l 1
 34 530 l 1
 -34 610 l 1
 200 610 l 1
 201 912 l 2
 203 1028 130 1026 0 916 c 1
EndSplineSet
EndChar
StartChar: bn_currency1
Encoding: 180 2548 182
OldEncoding: 2548
Width: 662
VWidth: 1000
Flags: HW
Fore
34 133 m 1
 99 212 l 1
 449 212 531 530 531 530 c 1
 596 557 l 1
 596 557 476 50 34 133 c 1
EndSplineSet
EndChar
StartChar: bn_currency2
Encoding: 181 2549 183
OldEncoding: 2549
Width: 662
VWidth: 1000
Flags: HW
Fore
131 212 m 1
 251 249 270 342 200 384 c 1
 246 251 34 247 34 365 c 0
 34 502 387 438 263 226 c 1
 510 284 531 530 531 530 c 1
 596 557 l 1
 596 557 509 50 67 133 c 1
 131 212 l 1
EndSplineSet
EndChar
StartChar: bn_currency3
Encoding: 182 2550 184
OldEncoding: 2550
Width: 662
VWidth: 1000
Flags: HW
Fore
131 269 m 2
 234 269 304 400 232 441 c 1
 265 318 67 333 67 422 c 0
 67 463 97 504 166 504 c 0
 343 504 350 247 131 226 c 1
 280 138 517 348 531 530 c 1
 596 557 l 1
 544 209 147 -35 34 269 c 1
 131 269 l 2
EndSplineSet
EndChar
StartChar: bn_currency4
Encoding: 183 2551 185
OldEncoding: 2551
Width: 196
VWidth: 1000
Flags: HW
Fore
34 798 m 1
 131 718 l 1
 131 0 l 1
 34 79 l 1
 34 798 l 1
EndSplineSet
EndChar
StartChar: bn_currency1less
Encoding: 184 2552 186
OldEncoding: 2552
Width: 727
VWidth: 1000
Flags: HW
Fore
167 718 m 1
 167 718 l 1
 167 363 l 1
 305 514 439 646 580 676 c 9
 664 543 l 17
 550 407 515 209 631 27 c 1
 597 0 l 1
 541 85 435 174 519 526 c 1
 393 474 167 236 167 236 c 1
 67 332 l 1
 67 718 l 1
 -5 770 39 867 167 718 c 1
EndSplineSet
EndChar
StartChar: bn_currency16
Encoding: 185 2553 187
OldEncoding: 2553
Width: 692
VWidth: 1000
Flags: HW
Fore
331 265 m 0
 -67 265 -67 622 331 622 c 0
 730 622 730 265 331 265 c 0
331 564 m 0
 102 564 101 326 331 326 c 0
 565 326 561 564 331 564 c 0
EndSplineSet
EndChar
StartChar: bn_isshar
Encoding: 186 2554 188
OldEncoding: 2554
Width: 692
VWidth: 1000
Flags: HW
Fore
217 557 m 0
 217 678 447 678 447 557 c 0
 447 438 217 440 217 557 c 0
34 650 m 1
 183 212 483 213 630 650 c 1
 630 93 34 98 34 650 c 1
EndSplineSet
EndChar
StartChar: afii61664
Encoding: 187 8204 189
OldEncoding: 8204
Width: 0
Flags: HW
Fore
67 101 m 1
 -80 101 l 1
 -80 1134 l 1
 67 1134 l 1
 67 101 l 1
EndSplineSet
EndChar
StartChar: afii301
Encoding: 188 8205 190
OldEncoding: 8205
Width: 0
Flags: HW
Fore
357 670 m 1
 259 591 l 1
 70 670 l 1
 75 128 l 1
 -70 128 l 1
 -75 670 l 1
 -278 550 l 1
 -375 626 l 1
 -90 798 l 1
 -309 916 l 1
 -210 993 l 1
 -2 874 l 1
 222 1017 l 1
 324 943 l 1
 87 798 l 1
 357 670 l 1
EndSplineSet
EndChar
StartChar: uni25CC
Encoding: 189 9676 191
OldEncoding: 9676
Width: 1213
Flags: HW
Fore
56 381 m 1
 12 550 l 1
 143 570 l 1
 188 404 l 1
 56 381 l 1
19 658 m 1
 73 812 l 1
 201 784 l 1
 147 632 l 1
 19 658 l 1
152 914 m 1
 319 1017 l 1
 401 934 l 1
 234 830 l 1
 152 914 l 1
476 1074 m 1
 667 1074 l 1
 667 966 l 1
 483 966 l 1
 476 1074 l 1
848 1032 m 1
 1060 914 l 1
 983 826 l 1
 777 945 l 1
 848 1032 l 1
1152 777 m 1
 1195 560 l 1
 1063 545 l 1
 1019 761 l 1
 1152 777 l 1
1166 366 m 1
 1048 242 l 1
 942 309 l 1
 1058 430 l 1
 1166 366 l 1
865 122 m 1
 660 75 l 1
 623 178 l 1
 831 224 l 1
 865 122 l 1
387 102 m 1
 188 217 l 1
 265 307 l 1
 466 191 l 1
 387 102 l 1
EndSplineSet
EndChar
StartChar: bn_half_ka
Encoding: 190 -1 192
OldEncoding: 65537
Width: 1060
VWidth: 1000
Flags: HW
Fore
707 850 m 1
 847 798 1040 664 1044 552 c 0
 1047.29 459.972 952 380 884 380 c 0
 819.875 380 768 428 768 492 c 8
 768 554.886 800 608 880 608 c 1
 880 652 835 696 708 696 c 1
 708 212 l 1
 576 248 l 1
 576 248 448 352 364 384 c 0
 244.736 429.434 140 428 140 428 c 1
 70 571 l 1
 561 834 l 1
 561 850 l 1
 707 850 l 1
559 657 m 1
 340 532 l 1
 560 424 l 1
 559 657 l 1
0 850 m 1
 0 933 l 1
 1169 933 l 1
 1169 850 l 1
 0 850 l 1
EndSplineSet
LCarets: 0 0 '    ' 1 0 
Ligature: 0 0 'half' bn_ka bn_hasanta
EndChar
StartChar: bn_half_kha
Encoding: 191 -1 193
OldEncoding: 65538
Width: 958
VWidth: 1000
Flags: HW
Fore
454 933 m 1
 624 933 726.601 727.982 728 672 c 0
 730 592 564 456 564 456 c 1
 773 374 l 1
 771 933 l 1
 959 933 l 1
 959 850 l 1
 899 850 l 1
 899 176 l 1
 766 236 l 1
 634 311 380 340 268 340 c 1
 264 448 l 1
 384 448 590 568 590 644 c 0
 590 684.199 538 748 538 748 c 1
 538 748 439.982 544.479 328 540 c 0
 228 536 164 604 164 644 c 0
 164 723.941 183.92 780 284 780 c 0
 380 780 386 696 386 696 c 1
 490 696 454 933 454 933 c 1
EndSplineSet
LCarets: 0 255 '    ' 1 0 
Ligature: 0 0 'half' bn_kha bn_hasanta
EndChar
StartChar: bn_half_ga
Encoding: 192 -1 194
OldEncoding: 65539
Width: 642
VWidth: 1000
Flags: HW
Fore
640 584 m 1
 564 680 452 812 332 812 c 0
 280 812 164 724 168 700 c 1
 392 700 492 640.276 492 524 c 0
 492 384 272 308 196 276 c 1
 100 392 l 0
 188 392 368 464 368 512 c 0
 368 568.143 290.447 588.326 228 580 c 0
 168 572 96 556 96 556 c 1
 40 576 20 660 28 700 c 1
 56 788 201 932 316 932 c 0
 411 932 519 881 602 804 c 1
 640 767 l 1
 640 584 l 1
EndSplineSet
Ligature: 0 0 'half' bn_ga bn_hasanta
EndChar
StartChar: bn_half_gha
Encoding: 193 -1 195
OldEncoding: 65540
Width: 832
VWidth: 1000
Flags: HW
Fore
594 452 m 1
 594 850 l 1
 720 850 l 1
 718 312 l 1
 624 284 l 1
 484 392 300 424 148 340 c 1
 76 516 l 0
 76 516 160 536 204 584 c 1
 163 612 84 692 84 742 c 0
 84 788 99 812 109 850 c 1
 257 850 l 1
 242 806 235 819 235 788 c 0
 235 723 245 692 332 692 c 0
 397 692 476 764 476 764 c 1
 504 624 l 1
 336 508 l 1
 448 528 546 508 594 452 c 1
0 850 m 1
 0 933 l 1
 851 933 l 1
 851 850 l 1
 0 850 l 1
EndSplineSet
Ligature: 0 0 'half' bn_gha bn_hasanta
EndChar
StartChar: bn_half_nga
Encoding: 194 -1 196
OldEncoding: 65541
Width: 688
VWidth: 1000
Flags: HW
Fore
700 604 m 1
 696 384 528 216 372 216 c 0
 271.92 216 147.487 367.803 100 492 c 0
 48 628 37 872 37 872 c 1
 136 868 l 1
 136 868 133.383 691.065 176 576 c 0
 216 468 320 356 388 356 c 8
 460.837 356 533.021 423.396 524 484 c 1
 432 468 297.385 515.824 296 556 c 0
 292 672 360 768 360 768 c 1
 312 789 200 840 200 840 c 1
 252 940 l 1
 292 915 420 872 420 872 c 0
 429.701 869.574 508.295 946.44 570 933 c 24
 633.35 919.201 684 854 684 812 c 0
 684 750 620 672 572 672 c 8
 533.756 672 490 691 476 692 c 1
 476 692 429.722 650.173 432 616 c 16
 436 556 700 604 700 604 c 1
552 832 m 24
 529.95 831.266 508.855 813.837 512 792 c 24
 514.786 772.652 536.863 764.017 556 768 c 24
 573.414 771.624 585.695 786.294 584 804 c 24
 582.419 820.508 568.574 832.552 552 832 c 24
EndSplineSet
Ligature: 0 0 'half' bn_nga bn_hasanta
EndChar
StartChar: bn_half_cha
Encoding: 195 -1 197
OldEncoding: 65542
Width: 642
VWidth: 1000
Flags: HW
Fore
273 685 m 1
 273 454 l 1
 320 452 488 534 488 574 c 0
 488 630 356 634 273 685 c 1
262 850 m 0
 335 777 504 692 540 692 c 0
 580 692 632 620 632 620 c 1
 632 620 634.515 508.958 596 456 c 16
 564 412 240 284 240 284 c 1
 136 347 l 1
 136 850 l 1
 262 850 l 0
0 850 m 1
 0 933 l 1
 641 933 l 1
 641 850 l 1
 0 850 l 1
EndSplineSet
Ligature: 0 0 'half' bn_cha bn_hasanta
EndChar
StartChar: bn_half_chha
Encoding: 196 -1 198
OldEncoding: 65543
Width: 1015
VWidth: 1000
Flags: HW
Fore
717 661 m 1
 763 655 841 584 881 538 c 1
 877 502 835 460 761 411 c 0
 678 356 568 305 439 253 c 1
 582 230 795 143 940 68 c 1
 874 0 l 1
 869 6 864 12 852 21 c 0
 763 82 457 209 319 209 c 1
 143 153 l 1
 80 274 l 1
 447 326 662 408 720 527 c 1
 720 593 640 570 599 579 c 1
 539 478 469 406 340 370 c 1
 186 334 l 1
 80 367 l 1
 80 850 l 1
 191 850 l 1
 191 798 l 1
 220 769 437 691 488 691 c 0
 717 661 l 1
-2 850 m 1
 -2 933 l 1
 1031 933 l 1
 1031 850 l 1
 -2 850 l 1
193 686 m 1
 191 444 l 1
 268 456 328 474 364 490 c 1
 411 514 439 553 445 603 c 1
 372 620 266 659 193 686 c 1
EndSplineSet
Ligature: 0 0 'half' bn_chha bn_hasanta
EndChar
StartChar: bn_half_ja
Encoding: 197 -1 199
OldEncoding: 65544
Width: 1058
VWidth: 1000
Flags: HW
Fore
1092 333 m 0
 1092 333 1085 244 1063 240 c 0
 1063 240 910 408 910 510 c 0
 910 538 927 562 939 580 c 1
 903 586 853 617 783 670 c 0
 712 728 664 777 640 817 c 0
 631 826 630 837 628 845 c 1
 561 808 l 1
 476 756 428 705 428 622 c 0
 428 584 447 558 485 550 c 1
 495 550 l 0
 577 550 623 609 626 622 c 1
 730 643 l 1
 763 589 797 502 797 502 c 0
 746 425 730 346 659 296 c 0
 596 255 519 235 435 235 c 2
 428 235 l 2
 290 239 169 400 126 508 c 0
 80 617 60 661 60 752 c 2
 60 766 l 1
 159 730 l 1
 160 684 183 624 196 580 c 0
 208 541 244 494 282 449 c 0
 341 381 370 342 474 342 c 0
 539 342 579 370 631 411 c 8
 662 435 671 489 671 489 c 1
 671 489 640 474 620 466 c 16
 568 454 526 440 490 440 c 0
 490 440 476 441 474 441 c 0
 464 441 456 444 445 445 c 0
 345 477 290 537 290 626 c 0
 290 678 319 730 367 784 c 0
 401 821 430 841 459 850 c 2
 466 850 l 1
 -3 850 l 1
 -3 933 l 1
 1077 933 l 1
 1077 850 l 1
 770 850 l 1
 771 825 794 790 838 754 c 0
 899 705 975 668 1068 668 c 1
 1101 560 l 1
 1058 528 1048 519 1027 464 c 0
 1026 462 1026 458 1026 454 c 0
 1026 412 1092 333 1092 333 c 0
EndSplineSet
Ligature: 0 0 'half' bn_ja bn_hasanta
EndChar
StartChar: bn_half_jha
Encoding: 198 -1 200
OldEncoding: 65545
Width: 1136
VWidth: 1000
Flags: HW
Fore
263 458 m 1
 591 203 l 1
 591 676 l 1
 263 458 l 1
591 850 m 1
 -2 850 l 1
 -2 933 l 1
 712 933 l 1
 712 329 l 1
 730 318 746 305 770 288 c 1
 770 286 l 1
 867 203 l 1
 867 933 l 1
 1142 933 l 1
 1142 850 l 1
 988 850 l 1
 988 11 l 1
 913 67 795 164 712 230 c 1
 712 0 l 1
 609 60 l 1
 570 94 536 127 497 158 c 0
 364 273 244 344 138 381 c 1
 60 489 l 1
 591 837 l 1
 591 850 l 1
EndSplineSet
Ligature: 0 0 'half' bn_jha bn_hasanta
EndChar
StartChar: bn_half_nya
Encoding: 199 -1 201
OldEncoding: 65546
Width: 1342
VWidth: 1000
Flags: HW
Fore
919 466 m 1
 919 466 1019 354 1047 358 c 8
 1072.33 361.618 1094.41 372.829 1099 398 c 24
 1105.91 435.904 1047 482 1047 482 c 0
 1047 482 1099 542 1099 570 c 8
 1099 596.839 1085.84 626 1059 626 c 16
 1003 626 919 486 919 486 c 1
 919 466 l 1
891 630 m 1
 891 630 986.58 797.372 1071 786 c 8
 1161.74 773.776 1239 704 1239 622 c 0
 1239 572.015 1171 510 1171 510 c 1
 1171 510 1247 432.126 1247 370 c 16
 1247 283 1143 210 1067 218 c 0
 991.26 225.973 891 352.47 891 352.47 c 1
 891 200 l 1
 797 170 l 1
 768 214 710.205 287 631 287 c 16
 559 287 499 170 358 170 c 8
 203.788 170 95 354 71 442 c 0
 49.3252 521.475 75 826 75 826 c 1
 195 826 l 1
 195 826 155 607 179 526 c 8
 205.103 437.904 227.006 346 331 346 c 0
 423 346 489.938 434 562 434 c 0
 670 434 736 412 778 385 c 1
 779 622 l 0
 779 715 668 820 611 820 c 0
 569.058 820 473 739 473 739 c 1
 497 739 569 681.024 569 622 c 16
 569 544 488 460 416 460 c 8
 327.744 460 275 532 275 637 c 1
 275 763 515 936 608 936 c 8
 762.448 936 892 685 892 660 c 1
 891 630 l 1
EndSplineSet
Ligature: 0 0 'half' bn_nya bn_hasanta
EndChar
StartChar: bn_half_Ta
Encoding: 200 -1 202
OldEncoding: 65547
Width: 901
VWidth: 1000
Flags: HW
Fore
565.997 1022.07 m 16
 502.156 1088.28 160.146 1104.83 100.864 1154.49 c 0
 66.3662 1183.38 22.6895 1236.52 22.6895 1293.52 c 0
 22.6895 1351.01 50.7041 1410.21 78.0645 1459.87 c 1
 184.771 1459.87 l 1
 143.729 1410.21 123.349 1314.32 178.386 1257.94 c 16
 206.66 1228.97 502.156 1183.45 556.877 1166.9 c 8
 613.132 1149.89 645.556 1127.63 680 1080 c 24
 715.003 1031.61 724.689 933.52 724.689 933.52 c 1
 615.247 933.52 l 1
 615.247 933.52 593.426 993.625 565.997 1022.07 c 16
543 460 m 0
 563 520 l 1
 563 520 554.744 501.891 487 496 c 0
 418 490 339 565 339 660 c 8
 339 753.925 425 820 519 820 c 0
 670 820 755 670 753 610 c 0
 750.167 525.024 748.255 485.007 703 426 c 24
 591.747 280.94 483 190 298 190 c 0
 237.917 190 127 360 110 407 c 1
 110 850 l 1
 237 850 l 1
 237 502 l 2
 237 457 267 349 327 349 c 0
 378.885 349 478 370 543 460 c 0
-7 850 m 1
 -7 933 l 1
 902 933 l 1
 902 850 l 1
 -7 850 l 1
EndSplineSet
Ligature: 0 0 'half' bn_Ta bn_hasanta
EndChar
StartChar: bn_half_Tha
Encoding: 201 -1 203
OldEncoding: 65548
Width: 751
VWidth: 1000
Flags: HW
Fore
-3 933 m 1
 913 933 l 1
 913 850 l 1
 -3 850 l 1
 -3 933 l 1
179 1227 m 8
 179 1305.08 242 1380 278 1401 c 9
 398 1401 l 17
 326 1353 296 1284 296 1221 c 0
 296 1143 464 933 464 933 c 9
 320 933 l 17
 320 933 179 1110 179 1227 c 8
445 740 m 1
 445 515.188 285 497.955 285 465 c 0
 285 425.812 326 400 380 400 c 0
 451.889 400 565 499.536 565 580 c 0
 565 664.562 445 740 445 740 c 1
525 850 m 0
 525 850 750 643 750 565 c 0
 750 520 539 265 398 265 c 1
 321 265 95 323.408 95 465 c 16
 95 504 340 614 340 850 c 1
 525 850 l 0
EndSplineSet
Ligature: 0 0 'half' bn_Tha bn_hasanta
EndChar
StartChar: bn_half_Da
Encoding: 202 -1 204
OldEncoding: 65549
Width: 1058
VWidth: 1000
Flags: HW
Fore
899 718 m 0
 899 718 909.44 588.961 864 464 c 0
 832 376 716 212 536 212 c 0
 341.048 212 224.052 363.599 147 507 c 0
 111 574 76 790 76 790 c 1
 211 762 l 0
 211 762 223 630 260 564 c 0
 331.083 437.204 419 352 524 352 c 0
 618 352 686.714 418.749 724 484 c 0
 756 540 744 588 744 588 c 1
 744 588 675 495 560 495 c 0
 511 495 477 520 439 547 c 0
 391 588 364 681 364 724 c 1
 364 850 l 1
 1 850 l 1
 1 933 l 1
 1059 933 l 1
 1059 850 l 1
 512 850 l 1
 512 724 l 1
 512 696 541 664 579 664 c 0
 623 664 735 808 735 808 c 1
 899 718 l 0
EndSplineSet
Ligature: 0 0 'half' bn_Da bn_hasanta
EndChar
StartChar: bn_half_Dha
Encoding: 203 -1 205
OldEncoding: 65550
Width: 752
VWidth: 1000
Flags: HW
Fore
-7 850 m 1
 -7 933 l 1
 777 933 l 1
 777 850 l 1
 -7 850 l 1
490 437 m 0
 490 437 544 497 561 542 c 0
 577 579 580 589 580 599 c 0
 580 603 580 607 579 613 c 1
 577 609 573 605 567 601 c 0
 538 570 510 562 483 562 c 0
 468 562 452 564 437 564 c 0
 410 564 377 574 348 590 c 0
 305 613 280 649 280 686 c 0
 280 766 348 823 445 823 c 0
 596 823 710 719 710 597 c 0
 710 587 701 568 689 538 c 0
 649 460 633 440 567 367 c 0
 468 258 369 201 278 201 c 2
 275 201 l 1
 220 218 106 371 89 415 c 1
 87 850 l 1
 207 850 l 1
 207 784 208 502 208 454 c 0
 208 410 271 342 304 328 c 1
 319 328 328 328 341 329 c 0
 387 338 459 412 459 412 c 0
 490 437 l 0
EndSplineSet
Ligature: 0 0 'half' bn_Dha bn_hasanta
EndChar
StartChar: bn_half_Na
Encoding: 204 -1 206
OldEncoding: 65551
Width: 658
VWidth: 1000
Flags: HW
Fore
717 773 m 2
 717 646 l 0
 676 686 640 761 580 804 c 0
 532 841 473 845 428 846 c 0
 294 846 242 796 207 717 c 1
 234 726 265 742 300 742 c 0
 329 742 357 730 389 707 c 0
 437 674 464 640 466 601 c 0
 466 512 394 433 282 433 c 0
 159 433 67 508 65 613 c 0
 65 628 l 0
 65 728 108 796 177 850 c 2
 207 874 l 1
 251 912 314 929 393 929 c 0
 415 929 l 0
 483 927 565 914 631 858 c 0
 678 823 717 773 717 773 c 2
EndSplineSet
Ligature: 0 0 'half' bn_Na bn_hasanta
EndChar
StartChar: bn_half_ta
Encoding: 205 -1 207
OldEncoding: 65552
Width: 904
VWidth: 1000
Flags: HW
Fore
504 820 m 24
 473.735 824.837 428 800 428 800 c 0
 428 800 453.317 707.317 500 704 c 24
 539.611 701.185 576.184 736.51 572 776 c 24
 568.672 807.412 535.191 815.015 504 820 c 24
424 284 m 8
 255.747 369.279 84 467.95 84 628 c 0
 84 800 271.692 930.989 464 944 c 24
 566.784 950.954 672.877 905.903 688 804 c 24
 704.717 691.354 609.88 584 496 584 c 16
 416 584 304 660 304 756 c 1
 304 751 232 732 232 624 c 0
 232 515.778 383.269 464.706 528 376 c 0
 652 300 868 140 868 0 c 1
 752 0 l 0
 752 72 716 136 424 284 c 8
EndSplineSet
LCarets: 0 255 '    ' 1 0 
Ligature: 0 0 'half' bn_ta bn_hasanta
EndChar
StartChar: bn_half_tha
Encoding: 206 -1 208
OldEncoding: 65553
Width: 978
VWidth: 1000
Flags: HW
Fore
600 654 m 0
 600 534 453 447 390 411 c 1
 712 216 l 1
 712 933 l 1
 977 933 l 1
 977 850 l 1
 829 850 l 1
 829 0 l 1
 693 108 l 1
 618 181 300 312 201 330 c 0
 196.081 330.894 120 477 120 477 c 0
 204 486 483 582 483 681 c 0
 483 759.058 378 795 333 795 c 1
 381 693 295.629 632.854 216 627 c 24
 134.278 620.992 63.8764 698.462 72 780 c 24
 81.9551 879.927 169 929 282 929 c 0
 457 929 600 791 600 654 c 0
EndSplineSet
LCarets: 0 0 '    ' 1 0 
Ligature: 0 0 'half' bn_tha bn_hasanta
EndChar
StartChar: bn_half_da
Encoding: 207 -1 209
OldEncoding: 65554
Width: 682
VWidth: 1000
Flags: HW
Fore
621 282 m 0
 532 295 l 1
 483 373 469 438 469 519 c 0
 469 570 490 624 529 676 c 1
 529 678 531 678 532 682 c 1
 492 659 l 1
 398 601 309 514 224 406 c 1
 114 435 l 1
 114 850 l 1
 230 850 l 1
 232 590 l 1
 295 672 365 730 468 790 c 1
 468 790 468 790 469 790 c 1
 485 804 505 814 521 825 c 1
 712 730 l 1
 659 662 575 601 570 530 c 2
 570 514 l 2
 570 419 618 314 621 282 c 0
0 850 m 1
 0 933 l 1
 739 933 l 1
 739 850 l 1
 0 850 l 1
EndSplineSet
LCarets: 0 255 '    ' 1 0 
Ligature: 0 0 'half' bn_da bn_hasanta
EndChar
StartChar: bn_half_dha
Encoding: 208 -1 210
OldEncoding: 65555
Width: 732
VWidth: 1000
Flags: HW
Fore
725 201 m 1
 596 313 352 449 148 508 c 1
 68 616 l 1
 606 837 l 1
 606 933 l 1
 749 933 l 1
 749 850 l 1
 725 850 l 1
 725 201 l 1
307 570 m 1
 579 426 l 1
 579 694 l 1
 307 570 l 1
111 798 m 1
 97 821 90 845 90 866 c 0
 90 916 125 960 172 976 c 1
 196 987 220 995 242 995 c 0
 307 995 377 950 377 891 c 0
 377 862 357 826 331 819 c 1
 294 807 266 800 258 800 c 2
 253 800 l 2
 247 800 242 800 239 803 c 1
 263 765 295 742 340 742 c 0
 365 742 394 754 411 763 c 2
 336 718 l 1
 336 718 307 711 288 711 c 0
 225 711 169 736 126 782 c 2
 111 798 l 1
EndSplineSet
Ligature: 0 0 'half' bn_dha bn_hasanta
EndChar
StartChar: bn_half_na
Encoding: 209 -1 211
OldEncoding: 65556
Width: 676
VWidth: 1000
Flags: HW
Fore
676 458 m 1
 676 458 545 617 485 612 c 0
 429.051 607.338 392 603 360 567 c 1
 360 567 440 562 440 442 c 8
 440 364.752 373.206 303.467 296 306 c 24
 206.637 308.932 140 382 140 474 c 0
 140 629 310 726 430 726 c 0
 521.883 726 613.841 700.168 676 662 c 1
 676 458 l 1
0 850 m 1
 0 933 l 1
 824 933 l 1
 824 850 l 1
 0 850 l 1
EndSplineSet
Ligature: 0 0 'half' bn_na bn_hasanta
LCarets: 0 0 '    ' 1 0 
EndChar
StartChar: bn_half_pa
Encoding: 210 -1 212
OldEncoding: 65557
Width: 867
VWidth: 1000
Flags: HW
Fore
867 528 m 1
 736 648 l 1
 688 640 410 316 346 316 c 8
 299.696 316 246 380 246 380 c 0
 246 380 306.468 444.027 306 448 c 0
 300.472 494.988 190 556 118 556 c 0
 118 556 78 612 86 660 c 0
 95.5576 717.347 278.432 921.204 458 933 c 24
 640.003 944.956 828 731 868 708 c 1
 867 528 l 1
260 656 m 0
 260 656 408 580 408 524 c 0
 630 744 l 0
 630 744 528.109 824 452 824 c 16
 416 824 260 700 260 656 c 0
EndSplineSet
Ligature: 0 0 'half' bn_pa bn_hasanta
LCarets: 0 0 '    ' 1 0 
EndChar
StartChar: bn_half_pha
Encoding: 211 -1 213
OldEncoding: 65558
Width: 1089
VWidth: 1000
Flags: HW
Fore
810 720 m 1
 810 129 l 1
 700 174 l 0
 700 174 508.838 269.581 432 308 c 0
 336 356 168 372 168 372 c 1
 124 497 l 1
 124 497 360 584 422 642 c 1
 422 642 115 798 115 850 c 0
 324 850 l 0
 428 774 556 653 556 653 c 1
 556 600 l 1
 396 472 l 1
 675 325 l 1
 675 850 l 1
 810 850 l 1
 810 835 l 0
 905 790 1120 748 1121 516 c 0
 1121.52 395.898 1031 376 976 376 c 0
 901 376 861 431 861 516 c 0
 861 596.156 981 636 981 636 c 1
 981 636 964 716 810 720 c 1
0 850 m 1
 0 933 l 1
 1264 933 l 1
 1264 850 l 1
 0 850 l 1
EndSplineSet
Ligature: 0 0 'half' bn_pha bn_hasanta
EndChar
StartChar: bn_half_ba
Encoding: 212 -1 214
OldEncoding: 65559
Width: 823
VWidth: 1000
Flags: HW
Fore
0 850 m 1
 0 933 l 1
 992 933 l 1
 992 850 l 1
 0 850 l 1
816 208 m 1
 705 272 l 1
 648 316 252 460 192 468 c 1
 121 576 l 1
 657 837 l 1
 657 850 l 1
 814 850 l 1
 816 208 l 1
672 694 m 1
 404 560 l 1
 672 436 l 1
 672 694 l 1
EndSplineSet
Ligature: 0 0 'half' bn_ba bn_hasanta
EndChar
StartChar: bn_half_bha
Encoding: 213 -1 215
OldEncoding: 65560
Width: 1134
VWidth: 1000
Flags: HW
Fore
556 204 m 0
 424 204 248 272 176 432 c 0
 96.5801 608.489 80 792 80 792 c 1
 196 792 l 1
 196 792 205.327 628.312 284 496 c 0
 372 348 484.025 346.106 556 348 c 0
 708 352 776 520 776 520 c 1
 776 520 692 480 560 480 c 0
 424 480 344 568 344 648 c 128
 344 728 407.174 824 508 824 c 0
 576 824 648 732 648 628 c 0
 776 636 804 800 804 800 c 1
 968 744 l 1
 968 744 892 204 556 204 c 0
0 850 m 1
 0 933 l 1
 1138 933 l 1
 1138 850 l 1
 0 850 l 1
EndSplineSet
LCarets: 0 255 '    ' 1 0 
Ligature: 0 0 'half' bn_bha bn_hasanta
EndChar
StartChar: bn_half_ma
Encoding: 214 -1 216
OldEncoding: 65561
Width: 873
VWidth: 1000
Flags: HW
Fore
242 850 m 0
 242 850 452 600 584 600 c 0
 692.074 600 740 764 647 850 c 0
 242 850 l 0
367 584 m 0
 403 512 331 384 239 384 c 1
 143 388 60.5557 450.089 59 544 c 24
 57.5752 630.058 127 728 219 696 c 1
 219 696 82 850 83 850 c 1
 -1 850 l 1
 -1 933 l 1
 1016 933 l 1
 1016 850 l 1
 831 850 l 1
 831 850 864.102 792.045 867 708 c 0
 871 592 802.979 467.312 667 472 c 0
 551 476 367 584 367 584 c 0
EndSplineSet
LCarets: 0 255 '    ' 1 0 
Ligature: 0 0 'half' bn_ma bn_hasanta
EndChar
StartChar: bn_half_ya
Encoding: 215 -1 217
OldEncoding: 65562
Width: 936
VWidth: 1000
Flags: HW
Fore
806 850 m 1
 806 0 l 1
 655 49 l 1
 640 67 l 2
 582 128 512 183 428 230 c 0
 326 288 237 315 159 315 c 0
 143 315 128 314 116 313 c 1
 111 342 108 332 80 398 c 1
 188 481 305 564 418 642 c 1
 312 744 275 765 111 850 c 1
 111 850 l 1
 307 850 l 2
 309 850 309 850 312 850 c 0
 418 777 500 705 556 632 c 1
 556 579 l 1
 261 377 l 1
 343 367 640 228 684 176 c 1
 684 850 l 1
 806 850 l 1
0 850 m 1
 0 933 l 1
 969 933 l 1
 969 850 l 1
 0 850 l 1
EndSplineSet
LCarets: 0 0 '    ' 1 0 
Ligature: 0 0 'half' bn_ya bn_hasanta
EndChar
StartChar: bn_half_ra
Encoding: 216 -1 218
OldEncoding: 65563
Width: 957
VWidth: 1000
Flags: HW
Fore
0 850 m 1
 0 933 l 1
 992 933 l 1
 992 850 l 1
 0 850 l 1
814 0 m 1
 703 64 l 1
 573 194 374 318 172 381 c 1
 101 489 l 1
 688 837 l 1
 688 850 l 1
 814 850 l 1
 814 0 l 1
691 702 m 1
 307 473 l 1
 691 201 l 1
 691 702 l 1
305 212 m 0
 369 212 401 168 401 127 c 0
 401 83 362 35 307 35 c 0
 247 35 203 78 203 128 c 0
 203 160 218 183 247 199 c 2
 249 199 l 0
 265 209 280 212 299 212 c 0
 300 212 302 212 305 212 c 0
EndSplineSet
LCarets: 0 0 '    ' 1 0 
Ligature: 0 0 'half' bn_ra bn_hasanta
EndChar
StartChar: bn_half_la
Encoding: 217 -1 219
OldEncoding: 65564
Width: 807
VWidth: 1000
Flags: HW
Fore
852 691 m 1
 852 522 l 1
 852 522 780 607 712 605 c 24
 618 601 544 477 544 477 c 1
 544 477 463 632 350 632 c 0
 229 632 181 564 181 506 c 0
 181 482 198 456 198 456 c 1
 198 456 224 524 305 524 c 8
 389 524 452 473 452 406 c 16
 452 342 382 274 290 274 c 16
 176 274 68 384 68 502 c 0
 68 579 148 736 340 736 c 0
 476 736 538 655 538 655 c 1
 538 655 630 736 696 736 c 8
 761 736 845 701 852 691 c 1
0 850 m 1
 0 933 l 1
 845 933 l 1
 845 850 l 1
 0 850 l 1
EndSplineSet
Ligature: 0 0 'half' bn_la bn_hasanta
LCarets: 0 0 '    ' 1 0 
EndChar
StartChar: bn_half_sha
Encoding: 218 -1 220
OldEncoding: 65565
Width: 817
VWidth: 1000
Flags: HW
Fore
816 850 m 1
 656 850 l 1
 616 850 514 771 514 771 c 1
 544 759 588 761 632 732 c 0
 698 689 724 626 724 590 c 0
 724 494 676 440 592 440 c 0
 522.971 440 398 512 398 605 c 1
 398 504 287.561 432 224 432 c 0
 128 432 72 508 72 580 c 0
 72 627.015 128.246 694.934 184 732 c 0
 223.115 758.004 257.862 757.895 275 771 c 0
 275 771 121 850 0 850 c 1
 0 933 l 1
 84 923 l 1
 242 898 343 864 398 808 c 1
 458.999 881.31 572.734 933 616 933 c 1
 696 933 l 1
 816 933 l 1
 816 850 l 1
EndSplineSet
Ligature: 0 0 'half' bn_sha bn_hasanta
EndChar
StartChar: bn_half_Sha
Encoding: 219 -1 221
OldEncoding: 65566
Width: 763
VWidth: 1000
Flags: HW
Fore
452 456 m 1
 374 471 333 531 312 600 c 1
 312 600 252 547 252 484 c 0
 252 439 281.376 412 320 412 c 16
 383 412 452 456 452 456 c 1
520 716 m 0
 487 716 461 709 404 664 c 1
 443 586 458 548 548 536 c 1
 597.478 573.108 633.569 603.037 632 636 c 0
 629 699 596 716 520 716 c 0
324 294 m 0
 221.823 294 111 341.872 111 483 c 0
 111 651 432 831 555 831 c 8
 659.713 831 763.87 764.697 762 660 c 16
 759 492 450 294 324 294 c 0
0 850 m 1
 0 933 l 1
 949 933 l 1
 949 850 l 1
 0 850 l 1
EndSplineSet
Ligature: 0 0 'half' bn_Sha bn_hasanta
EndChar
StartChar: bn_half_sa
Encoding: 220 -1 222
OldEncoding: 65567
Width: 733
VWidth: 1000
Flags: HW
Fore
751 653 m 1
 751 557 l 2
 751 557 712 575 679 586 c 0
 672 587 599 603 596 603 c 0
 596 603 517 579 452 527 c 0
 452 526 413 493 340 430 c 0
 280 381 242 356 222 354 c 1
 123 367 65 415 65 505 c 0
 65 512 65 520 67 527 c 2
 67 524 l 2
 67 512 94 508 121 508 c 0
 196 508 328 572 352 616 c 0
 355 622 357 624 357 632 c 0
 357 638 360 643 360 650 c 0
 360 682 346 709 326 736 c 1
 309 767 246 800 137 841 c 0
 118 850 108 850 108 850 c 1
 350 850 l 1
 389 833 464 730 473 678 c 1
 503 686 519 692 561 692 c 0
 628 692 715 678 751 653 c 1
0 850 m 1
 0 933 l 1
 756 933 l 1
 756 850 l 1
 0 850 l 1
EndSplineSet
Ligature: 0 0 'half' bn_sa bn_hasanta
EndChar
StartChar: bn_half_ha
Encoding: 221 -1 223
OldEncoding: 65568
Width: 841
VWidth: 1000
Flags: HW
Fore
775 651 m 0
 765 538 594 473 526 456 c 1
 886 330 l 1
 886 198 l 1
 797 280 613 314 447 366 c 0
 345 398 114 423 114 423 c 0
 169 571 l 1
 169 571 290 542 355 542 c 0
 488 542 608 593 611 641 c 0
 616 701 531 750 468 750 c 1
 468 750 478 750 478 680 c 0
 478 639 389 571 302 579 c 24
 218 585 159 636 159 701 c 8
 159 804 265 841 430 841 c 1
 647 841 778 720 775 651 c 0
0 850 m 1
 0 933 l 1
 959 933 l 1
 959 850 l 1
 0 850 l 1
EndSplineSet
Ligature: 0 0 'half' bn_ha bn_hasanta
EndChar
StartChar: bn_half_asamiba
Encoding: 225 -1 227
OldEncoding: 65572
Width: 972
VWidth: 1000
Flags: HW
Fore
316 460 m 25
 695 226 l 25
 695 340 l 25
 408 514 l 25
 316 460 l 25
0 850 m 1
 0 933 l 1
 992 933 l 1
 992 850 l 1
 0 850 l 1
814 0 m 1
 703 64 l 1
 573 194 374 318 172 381 c 1
 101 489 l 1
 688 837 l 1
 688 850 l 1
 814 850 l 1
 814 0 l 1
695 702 m 1
 485 570 l 1
 695 441 l 1
 695 702 l 1
EndSplineSet
Ligature: 0 0 'half' bn_asamiba bn_hasanta
LCarets: 0 0 '    ' 1 0 
EndChar
StartChar: bn_half_asamira
Encoding: 226 -1 228
OldEncoding: 65573
Width: 972
VWidth: 1000
Flags: HW
Fore
130 213 m 9
 227 282 l 17
 430 209 497 141 611 62 c 9
 538 0 l 17
 439 83 299 170 130 213 c 9
0 850 m 1
 0 933 l 1
 992 933 l 1
 992 850 l 1
 0 850 l 1
814 0 m 1
 703 64 l 1
 573 194 374 318 172 381 c 1
 101 489 l 1
 688 837 l 1
 688 850 l 1
 814 850 l 1
 814 0 l 1
691 702 m 1
 307 473 l 1
 691 201 l 1
 691 702 l 1
EndSplineSet
Ligature: 0 0 'half' bn_asamira bn_hasanta
LCarets: 0 0 '    ' 1 0 
EndChar
StartChar: bn_ya_phala
Encoding: 298 -1 300
OldEncoding: 65645
Width: 597
VWidth: 1000
Flags: HW
Fore
448 340 m 0
 448 236 400 140 336 72 c 0
 291.037 24.2265 188 -40 132 -88 c 1
 60 -68 l 1
 112 -27 177.17 26.2043 212 68 c 0
 252 116 272 164 272 224 c 0
 272 355.768 160 452 160 540 c 0
 160 643 239 786 375 850 c 1
 468 850 l 1
 369 794 334 679 334 621 c 0
 334 537 448 420 448 340 c 0
596 850 m 1
 0 850 l 1
 0 933 l 1
 596 933 l 1
 596 850 l 1
EndSplineSet
Ligature: 0 0 'pstf' bn_ya bn_hasanta
LCarets: 0 0 '    ' 1 0 
EndChar
StartChar: bn_ra_phala
Encoding: 299 -1 301
OldEncoding: 65646
Width: 0
VWidth: 1000
Flags: HW
Fore
-318 408 m 0
 -205 407 l 1
 -205 30 l 1
 -299 0 l 1
 -328 44 -385.796 117 -465 117 c 16
 -537 117 -597 0 -738 0 c 8
 -929.944 0 -1059.51 262.273 -1083 351 c 0
 -1110 453 -1101 507 -1101 507 c 1
 -999 507 l 1
 -999 507 -1005 459 -981 378 c 8
 -946.443 261.371 -868.994 153 -765 153 c 0
 -673 153 -606.062 264 -534 264 c 0
 -426 264 -360 201 -318 174 c 1
 -318 408 l 0
EndSplineSet
Ligature: 0 0 'blwf' bn_ra bn_hasanta
EndChar
StartChar: bn_ba_phala
Encoding: 300 -1 302
OldEncoding: 65647
Width: 0
VWidth: 1000
Flags: HW
Fore
-598 207 m 1
 -388 97 l 1
 -388 325 l 1
 -598 207 l 1
-378 448 m 1
 -268 400 l 1
 -268 -12 l 1
 -316 -28 l 1
 -368 -2 l 1
 -474 53 -654 106 -746 138 c 1
 -760 234 l 1
 -378 448 l 1
EndSplineSet
Ligature: 0 0 'blwf' bn_ba bn_hasanta
EndChar
StartChar: bn_reph
Encoding: 301 -1 303
OldEncoding: 65648
Width: 0
VWidth: 1000
Flags: HW
Fore
-335 955 m 1
 -460 1065 l 1
 85 1500 l 1
 155 1425 l 1
 -335 955 l 1
EndSplineSet
AnchorPoint: "Reph" -450 925 mark 0
LCarets: 0 255 '    ' 1 0 
Ligature: 0 0 'rphf' bn_ra bn_hasanta
EndChar
StartChar: bn_ekaar_init
Encoding: 302 -1 304
OldEncoding: 65649
Width: 595
VWidth: 1000
Flags: HW
Fore
525 144 m 0
 525 48 462 0 351 0 c 0
 249.565 0 43 220 43 490 c 0
 43 680 205 850 205 850 c 1
 204 850 l 1
 204 933 l 1
 603 933 l 1
 603 850 l 1
 414 850 l 1
 284.336 799.812 152.97 640.149 154 430 c 0
 155 226 288 108 327 108 c 1
 297 162 308.446 264.099 408 258 c 1
 468.075 258 525 201 525 144 c 0
EndSplineSet
EndChar
StartChar: bn_aikaar_init
Encoding: 303 -1 305
OldEncoding: 65650
Width: 589
VWidth: 1000
Flags: HW
Fore
603 933 m 1
 603 850 l 1
 391 850 l 1
 316 788 152.97 640.149 154 430 c 0
 155 226 288 108 327 108 c 1
 297 162 308.446 264.099 408 258 c 1
 468.075 258 525 201 525 144 c 0
 525 48 462 0 351 0 c 0
 249.565 0 43 220 43 490 c 0
 43 680 165 814 205 850 c 1
 202 850 l 1
 202 933 l 1
 603 933 l 1
316 1044 m 0
 307.031 1151.63 62 1112 62 1356 c 0
 62 1396 86 1440 138 1496 c 0
 214 1432 l 0
 214 1432 155.214 1371.36 158 1324 c 16
 162 1256 454 1214.68 454 1060 c 16
 454 1024 440 977 423 933 c 0
 259 933 l 0
 284 960 320 996 316 1044 c 0
EndSplineSet
EndChar
StartChar: bn_k_ka
Encoding: 304 -1 306
OldEncoding: 65651
Width: 1171
VWidth: 1000
Flags: HW
Fore
708 696 m 1
 708 498 l 1
 848 446 1019 299 1023 187 c 0
 1026.29 94.9717 962 51 894 51 c 0
 829.875 51 792 96 792 160 c 8
 792 213.503 810 256 890 256 c 1
 890 300 792 352 708 348 c 1
 708 -37.252 l 1
 644.878 -55 l 1
 576.496 -26.1592 l 1
 437.102 34.8486 288.984 63.5039 168 99 c 1
 98.5898 235.487 l 1
 369.986 381.63 l 1
 364 384 l 0
 244.736 429.434 140 428 140 428 c 1
 70 571 l 1
 561 834 l 1
 561 850 l 1
 707 850 l 1
 847 798 998 661 1002 549 c 0
 1005.29 456.972 953 414 885 414 c 0
 820.875 414 783 465 783 519 c 8
 783 570.341 800 608 880 608 c 1
 880 652 835 696 708 696 c 1
306 195 m 1
 579 90 l 1
 579 342.908 l 1
 306 195 l 1
552 677 m 1
 285 534 l 1
 495 463 l 1
 552 487 l 1
 552 677 l 1
0 850 m 1
 0 933 l 1
 1169 933 l 1
 1169 850 l 1
 0 850 l 1
EndSplineSet
LCarets: 0 255 '    ' 1 0 
Ligature: 0 0 'pres' bn_half_ka bn_ka
EndChar
StartChar: bn_k_Ta
Encoding: 305 -1 307
OldEncoding: 65652
Width: 1179
VWidth: 1000
Flags: HW
Fore
279 546 m 25
 522 429 l 25
 522 684 l 25
 279 546 l 25
729 1023 m 16
 665 1089 323 1106 264 1155 c 0
 229 1184 186 1237 186 1294 c 0
 186 1352 214 1411 241 1461 c 1
 348 1461 l 1
 307 1411 286 1315 341 1259 c 16
 370 1230 665 1184 720 1168 c 8
 776 1151 809 1129 843 1081 c 24
 878 1032 888 933 888 933 c 1
 778 933 l 1
 778 933 757 994 729 1023 c 16
0 850 m 1
 0 933 l 1
 1180 933 l 1
 1180 850 l 1
 0 850 l 1
663 0 m 0
 606 0 411 78 411 162 c 8
 411 220 474 231 474 297 c 0
 474 327 423 363 378 384 c 0
 262 438 156 440 156 440 c 1
 86 583 l 1
 524 834 l 1
 524 850 l 1
 647 850 l 1
 651 850 l 1
 651 849 l 1
 790 796 974 687 978 576 c 0
 981 484 915 450 867 450 c 0
 825 450 780 482 780 546 c 8
 780 592 852 639 852 639 c 1
 852 639 770 742 672 697 c 1
 672 467 l 0
 672 347 567 240 567 180 c 0
 567 132 633 93 702 93 c 0
 773 93 888 168 888 168 c 0
 888 168 822 187 822 282 c 8
 822 335 876 372 924 372 c 128
 972 372 1036 310 1036 240 c 0
 1036 190 1034 159 951 85 c 0
 907 36 735 0 663 0 c 0
EndSplineSet
AnchorPoint: "Reph" 911 931 basechar 0
LCarets: 0 255 '    ' 1 0 
Ligature: 0 0 'pres' bn_half_ka bn_Ta
EndChar
StartChar: bn_k_ma
Encoding: 306 -1 308
OldEncoding: 65653
Width: 1368
VWidth: 1000
Flags: HW
Fore
1056 168 m 1
 1056 850 l 1
 0 850 l 1
 0 933 l 1
 1372 933 l 1
 1372 850 l 1
 1184 850 l 1
 1184 0 l 0
 1028 52 l 1
 1028 52 812 196 748 196 c 1
 772 116 720 0 624 0 c 0
 552 0 444 44 444 136 c 0
 444 212.42 531.886 268.949 531.886 268.949 c 1
 486.942 302.107 419.274 348.467 368 368 c 0
 248.736 413.434 144 412 144 412 c 1
 74 555 l 1
 556 819 l 1
 556 850 l 1
 711 850 l 1
 851 798 996 680 996 568 c 0
 996 475.972 976 388 908 388 c 0
 843.875 388 772 412 772 476 c 8
 772 532.246 772 596 852 596 c 1
 852 640 839 680 712 680 c 1
 712 318.01 l 1
 888 280 1056 168 1056 168 c 1
560 640 m 1
 341 515 l 1
 561 407 l 1
 560 640 l 1
EndSplineSet
LCarets: 0 255 '    ' 1 0 
Ligature: 0 0 'pres' bn_half_ka bn_ma
EndChar
StartChar: bn_k_sa
Encoding: 307 -1 309
OldEncoding: 65654
Width: 1412
VWidth: 1000
Flags: HW
Fore
1124 218 m 1
 1124 850 l 1
 0 850 l 1
 0 933 l 1
 1416 933 l 1
 1416 850 l 1
 1252 850 l 1
 1252 0 l 0
 1148 56 l 1
 1148 56 1012 208 836 208 c 0
 787.833 208 608 24 416 24 c 0
 308 24 140 228 140 228 c 1
 216 304 l 0
 216 304 300 164 404 176 c 0
 489.461 185.861 580 240 580 240 c 1
 580 240 419.274 348.467 368 368 c 0
 248.736 413.434 144 412 144 412 c 1
 74 555 l 1
 556 819 l 1
 556 850 l 1
 711 850 l 1
 851 798 996 680 996 568 c 0
 996 475.972 976 388 908 388 c 0
 843.875 388 772 412 772 476 c 8
 772 532.246 772 596 852 596 c 1
 852 640 839 680 712 680 c 1
 712 288.011 l 1
 712 288.011 836 340 912 340 c 0
 980 340 1124 218 1124 218 c 1
560 640 m 1
 341 515 l 1
 561 407 l 1
 560 640 l 1
EndSplineSet
AnchorPoint: "ukaar" 1225 0 basechar 0
LCarets: 0 255 '    ' 1 0 
Ligature: 0 0 'pres' bn_half_ka bn_sa
EndChar
StartChar: bn_k_na
Encoding: 308 -1 310
OldEncoding: 65655
Width: 1054
VWidth: 1000
Flags: HW
Fore
300 580 m 25
 546 452 l 25
 546 705 l 25
 300 580 l 25
565 145 m 1
 541 157 514 199 490 209 c 0
 478 212 454 217 437 217 c 2
 428 217 l 2
 410 217 389 212 364 199 c 1
 401 180 435 157 435 116 c 0
 435 110 433 102 432 98 c 0
 415 34 382 -6 309 -6 c 0
 237 -6 179 31 157 64 c 0
 142 83 131 102 131 127 c 0
 131 199 193 247 263 274 c 0
 299 288 345 296 387 296 c 0
 415 296 442 294 471 288 c 2
 488 282 l 2
 507 277 536 266 560 257 c 1
 548 272 558 295 544 309 c 1
 495 354 435 394 374 417 c 0
 305 442 208 479 157 493 c 1
 84 603 l 1
 546 837 l 1
 546 850 l 1
 0 850 l 1
 0 933 l 1
 1080 933 l 1
 1080 850 l 1
 649 850 l 1
 649 848 l 1
 710 825 l 1
 824 775 903 718 949 651 c 0
 975 613 986 575 986 537 c 0
 986 470 968 429 930 414 c 0
 918 408 901 406 881 406 c 0
 828 408 780 435 778 482 c 1
 778 523 790 547 814 556 c 0
 816 556 l 1
 831 566 853 572 876 572 c 0
 898 572 916 564 925 550 c 1
 898 654 812 710 671 724 c 1
 671 0 l 1
 565 52 l 1
 565 145 l 1
EndSplineSet
LCarets: 0 255 '    ' 1 0 
Ligature: 0 0 'pres' bn_half_ka bn_na
EndChar
StartChar: bn_k_la
Encoding: 309 -1 311
OldEncoding: 65656
Width: 1228
VWidth: 1000
Flags: HW
Fore
815 675 m 1
 815 0 l 1
 704 32 l 1
 702 88 l 1
 702 88 646.906 173.358 593 173 c 24
 522.531 172.531 452 60 452 60 c 1
 452 60 376 204 296 204 c 0
 244 204 224 184 224 184 c 0
 224 184 276 141.212 276 104 c 16
 276 40 224 0 140 0 c 0
 91.8336 0 36 64 40 128 c 0
 41.9961 159.938 58 304 250 304 c 0
 386 304 456 216 456 216 c 1
 456 216 521 288 588 288 c 8
 638.236 288 699 240 704 232 c 1
 703.558 273.082 l 1
 641.648 318.309 251.517 460.064 192 468 c 1
 121 576 l 1
 657 837 l 1
 657 850 l 1
 0 850 l 1
 0 933 l 1
 1229 933 l 1
 1229 850 l 1
 815 850 l 1
 815 816 l 1
 955 764 1152 676 1152 512 c 0
 1152 419.913 1060 340 992 340 c 0
 927.875 340 876 388 876 452 c 8
 876 514.886 908 568 988 568 c 1
 988 612 942 675 815 675 c 1
664 678 m 1
 396 544 l 1
 664 420 l 1
 664 678 l 1
EndSplineSet
AnchorPoint: "ukaar" 752 1 basechar 0
LCarets: 0 255 '    ' 1 0 
Ligature: 0 0 'pres' bn_half_ka bn_la
EndChar
StartChar: bn_k_ta
Encoding: 310 -1 312
OldEncoding: 65657
Width: 1387
VWidth: 1000
Flags: HW
Fore
0 850 m 1
 0 933 l 1
 1387 931 l 1
 1387 848 l 1
 0 850 l 1
32 739.867 m 1
 136 756 l 1
 136 646 168 496 216 412 c 0
 282.712 295.254 399.95 148 560 148 c 0
 740 148 800 231.847 800 284 c 0
 800 328 748.257 388.128 716 372 c 0
 692 360 688 292 624 308 c 0
 553.186 325.703 515.499 460.271 568 508 c 0
 612 548 752 500 752 540 c 0
 752 612.001 672.4 716 624 716 c 1
 571.542 716 512 700 492 672 c 1
 492 672 536 628 536 584 c 1
 536 526 472.087 444 380 444 c 0
 300 444 236 511.913 236 604 c 0
 236 732 428.394 833 594.2 833 c 16
 776 833 912 680.64 912 632 c 0
 912 615.346 909.396 569.552 908 556 c 1
 943.139 579.4 1024.52 610 1066 610 c 0
 1135 610 1263 497 1263 398 c 0
 1263 290 1208.46 242 1128 242 c 16
 1092 242 1036 292 1036 352 c 8
 1036 415.117 1067 476 1140 476 c 1
 1140 476 1083.8 512 1036 512 c 0
 990.337 512 935.099 467.961 905.394 393.793 c 1
 934.997 368.702 964 328.162 964 260 c 0
 964 120 752 0 568 0 c 0
 336 0 206.567 166.997 120 348 c 0
 76 440 32 555.867 32 739.867 c 1
EndSplineSet
Ligature: 0 0 'pres' bn_half_ka bn_ta
EndChar
StartChar: bn_k_ra
Encoding: 311 -1 313
OldEncoding: 65658
Width: 1340
VWidth: 1000
Flags: HW
Fore
0 850 m 1
 0 933 l 1
 1340 933 l 1
 1340 850 l 1
 0 850 l 1
884 416.422 m 1
 884 30 l 1
 790 0 l 1
 761 44 703.205 117 624 117 c 16
 552 117 492 0 351 0 c 8
 179.696 0 66 228 48 318 c 0
 31.8446 398.777 39 519 39 654 c 1
 141 654 l 1
 129 567 126 426 150 345 c 8
 178.708 248.109 220.006 153 324 153 c 0
 416 153 482.938 264 555 264 c 0
 663 264 729 201 771 174 c 1
 771 497 l 0
 771 590 660 695 603 695 c 0
 561.058 695 465 614 465 614 c 1
 489 614 561 556.024 561 497 c 16
 561 419 480 335 408 335 c 8
 319.744 335 267 407 267 512 c 1
 267 638 510 806 603 806 c 8
 755.251 806 884 560 884 535 c 1
 884 504.664 l 1
 921.968 555.984 991.047 610 1066 610 c 0
 1135 610 1263 497 1263 398 c 0
 1263 290 1208.46 242 1128 242 c 16
 1092 242 1002 293 1002 353 c 8
 1002 422.928 1047 488 1120 488 c 1
 1120 488 1083.8 512 1036 512 c 0
 991.616 512 923.716 480.344 884 416.422 c 1
EndSplineSet
Ligature: 0 0 'vatu' bn_ka bn_ra_phala
EndChar
StartChar: bn_k_Sha
Encoding: 312 -1 314
OldEncoding: 65659
Width: 1366
VWidth: 1000
Flags: HW
Fore
476 460 m 1
 476 560 428 644 356 644 c 1
 356 556 284 484 200 484 c 128
 116 484 48 532 48 600 c 0
 48 748 218 768 240 768 c 1
 240 768 235 788 221 850 c 1
 0 850 l 1
 0 933 l 1
 1366 933 l 1
 1366 850 l 1
 908 850 l 1
 908 738 l 1
 1208 738 1248 494 1248 494 c 0
 1248 358 1152 310 1104 310 c 0
 1055.83 310 964 350 964 438 c 8
 964 511.337 1072 598 1128 530 c 1
 1128 638 980 627 908 627 c 1
 908 627 910 0 908 0 c 0
 893 0 804 44 804 44 c 1
 743 126 644 320 536 320 c 1
 536 320 476 184 380 184 c 0
 292 184 220 216 220 316 c 0
 220 366.264 324 504 476 460 c 1
771 738 m 1
 771 850 l 1
 584 850 l 1
 584 734 771 738 771 738 c 1
772 627 m 17
 596 627 463 733 463 850 c 9
 326 850 l 25
 356 764 l 17
 460 764 592 644 592 428 c 1
 676 428 771 307 771 307 c 9
 772 627 l 17
EndSplineSet
AnchorPoint: "ukaar" 851 1 basechar 0
LCarets: 0 255 '    ' 1 0 
Ligature: 0 0 'pres' bn_half_ka bn_Sha
EndChar
StartChar: bn_k_Sh_ma
Encoding: 313 -1 315
OldEncoding: 65660
Width: 1403
VWidth: 1000
Flags: HW
Fore
1116 222 m 1
 1116 850 l 1
 820 850 l 1
 820 757 l 1
 992 757 1052 659 1052 659 c 0
 1052 615 1068 384 976 384 c 8
 909.778 384 860 441.778 860 508 c 16
 860 580 960 547 960 623 c 0
 960 663 892 632 820 632 c 1
 820 305.848 l 1
 916 320 1036 296 1116 222 c 1
684 756 m 1
 684 850 l 1
 561 850 l 1
 561 784 684 756 684 756 c 1
684 627 m 17
 588 627 440 733 440 850 c 9
 371 850 l 25
 371 772 l 17
 443 772 549 614 549 515 c 1
 609 515 651 477 684 438 c 9
 684 627 l 17
676.023 282.519 m 1
 652.064 343.691 593.912 428 516 428 c 1
 516 428 500 280 396 280 c 0
 333 280 270 332.87 270 401 c 16
 270 488 348 536 435 536 c 1
 435 602.068 400 663 348 663 c 1
 348 575 294.012 541.803 240 531 c 0
 195 522 76 564 76 660 c 0
 76 754 158 796 266 796 c 1
 266 850 l 1
 1 850 l 1
 1 933 l 1
 1405 933 l 1
 1405 850 l 1
 1244 850 l 1
 1244 0 l 0
 1088 52 l 0
 1088 120 1016 220 860 204 c 1
 860 80 770.001 44 708 44 c 0
 636 44 584 96 584 164 c 0
 584 222.438 622.704 261.926 676.023 282.519 c 1
EndSplineSet
AnchorPoint: "ukaar" 1178 -2 basechar 0
LCarets: 0 255 '    ' 2 0 0 
Ligature: 0 0 'pres' bn_half_ka bn_half_Sha bn_ma
EndChar
StartChar: bn_k_Sh_Na
Encoding: 314 -1 316
OldEncoding: 65661
Width: 1403
VWidth: 1000
Flags: HW
Fore
935 0 m 9
 896 11.7002 835 30 835 30 c 0
 835 30 850 250 580 200 c 1
 580 200 685 175 685 75 c 0
 685 12.5791 614.653 -60 570 -60 c 0
 509.028 -60 405 -20 405 85 c 0
 405 160.578 490 310 615 310 c 0
 750 310 805 279 805 279 c 1
 805 279 814.903 344.083 795 358 c 0
 738.864 397.252 625 465 555 425 c 1
 555 425 529 285 425 285 c 0
 362 285 255 335.338 255 420 c 16
 255 507 353 560 440 560 c 1
 440 626.068 400 663 348 663 c 1
 348 575 294.012 541.803 240 531 c 0
 195 522 76 564 76 660 c 0
 76 754 158 796 266 796 c 1
 266 850 l 1
 1 850 l 1
 1 933 l 1
 1405 933 l 1
 1405 850 l 1
 935 850 l 1
 935 736 l 1
 1115 736 1265 563 1265 448 c 1
 1265 338 1257 233 1165 233 c 8
 1089.15 233 1030 297.15 1030 373 c 16
 1030 445 1035 493 1155 493 c 1
 1145 573 1055 589 935 589 c 1
 935 0 l 9
799 746 m 1
 799 850 l 1
 623 850 l 1
 623 735 799 746 799 746 c 1
799 596 m 17
 703 596 502 675 502 850 c 9
 371 850 l 25
 371 772 l 17
 443 772 540 649 540 550 c 1
 606 580 766 500 799 461 c 9
 799 596 l 17
EndSplineSet
Ligature: 0 0 'pres' bn_half_ka bn_half_Sha bn_Na
LCarets: 0 0 '    ' 2 0 0 
EndChar
StartChar: bn_g_ga
Encoding: 318 -1 320
OldEncoding: 65665
Width: 897
VWidth: 1000
Flags: HW
Fore
643 94 m 1
 606 198 483 354 363 354 c 0
 311 354 219 322 223 274 c 1
 447 274 495 226.111 495 154 c 0
 495 18 151 -38 151 -38 c 1
 107 94 l 0
 107 94 371 94 371 142 c 0
 371 198.143 341.447 186.326 279 178 c 0
 219 170 147 186 147 186 c 1
 91 206 71 258 79 298 c 1
 107 386 256 466 371 466 c 0
 443 466 542 422 607 358 c 8
 624.805 340.469 643 305 643 305 c 1
 643 94 l 1
368 604 m 0
 368 660.143 338.447 648.326 276 640 c 0
 216 632 144 648 144 648 c 1
 88 668 68 720 76 760 c 1
 104 848 253 928 368 928 c 0
 440 928 525 897 608 820 c 1
 640 767 l 1
 640 933 l 1
 901 933 l 1
 901 850 l 1
 761 850 l 1
 761 0 l 1
 643 85 l 1
 643 243 l 2
 643 366 651.832 493.337 621 580 c 0
 584 684 480 816 360 816 c 0
 308 816 216 784 220 736 c 1
 444 736 492 688.111 492 616 c 0
 492 480 120 412 120 412 c 1
 80 532 l 0
 80 532 368 556 368 604 c 0
EndSplineSet
Ligature: 0 0 'pres' bn_half_ga bn_ga
LCarets: 0 0 '    ' 1 0 
EndChar
StartChar: bn_g_dha
Encoding: 319 -1 321
OldEncoding: 65666
Width: 1064
VWidth: 1000
Flags: HW
Fore
416 220 m 1
 626 147 l 1
 626 350 l 1
 416 220 l 1
615 477 m 1
 615 477 619.569 601.565 605.505 635.996 c 0
 569.761 723.498 442.241 817.732 326.315 817.732 c 8
 262.77 817.732 191.067 757.153 191.067 726.864 c 1
 364.957 726.864 507.934 646.168 507.934 572.052 c 0
 507.934 457.625 287.673 339.833 191.067 326.371 c 1
 125.376 413.874 l 0
 194.932 430.701 361.093 504.742 361.093 545.128 c 0
 361.093 592.365 286.173 622.809 225.846 615.803 c 0
 167.882 609.072 98.3262 615.803 98.3262 615.803 c 1
 44.2266 632.63 24.9062 703.306 32.6338 736.96 c 1
 59.6836 811.001 199.762 932.158 310.858 932.158 c 0
 402.633 932.158 506.967 889.249 587.149 824.463 c 1
 623.86 793.332 l 1
 623.86 933 l 1
 1064 932.834 l 1
 1064 863 l 1
 740.753 863.166 l 1
 741 533 l 1
 840 580 l 1
 860 588 926 546 924 514 c 1
 924 0 l 1
 820 74 l 1
 820 459 l 1
 740 411 l 1
 740 16 l 1
 692 0 l 1
 640 26 l 1
 534 81 326 136 234 168 c 1
 217 233 l 1
 615 477 l 1
EndSplineSet
LCarets: 0 255 '    ' 1 0 
Ligature: 0 0 'pres' bn_half_ga bn_dha
EndChar
StartChar: bn_g_na
Encoding: 320 -1 322
OldEncoding: 65667
Width: 899
VWidth: 1000
Flags: HW
Fore
643.309 295.39 m 1
 643.309 403.637 648.049 503.971 621 580 c 0
 584 684 452 812 332 812 c 0
 280 812 164 724 168 700 c 1
 392 700 492 660 492 576 c 0
 492 436 160 328 160 328 c 1
 64 444 l 0
 64 444 316 512 316 548 c 0
 316 572.331 290.447 588.326 228 580 c 0
 168 572 96 556 96 556 c 1
 40 576 20 660 28 700 c 1
 56 788 201 932 316 932 c 0
 411 932 519 881 602 804 c 1
 640 767 l 1
 640 933 l 1
 901 933 l 1
 901 850 l 1
 761 850 l 1
 761 0 l 1
 644 85 l 1
 644 112 l 1
 644 200 501.775 252 436 252 c 0
 384 252 348 220 348 220 c 1
 348 220 412 216 412 112 c 0
 412 52.0439 336 0 300 0 c 1
 256 0 152 56 152 156 c 8
 152 283.243 336 368 400 368 c 0
 524 368 643.309 295.39 643.309 295.39 c 1
EndSplineSet
Ligature: 0 0 'pres' bn_half_ga bn_na
EndChar
StartChar: bn_g_ma
Encoding: 321 -1 323
OldEncoding: 65668
Width: 1260
VWidth: 1000
Flags: HW
Fore
1072 850 m 1
 1072 0 l 0
 916 52 l 1
 916 52 884 256 776 248 c 1
 868 212 792 28 672 28 c 0
 600 28 488 104 488 200 c 0
 488 292 561.75 360.954 632 376 c 1
 630.042 440.993 636.252 537.131 621 580 c 0
 584 684 452 812 332 812 c 0
 280 812 164 724 168 700 c 1
 392 700 492 640.276 492 524 c 0
 492 384 272 308 196 276 c 1
 100 392 l 0
 188 392 368 464 368 512 c 0
 368 568.143 290.447 588.326 228 580 c 0
 168 572 96 556 96 556 c 1
 40 576 20 660 28 700 c 1
 56 788 201 932 316 932 c 0
 411 932 519 881 602 804 c 1
 640 767 l 1
 640 933 l 1
 1260 933 l 1
 1260 850 l 1
 1072 850 l 1
944 850 m 1
 761 850 l 1
 761 376.022 l 1
 872 378 944 269 944 269 c 1
 944 850 l 1
EndSplineSet
Ligature: 0 0 'pres' bn_half_ga bn_ma
LCarets: 0 0 '    ' 1 0 
EndChar
StartChar: bn_g_la
Encoding: 322 -1 324
OldEncoding: 65669
Width: 900
VWidth: 1000
Flags: HW
Fore
643.013 251.363 m 0
 576 300 460 152 460 152 c 1
 460 152 360 272 300 272 c 0
 236 272 157 223 157 165 c 0
 157 141 174 115 174 115 c 1
 174 115 200 192 244 192 c 8
 309.315 192 372 149.315 372 84 c 16
 372 20 311.117 -20 248 -20 c 16
 134 -20 44 43 44 161 c 0
 44 238 124 372 314 372 c 0
 399.617 372 460 288 460 288 c 1
 460 288 548 452 644 395.514 c 1
 644 395.514 644.499 511.407 621 580 c 16
 584 688 452 796 332 796 c 8
 270.523 796 204 740 204 704 c 1
 384 704 516 680.09 516 592 c 0
 516 448 224 392 124 376 c 1
 88 492 l 0
 152 500 332 532 332 572 c 0
 332 600.144 290.447 596.326 228 588 c 0
 168 580 96 588 96 588 c 1
 40 608 20 660 28 700 c 1
 56 788 201 932 316 932 c 0
 411 932 519 881 602 804 c 1
 640 767 l 1
 640 933 l 1
 901 933 l 1
 901 850 l 1
 761 850 l 1
 761 0 l 1
 643 85 l 1
 643 243 l 2
 643 245.786 645.27 249.725 643.013 251.363 c 0
EndSplineSet
AnchorPoint: "ukaar" 725 -1 basechar 0
LCarets: 0 255 '    ' 1 0 
Ligature: 0 0 'pres' bn_half_ga bn_la
EndChar
StartChar: bn_gh_na
Encoding: 325 -1 327
OldEncoding: 65672
Width: 832
VWidth: 1000
Flags: HW
Fore
720 850 m 1
 720 0 l 1
 596 64 l 1
 582 85 l 1
 536 131 483 191 367 191 c 0
 366 191 357 191 354 191 c 1
 369 170 l 1
 384 147 391 124 391 102 c 0
 391 81 384 58 367 45 c 0
 328 6 306 -7 270 -7 c 0
 233 -7 180 6 149 23 c 0
 99 54 82 85 82 138 c 0
 82 168 98 197 120 222 c 0
 168 274 234 300 328 300 c 0
 415 300 470 273 524 253 c 0
 545 243 567 228 582 210 c 1
 582 311 l 1
 442 419 300 424 148 340 c 1
 76 516 l 0
 76 516 160 536 204 584 c 1
 163 612 84 692 84 742 c 0
 84 788 99 812 109 850 c 1
 257 850 l 1
 242 806 235 819 235 788 c 0
 235 723 245 692 332 692 c 0
 397 692 476 764 476 764 c 1
 504 624 l 1
 336 508 l 1
 448 528 546 508 594 452 c 1
 594 850 l 1
 720 850 l 1
0 850 m 1
 0 933 l 1
 851 933 l 1
 851 850 l 1
 0 850 l 1
EndSplineSet
Ligature: 0 0 'pres' bn_half_gha bn_na
LCarets: 0 0 '    ' 1 0 
EndChar
StartChar: bn_ng_ka
Encoding: 327 -1 329
OldEncoding: 65674
Width: 949
VWidth: 1000
Flags: HW
Fore
724 850 m 1
 561 850 l 1
 561 850 624 744 680 744 c 0
 716 744 724 850 724 850 c 1
58 243 m 1
 29 330 l 1
 411 588 l 0
 403 664 291 699 266 703 c 1
 269 694 307 544 167 544 c 0
 83 544 39 615.801 39 656 c 0
 39 700 107 796 187 796 c 1
 163 850 l 1
 255 850 l 1
 255 798 l 1
 393 798 543 616 543 616 c 1
 679 616 875 475.834 875 296 c 16
 875 232 817.915 136 735 136 c 16
 679 136 623 192 623 244 c 0
 623 384 759 360 759 360 c 0
 759 436 687 489 552 489 c 1
 552 0 l 1
 479 0 199 243 58 243 c 1
428 184 m 1
 428 449 l 1
 236 308 l 1
 428 184 l 1
464 850 m 1
 0 850 l 1
 0 933 l 1
 949 933 l 1
 949 850 l 1
 812 850 l 1
 812 850 788 652 692 652 c 0
 562 652 464 850 464 850 c 1
EndSplineSet
AnchorPoint: "ukaar" 521 1 basechar 0
LCarets: 0 255 '    ' 1 0 
Ligature: 0 0 'pres' bn_half_nga bn_ka
EndChar
StartChar: bn_ng_kha
Encoding: 328 -1 330
OldEncoding: 65675
Width: 1308
VWidth: 1000
Flags: HW
Fore
672 488 m 1
 672 359.438 489.126 208 428 208 c 0
 264 208 154.626 407.435 124 484 c 0
 92 564 44 824 44 824 c 1
 128 860 l 1
 128 860 188 604 208 556 c 0
 228.059 507.858 316 348 420 356 c 8
 478.302 360.484 524 400 524 464 c 1
 440 460 297.385 515.824 296 556 c 0
 292 672 360 768 360 768 c 1
 312 789 200 840 200 840 c 1
 252 940 l 1
 292 915 420 872 420 872 c 0
 429.701 869.574 506.895 935.444 570 933 c 24
 658.013 929.592 772 874 772 832 c 0
 772 770 656 672 608 672 c 8
 555.933 672 490 691 476 692 c 1
 476 692 444 661.154 444 636 c 16
 444 584 612 556 660 636 c 1
 716 592 820 620 820 700 c 1
 820 700 928 588 928 452 c 0
 928 391.867 800 252 800 252 c 1
 1032 156 l 1
 1033 933 l 1
 1309 933 l 1
 1309 850 l 1
 1160 850 l 1
 1160 0 l 1
 1068 36 l 1
 968 72 788 132 672 136 c 1
 616 236 l 1
 616 236 774 370 774 430 c 0
 774 470.199 778 482 778 482 c 1
 748 464 700 464 672 488 c 1
588 836 m 24
 553.782 834.546 508.013 826.017 512 792 c 24
 515.792 759.647 559.625 764.409 592 768 c 24
 620.463 771.157 657.039 775.381 656 804 c 24
 654.938 833.29 617.283 837.245 588 836 c 24
EndSplineSet
Ligature: 0 0 'pres' bn_half_nga bn_kha
EndChar
StartChar: bn_ng_ga
Encoding: 329 -1 331
OldEncoding: 65676
Width: 1131
VWidth: 1000
Flags: HW
Fore
742 850 m 1
 636 850 l 1
 636 850 640 780 696 780 c 0
 732 780 742 850 742 850 c 1
549 850 m 1
 0 850 l 1
 0 933 l 1
 1131 933 l 1
 1131 850 l 1
 829 850 l 1
 829 850 809 696 713 696 c 0
 583 696 549 850 549 850 c 1
977 560.64 m 0
 803 466.56 752 346.56 752 237.119 c 0
 752 135.359 810 0 810 0 c 1
 716 0 l 1
 716 0 609 146.88 609 242.88 c 0
 609 289.92 632 351.359 632 351.359 c 1
 632 351.359 350 175.68 305 179.52 c 0
 257.178 183.601 155 312 102 397.439 c 1
 138 376.319 221.5 348.906 295 368.64 c 24
 388.428 393.723 489 478.079 489 523.199 c 0
 489 634.56 426 685.439 368 685.439 c 1
 368 685.439 410 635.52 410 599.039 c 0
 410 526.079 328.291 454.183 242 455.039 c 24
 159.426 455.858 84.6172 513.424 84 596 c 24
 83.0185 727.38 170 824 332 824 c 0
 506 824 605 663.359 617 624 c 0
 629 585.6 631 556.8 631 556.8 c 0
 631 556.8 884 732.479 907 768 c 1
 977 560.64 l 0
EndSplineSet
AnchorPoint: "ukaar" 760 1 basechar 0
LCarets: 0 255 '    ' 1 0 
Ligature: 0 0 'pres' bn_half_nga bn_ga
EndChar
StartChar: bn_ng_gha
Encoding: 330 -1 332
OldEncoding: 65677
Width: 1388
VWidth: 1000
Flags: HW
Fore
804 452 m 0
 871 452 948 456 948 456 c 1
 992 328 l 1
 912 328 796 192 796 192 c 0
 796 192 868 200 924 204 c 0
 950.793 205.914 1101 172 1101 172 c 1
 1101 172 1101 310.048 1101 376 c 1
 1101 850 l 1
 700 850 l 1
 700 933 l 1
 1389 933 l 1
 1389 850 l 1
 1241 850 l 1
 1241 281 l 1
 1241 229.304 1241 0 1241 0 c 1
 1241 0 964.919 80 880 80 c 0
 744 80 648 -24 584 72 c 0
 542.728 133.908 732 312 732 312 c 1
 651.034 403.594 l 1
 589.094 285.256 477.788 208 372 208 c 0
 271.92 208 147.487 359.803 100 484 c 0
 48 620 37 864 37 864 c 1
 136 860 l 1
 136 860 133.383 683.065 176 568 c 0
 216 460 320 348 388 348 c 8
 460.837 348 533.021 415.396 524 476 c 1
 432 460 297.385 507.824 296 548 c 0
 292 664 360 760 360 760 c 1
 312 781 200 832 200 832 c 1
 252 932 l 1
 292 907 420 864 420 864 c 0
 429.701 861.574 508.295 938.44 570 925 c 24
 633.35 911.201 684 846 684 804 c 0
 684 742 620 664 572 664 c 8
 533.756 664 490 683 476 684 c 1
 476 684 429.722 642.173 432 608 c 16
 436 548 700 596 700 596 c 1
 699.521 569.628 759.579 452 804 452 c 0
472 824 m 24
 449.95 823.266 428.855 805.837 432 784 c 24
 434.786 764.652 456.863 756.017 476 760 c 24
 493.414 763.624 505.695 778.294 504 796 c 24
 502.419 812.508 488.574 824.552 472 824 c 24
EndSplineSet
Ligature: 0 0 'pres' bn_half_nga bn_gha
EndChar
StartChar: bn_ng_ma
Encoding: 331 -1 333
OldEncoding: 65678
Width: 1328
VWidth: 1000
Flags: HW
Fore
700 604 m 1
 699.568 580.263 844 344 844 344 c 1
 993 292 l 1
 993 850 l 1
 1132 850 l 1
 1132 0 l 1
 1031 -4 1036 192 896 172 c 1
 896 172 888 0 760 0 c 0
 720 0 612 28 616 132 c 8
 618.81 205.05 652.649 265.581 736 276 c 0
 768 280 695.661 304.077 676 328 c 24
 660.028 347.434 644 384 644 384 c 1
 596 324 465.899 216 372 216 c 0
 271.92 216 147.487 367.803 100 492 c 0
 48 628 37 872 37 872 c 1
 136 868 l 1
 136 868 133.383 691.065 176 576 c 0
 216 468 320 356 388 356 c 8
 464.312 356 545.021 423.396 536 484 c 1
 444 468 297.385 515.824 296 556 c 0
 292 672 360 768 360 768 c 1
 312 789 200 840 200 840 c 1
 252 940 l 1
 292 915 420 872 420 872 c 0
 429.701 869.574 508.295 946.44 570 933 c 24
 633.35 919.201 684 854 684 812 c 0
 684 750 620 672 572 672 c 8
 533.756 672 490 691 476 692 c 1
 476 692 429.722 650.173 432 616 c 16
 436 556 700 604 700 604 c 1
752 850 m 1
 752 933 l 1
 1329 933 l 1
 1329 850 l 1
 752 850 l 1
552 832 m 24
 529.95 831.266 508.855 813.837 512 792 c 24
 514.786 772.652 536.863 764.017 556 768 c 24
 573.414 771.624 585.695 786.294 584 804 c 24
 582.419 820.508 568.574 832.552 552 832 c 24
EndSplineSet
Ligature: 0 0 'pres' bn_half_nga bn_ma
EndChar
StartChar: bn_ng_k_Sha
Encoding: 332 -1 334
OldEncoding: 65679
Width: 1700
VWidth: 1000
Flags: HW
Fore
1444 528 m 0
 1444 648 1309 612 1237 612 c 1
 1237 0 l 0
 1084 68 l 1
 1084 68 1061.91 148 984 148 c 1
 984 148 936 16 832 16 c 0
 769 16 696 79.8789 696 156 c 16
 696 243 793 324 880 324 c 1
 880 390.068 832 420 780 420 c 1
 780 332 754.012 314.803 700 304 c 0
 655 295 531.977 313.481 531.977 409.481 c 0
 531.977 503.481 592 604 700 604 c 1
 748 600 l 1
 820 600 992 448 992 312 c 1
 1080 264 l 9
 1080 612 l 17
 984 612 764 689 756 933 c 9
 1700 933 l 1
 1700 850 l 1
 1237 850 l 1
 1237 731 l 1
 1407.95 727.156 1568 636 1564 492 c 1
 1564 356 1468 308 1420 308 c 0
 1371.83 308 1274.68 348.161 1280 436 c 0
 1288 568 1444 528 1444 528 c 0
700 604 m 1
 696 384 528 216 372 216 c 0
 271.92 216 147.487 367.803 100 492 c 0
 48 628 37 872 37 872 c 1
 136 868 l 1
 136 868 133.383 691.065 176 576 c 0
 216 468 320 356 388 356 c 8
 460.837 356 533.021 423.396 524 484 c 1
 432 468 297.385 515.824 296 556 c 0
 292 672 360 768 360 768 c 1
 312 789 200 840 200 840 c 1
 252 940 l 1
 292 915 420 872 420 872 c 0
 429.701 869.574 508.295 946.44 570 933 c 24
 633.35 919.201 684 854 684 812 c 0
 684 750 620 672 572 672 c 8
 533.756 672 490 691 476 692 c 1
 476 692 429.722 650.173 432 616 c 16
 436 556 700 604 700 604 c 1
552 832 m 24
 529.95 831.266 508.855 813.837 512 792 c 24
 514.786 772.652 536.863 764.017 556 768 c 24
 573.414 771.624 585.695 786.294 584 804 c 24
 582.419 820.508 568.574 832.552 552 832 c 24
1080 731 m 1
 1080 850 l 1
 916 850 l 1
 912 720 1080 731 1080 731 c 1
EndSplineSet
Ligature: 0 0 'pres' bn_half_nga bn_k_Sha
LCarets: 0 0 '    ' 1 0 
EndChar
StartChar: bn_j_ja
Encoding: 340 -1 342
OldEncoding: 65687
Width: 1782
VWidth: 1000
Flags: HW
Fore
681 360 m 1
 681 360 836 120 971 130 c 0
 1078.71 137.979 1156 190 1138 304 c 0
 1138 304 1085 264 1026 264 c 8
 917.847 264 836 375.016 836 466 c 0
 836 572 881 585 881 585 c 0
 793 585 554 726 546 790 c 1
 546 790 449 700 449 616 c 0
 449 572 484.904 565 521 565 c 0
 556 565 606 625 606 625 c 1
 721 545 l 1
 721 545 721 380 676 295 c 0
 638.277 223.747 535 148 431 160 c 0
 268.733 178.723 181 260 111 405 c 0
 18.5879 596.426 59 821 59 821 c 1
 158 784 l 1
 158 651 156 605 185 500 c 0
 193 458 336 285 426 290 c 0
 533.834 295.991 611 350 593 464 c 0
 593 464 540 424 481 424 c 8
 372.847 424 291 535.016 291 626 c 0
 291 732 397 850 397 850 c 0
 -2 850 l 1
 -2 933 l 1
 1780 933 l 1
 1780 850 l 1
 663 850 l 1
 723.066 785.644 811.624 703.516 896 700 c 0
 1016 695 1091 740 1091 740 c 1
 1203 620 1366 575 1491 610 c 1
 1561 480 l 1
 1489 392 1466 324.79 1466 215 c 16
 1466 119 1636 -45 1636 -45 c 1
 1521 -110 l 1
 1521 -110 1326 123.539 1326 280 c 0
 1326 432 1386 455 1386 455 c 1
 1286 475 1151 520 1061 585 c 1
 1061 585 994 540 994 456 c 0
 994 412 1029.9 405 1066 405 c 0
 1101 405 1151 465 1151 465 c 1
 1266 385 l 1
 1266 385 1266 220 1221 135 c 0
 1183.28 63.7471 1080.69 0 976 0 c 0
 816 0 693.007 120.986 621 265 c 0
 681 360 l 1
EndSplineSet
Ligature: 0 0 'pres' bn_half_ja bn_ja
LCarets: 0 0 '    ' 1 0 
EndChar
StartChar: bn_j_ra
Encoding: 341 -1 343
OldEncoding: 65688
Width: 1246
VWidth: 1000
Flags: HW
Fore
1026 0 m 0
 963 -96 l 1
 963 -96 818.077 0 714 0 c 16
 642 0 517 -132 376 -132 c 8
 198.817 -132 45 33 0 123 c 0
 -47.1869 217.374 -90 336 -90 336 c 1
 0 402 l 1
 0 402 62.4326 249.973 105 177 c 0
 147 105 245.006 21 349 21 c 0
 441 21 599.938 156 672 156 c 0
 780 156 826.642 129.544 873 111 c 0
 873 111 837 215.016 837 306 c 0
 837 412 882 561 882 561 c 0
 794 561 554 726 546 790 c 1
 546 790 449 700 449 616 c 0
 449 572 484.904 565 521 565 c 0
 556 565 606 625 606 625 c 1
 721 545 l 1
 721 545 721 380 676 295 c 0
 638.277 223.747 535 148 431 160 c 0
 268.733 178.723 181 260 111 405 c 0
 18.5879 596.426 59 821 59 821 c 1
 158 784 l 1
 158 651 156 605 185 500 c 0
 193 458 336 290 426 290 c 0
 533.834 290 611 350 593 464 c 0
 593 464 540 424 481 424 c 8
 372.847 424 291 535.016 291 626 c 0
 291 732 397 850 397 850 c 0
 -2 850 l 1
 -2 933 l 1
 1246 933 l 1
 1246 850 l 1
 663 850 l 1
 723.066 785.644 811.624 700 896 700 c 0
 1016 700 1074 708 1074 708 c 1
 1074 708 975 363 975 237 c 0
 975 138.252 1026 0 1026 0 c 0
EndSplineSet
Ligature: 0 0 'vatu' bn_ja bn_ra_phala
LCarets: 0 0 '    ' 1 0 
EndChar
StartChar: bn_j_jha
Encoding: 342 -1 344
OldEncoding: 65689
Width: 1641
VWidth: 1000
Flags: HW
Fore
1099 396 m 1
 870 261 l 1
 1099 141 l 1
 1099 396 l 1
1488 850 m 1
 1488 -69 l 1
 1238 111.549 l 1
 1238 -71 l 1
 1127 -8 l 0
 997 76 836 133 744 145 c 1
 744 312 l 1
 1064 528 l 1
 856 528 556 736 552 772 c 1
 552 772 448 700 448 616 c 0
 448 572 495.904 544 532 544 c 0
 580 544 624 604 624 604 c 1
 728 512 l 1
 728 512 774.6 419.434 716 312 c 0
 668 224 588 144 440 144 c 0
 312 144 154.988 323.634 112 444 c 0
 52 612 58 821 58 821 c 1
 157 784 l 1
 157 651 167 625 196 520 c 0
 204 478 311.556 288 444 288 c 16
 552 288 592 368 592 464 c 0
 592 464 539 424 480 424 c 8
 371.847 424 290 535.016 290 626 c 0
 290 732 432 850 432 850 c 0
 0 850 l 1
 0 933 l 1
 1641 933 l 1
 1641 850 l 1
 1488 850 l 1
1359 850 m 1
 662 850 l 1
 774 730 964 620 1140 676 c 1
 1238 576 l 1
 1238 229.177 l 1
 1359 183 l 1
 1359 850 l 1
EndSplineSet
Ligature: 0 0 'pres' bn_half_ja bn_jha
EndChar
StartChar: bn_j_nya
Encoding: 343 -1 345
OldEncoding: 65690
Width: 1337
VWidth: 1000
Flags: HW
Fore
519 776 m 1
 433 712 416 656 416 555 c 2
 416 550 l 2
 416 511 435 482 465 457 c 1
 465 454 l 1
 489 440 513 434 534 434 c 0
 600 434 663 459 728 513 c 1
 696 641 607 699 519 776 c 1
858.68 236 m 1
 819.8 158 757.16 94 679.399 48 c 0
 622.16 16 563.84 0 512 0 c 0
 357.56 0 240.92 100 157.76 296 c 0
 89.7197 460 63.7998 622 55.1602 823 c 1
 138.32 817 l 1
 138.32 718 151.28 599 193.399 470 c 0
 246.32 294 347.84 187 428.84 141 c 0
 454.76 124 483.92 114 514.16 114 c 0
 553.04 114 615.68 133 657.8 162 c 0
 718.28 209 762.56 282 762.56 362 c 0
 762.56 378 760.399 394 757.16 408 c 1
 716.12 381 l 1
 647 342 577.88 321 512 321 c 0
 460.16 321 405.08 342 355.399 392 c 0
 303.56 440 272.24 493 269 546 c 2
 269 560 l 1
 269 616 268 676 329.56 742 c 0
 330.924 743.463 329.56 744 330.64 744 c 0
 379.24 800 432 836 460.84 850 c 1
 1.16016 850 l 1
 1.16016 933 l 1
 1330.64 933 l 1
 1330.64 850 l 1
 586.12 850 l 1
 663.88 786 777.68 714 816.56 657 c 0
 816.56 653 817.64 650 819.8 649 c 1
 874.88 703 936.439 736 1005.56 744 c 1
 1036.88 744 l 1
 1072.52 744 1116.8 733 1169.72 705 c 0
 1221.56 674 1247.48 646 1250.72 618 c 1
 1250.72 574 1229.12 534 1181.6 493 c 2
 1175.12 493 l 2
 1166.48 479 1151.36 471 1138.4 464 c 1
 1192.4 438 1262.6 375 1268 307 c 1
 1268 276 1245.32 246 1205.36 210 c 0
 1156.76 170 1106 151 1056.32 151 c 0
 1002.32 151 941.84 174 890 212 c 0
 880.28 220 867.32 228 858.68 236 c 1
1112 558 m 1
 1112 603 1084 636 1031 653 c 1
 982 653 938 634 893 592 c 0
 880 582 871 572 866 559 c 1
 886 494 895 431 895 376 c 0
 895 356 895 340 893 321 c 1
 919 289 956 260 1016 248 c 1
 1071 255 1112 282 1112 328 c 1
 1101 379 1084 412 1037 431 c 2
 1016 440 l 1
 1013 483 l 1
 1076 503 1107 532 1112 558 c 1
EndSplineSet
Ligature: 0 0 'pres' bn_half_ja bn_nya
EndChar
StartChar: bn_j_j_ba
Encoding: 344 -1 346
OldEncoding: 65691
Width: 1782
VWidth: 1000
Flags: HW
Fore
1535 375 m 0
 1510 395 l 1
 1357 421 1199 495 1076 600 c 1
 1076 600 994 540 994 456 c 0
 994 412 1029.9 405 1066 405 c 0
 1101 405 1151 465 1151 465 c 1
 1266 385 l 1
 1266 385 1266 220 1221 135 c 0
 1183.28 63.7471 1080.69 0 976 0 c 0
 816 0 693.007 120.986 621 265 c 0
 681 360 l 1
 681 360 836 120 971 130 c 0
 1078.71 137.979 1156 190 1138 304 c 0
 1138 304 1085 264 1026 264 c 8
 917.847 264 836 375.016 836 466 c 0
 836 572 881 585 881 585 c 0
 793 585 554 726 546 790 c 1
 546 790 449 700 449 616 c 0
 449 572 484.904 565 521 565 c 0
 556 565 606 625 606 625 c 1
 721 545 l 1
 721 545 721 380 676 295 c 0
 638.277 223.747 535 148 431 160 c 0
 268.733 178.723 181 260 111 405 c 0
 18.5879 596.426 59 821 59 821 c 1
 158 784 l 1
 158 651 156 605 185 500 c 0
 193 458 336 285 426 290 c 0
 533.834 295.991 611 350 593 464 c 0
 593 464 540 424 481 424 c 8
 372.847 424 291 535.016 291 626 c 0
 291 732 397 850 397 850 c 0
 -2 850 l 1
 -2 933 l 1
 1780 933 l 1
 1780 850 l 1
 663 850 l 1
 723.066 785.644 811.624 703.516 896 700 c 0
 1016 695 1091 740 1091 740 c 1
 1203 620 1416 528 1621 510 c 1
 1681 390 l 1
 1681 -188 l 1
 1632 -204 l 1
 1580 -178 l 1
 1475 -100 1310 -20 1195 0 c 1
 1190 165 l 1
 1535 375 l 0
1310 90 m 1
 1557 -16 l 1
 1557 226 l 1
 1310 90 l 1
EndSplineSet
Ligature: 0 0 'blws' bn_j_ja bn_ba_phala
EndChar
StartChar: bn_j_ba
Encoding: 345 -1 347
OldEncoding: 65692
Width: 1368
VWidth: 1000
Flags: HW
Fore
1064 528 m 1
 856 528 556 736 552 772 c 1
 552 772 448 700 448 616 c 0
 448 572 495.904 544 532 544 c 0
 580 544 624 604 624 604 c 1
 728 512 l 1
 728 512 774.6 419.434 716 312 c 0
 668 224 588 144 440 144 c 0
 312 144 154.988 323.634 112 444 c 0
 52 612 58 821 58 821 c 1
 157 784 l 1
 157 651 167 625 196 520 c 0
 204 478 311.556 288 444 288 c 16
 552 288 592 368 592 464 c 0
 592 464 539 424 480 424 c 8
 371.847 424 290 535.016 290 626 c 0
 290 732 432 850 432 850 c 0
 -3 850 l 1
 -3 933 l 1
 1369 933 l 1
 1369 850 l 1
 662 850 l 1
 774 730 964 620 1140 676 c 1
 1238 576 l 1
 1238 -71 l 1
 1127 -8 l 0
 997 76 836 133 744 145 c 1
 676 320 l 1
 1064 528 l 1
1099 396 m 1
 870 261 l 1
 1099 141 l 1
 1099 396 l 1
EndSplineSet
Ligature: 0 0 'blws' bn_ja bn_ba_phala
EndChar
StartChar: bn_ny_cha
Encoding: 346 -1 348
OldEncoding: 65693
Width: 1295
VWidth: 1000
Flags: HW
Fore
1052 392 m 0
 1052 452.133 960 476 894 480 c 9
 894 564 l 17
 960 575 1042.49 611.784 1036 684 c 16
 1036 684 999.691 721.229 970 722 c 24
 867.651 724.658 736 603 736 603 c 9
 736 464 l 17
 736 464 907 326 972 320 c 0
 972 320 1052 352 1052 392 c 0
1076 532 m 1
 1134 516 1229 487 1229 378 c 0
 1229 284 1104 192 964 192 c 0
 862 192 774 295 736 323 c 0
 736 0 l 1
 628 39 l 1
 498 131 362 220 188 259 c 1
 100 400 l 0
 596 694 l 1
 596 694 544 844 432 844 c 8
 402.69 844 364 812 364 812 c 1
 364 812 404 800 404 748 c 0
 404 683 348 620 292 620 c 0
 229 620 164 692 164 752 c 8
 164 876.224 300.28 924.828 424 936 c 24
 504.979 943.312 613 848 613 848 c 1
 613 933 l 1
 736 1022 l 1
 736 754 l 1
 745 758 838 866 1002 866 c 0
 1111 866 1203.2 799.713 1213 694 c 24
 1220.64 611.609 1141 547 1076 532 c 1
328 360 m 25
 611 181 l 25
 613 539 l 25
 328 360 l 25
EndSplineSet
AnchorPoint: "ukaar" 678 1 basechar 0
LCarets: 0 255 '    ' 1 0 
Ligature: 0 0 'pres' bn_half_nya bn_cha
EndChar
StartChar: bn_ny_chha
Encoding: 347 -1 349
OldEncoding: 65694
Width: 1099
VWidth: 1000
Flags: HW
Fore
774 558 m 0
 771 593 689 636 657 648 c 1
 700 666 789 729 789 762 c 0
 787 782 744 811 720 813 c 1
 647 805 620 739 531 675 c 1
 581 578 666 507 693 510 c 8
 729.495 514.055 769.999 521.161 774 558 c 0
495 822 m 9
 597.96 865.29 654 933 759 933 c 0
 886.319 908.128 929.757 859.272 933 765 c 24
 935.222 700.423 822 642 822 642 c 0
 870 625 920 570 920 504 c 0
 920 502 l 8
 871.462 430.437 768 422 714 420 c 1
 906 264 l 1
 579 168 l 1
 579 168 926 60 1031 56 c 0
 1073 -68 l 1
 961 -34 439 97 393 93 c 0
 339.203 88.3223 162 0 162 0 c 1
 161 0 95 140 93 144 c 1
 201 165 498 246 672 324 c 1
 504 474 l 1
 507 369 381 256 321 255 c 0
 289 255 87 388 84 471 c 0
 82.6631 507.976 423 675 420 723 c 8
 414.514 810.789 324 846 222 831 c 1
 294 777 252.045 641.382 174 636 c 0
 87 630 36 690 38 770 c 8
 40.8438 883.757 118 933 280 933 c 1
 353 924 456 878 495 822 c 9
228 447 m 0
 228 447 319.534 371.721 345 387 c 0
 390 414 387 555 387 555 c 1
 228 447 l 0
EndSplineSet
LCarets: 0 255 '    ' 1 0 
Ligature: 0 0 'pres' bn_half_nya bn_chha
EndChar
StartChar: bn_ny_ja
Encoding: 348 -1 350
OldEncoding: 65695
Width: 1339
VWidth: 1000
Flags: HW
Fore
1124 356 m 1
 1124 356 1052 280 1052 208 c 0
 1052 158 1102.48 65 1128 56 c 1
 1012 0 l 1
 1012 0 931.144 96.9893 924 172 c 16
 916 256 960 316 960 316 c 1
 924 312 672 528 664 588 c 1
 574.681 545 548 512 548 468 c 0
 548 412 768 364 768 364 c 1
 768 364 759.319 242 728 184 c 0
 695.52 128 637.44 54 524.92 54 c 1
 419.36 56 260 168 180 304 c 0
 103.11 434.713 48 732 48 732 c 1
 168 772 l 1
 168 772 205.24 545 276 400 c 0
 328.2 302 435.706 200 508 200 c 0
 604 200 596 288 596 288 c 0
 596 288 376 364 376 476 c 0
 376 592.276 604 664 608 704 c 0
 613.586 759.864 599.11 833.04 544.64 834 c 1
 544.64 769 486.881 678 408 676 c 1
 326.801 678 252 740 252 804 c 0
 256.641 867 314.24 927 425.601 933 c 1
 708 932 728 780 728 780 c 1
 728 780 875.619 931.278 956 933 c 0
 1096 936 1170.03 891.794 1176 844 c 1
 1184 772 1080 700 1080 700 c 1
 1080 700 1200 688.095 1200 604 c 0
 1200 436 880 512 880 512 c 1
 941.333 437.364 1124 356 1124 356 c 1
984 588 m 1
 984 588 1076 568 1076 608 c 0
 1076 630.03 920 684 920 684 c 0
 920 684 1018.1 760.396 1024 784 c 0
 1024 784 1036 828 976 824 c 0
 948.062 822.138 776.641 676 772 676 c 1
 785.405 622.665 984 588 984 588 c 1
EndSplineSet
AnchorPoint: "ukaar" 1084 2 basechar 0
LCarets: 0 255 '    ' 1 0 
Ligature: 0 0 'pres' bn_half_nya bn_ja
EndChar
StartChar: bn_ny_jha
Encoding: 349 -1 351
OldEncoding: 65696
Width: 1276
VWidth: 1000
Flags: HW
Fore
1010 531 m 0
 1010 562 900.81 579.19 831 610 c 25
 833 694 l 17
 899 705 967.822 728.311 964 792 c 16
 964 792 927.694 829.355 898 830 c 24
 818.477 831.726 786 771 711 736 c 9
 711 597 l 17
 786 531 886 462 951 456 c 0
 951 456 1010 498 1010 531 c 0
1130 487 m 16
 1128 368 990 366 990 366 c 1
 990 34 l 1
 711 202 l 1
 711 0 l 1
 580 68 l 1
 445 154 314 201 152 243 c 1
 96 356 l 1
 570 597 l 1
 570 747 l 0
 551 770 481 816 408 816 c 0
 355 816 322 783 324 776 c 1
 324 776 405.427 719.217 400 668 c 24
 391.043 583.471 347.255 517.707 240 520 c 0
 140 520 102 627 104 716 c 0
 106.677 835.121 304 929 413 929 c 0
 444 929 555 910 599 885 c 0
 626 871 691 826 693 826 c 1
 777 914 860 939 945 939 c 0
 1012 939 1103 887 1103 815 c 0
 1103 730 923 659 923 659 c 1
 1026 642 1131.76 591.947 1130 487 c 16
309 321 m 25
 570 203 l 25
 570 468 l 25
 309 321 l 25
711 314 m 1
 886 207 l 1
 886 378 l 1
 819 400 764 440 711 496 c 1
 711 314 l 1
EndSplineSet
LCarets: 0 255 '    ' 1 0 
Ligature: 0 0 'pres' bn_half_nya bn_jha
EndChar
StartChar: bn_T_Ta
Encoding: 350 -1 352
OldEncoding: 65697
Width: 902
VWidth: 1000
Flags: HW
Fore
565.997 1022.07 m 16
 502.156 1088.28 160.146 1104.83 100.864 1154.49 c 0
 66.3662 1183.38 22.6895 1236.52 22.6895 1293.52 c 0
 22.6895 1351.01 50.7041 1410.21 78.0645 1459.87 c 1
 184.771 1459.87 l 1
 143.729 1410.21 123.349 1314.32 178.386 1257.94 c 16
 206.66 1228.97 502.156 1183.45 556.877 1166.9 c 8
 613.132 1149.89 645.556 1127.63 680 1080 c 24
 715.003 1031.61 724.689 933.52 724.689 933.52 c 1
 615.247 933.52 l 1
 615.247 933.52 593.426 993.625 565.997 1022.07 c 16
602.614 312.17 m 1
 566.684 88.0112 470 0 330 0 c 8
 184.496 0 110 65 23 212 c 0
 23 212 97 277 90 295 c 1
 125 225 190 120 333 122 c 0
 420.014 123.217 460 175 465 235 c 1
 428.65 225.26 341.877 190 298 190 c 0
 237.917 190 127 360 110 407 c 1
 110 850 l 1
 -7 850 l 1
 -7 933 l 1
 902 933 l 1
 902 850 l 1
 237 850 l 1
 237 502 l 2
 237 457 267 349 327 349 c 0
 378.885 349 478 370 543 460 c 0
 563 520 l 1
 563 520 554.744 501.891 487 496 c 0
 418 490 339 565 339 660 c 8
 339 753.925 425 820 519 820 c 0
 670 820 755 670 753 610 c 0
 750.167 525.024 748.255 485.007 703 426 c 16
 670.003 382.975 637.225 344.712 602.614 312.17 c 1
EndSplineSet
Ligature: 0 0 'pres' bn_half_Ta bn_Ta
LCarets: 0 0 '    ' 1 0 
EndChar
StartChar: bn_N_Tha
Encoding: 357 -1 359
OldEncoding: 65704
Width: 1044
VWidth: 1000
Flags: HW
Fore
-10 850 m 1
 -10 933 l 1
 1068 933 l 1
 1068 850 l 1
 -10 850 l 1
947 398 m 0
 947 381 930 342 898 282 c 0
 838 174 771 100 705 49 c 0
 662 16 618 0 575 0 c 0
 498 0 416 30 328 89 c 0
 270 128 227 166 203 206 c 1
 195 220 l 1
 208 240 435 418 471 491 c 0
 524 601 507 672 461 766 c 1
 375 750 308 763 276 713 c 1
 285 718 389 672 389 622 c 16
 389 549 328 471 225 471 c 0
 163 471 77 528 77 622 c 0
 77 758 282 852 415 852 c 0
 497 858 l 1
 630 659 l 1
 630 651 l 2
 630 539 645 528 573 394 c 0
 533 318 396 230 372 205 c 1
 420 166 l 1
 485 118 514 110 544 110 c 0
 580 110 620 131 667 176 c 0
 724 230 795 317 802 408 c 1
 802 412 l 0
 802 429 771 474 724 545 c 0
 620 676 437 902 437 1032 c 0
 437 1065 449 1078 461 1095 c 1
 471 1128 553 1200 601 1213 c 1
 602 1213 602 1213 604 1213 c 0
 613 1213 638 1194 672 1159 c 1
 604 1152 546 1130 541 1078 c 1
 541 1074 l 2
 541 1013 596 908 701 763 c 1
 882 520 l 1
 925 462 947 421 947 398 c 0
EndSplineSet
Ligature: 0 0 'pres' bn_half_Na bn_Tha
LCarets: 0 0 '    ' 1 0 
EndChar
StartChar: bn_N_Da
Encoding: 358 -1 360
OldEncoding: 65705
Width: 1179
VWidth: 1000
Flags: HW
Fore
548 656 m 24
 542.112 579.724 500.421 507.548 424 504 c 24
 324.55 499.383 248 576 245 686 c 8
 241.169 826.484 444 928 512 928 c 0
 604.049 928 696 763 696 763 c 0
 804 932 l 1
 872 940 1036.43 712.711 1040 620 c 0
 1044 516 928 461 928 461 c 0
 928 461 1024 388.071 1024 276 c 0
 1024 164 872 0 608 0 c 1
 468 0 304 100 188 296 c 8
 112.873 422.939 66 654 66 654 c 0
 168 688 l 1
 168 688 207.409 495.091 304 336 c 0
 372 224 500.062 137.173 588 132 c 0
 724 124 892 204 892 300 c 8
 892 350.218 821 405 804 394 c 0
 772 369 762.028 339.548 732 352 c 24
 663.844 380.264 660 502 684 535 c 0
 705.174 564.114 746.172 529.383 784 539 c 24
 842.995 553.998 924 597 924 608 c 1
 924 608 856 776 828 776 c 1
 828 776 748 707 724 656 c 1
 652 620 l 1
 652 620 600 796 524 800 c 0
 477.023 802.473 480 772 480 772 c 1
 480 772 552.036 708.284 548 656 c 24
EndSplineSet
LCarets: 0 255 '    ' 1 0 
Ligature: 0 0 'pres' bn_half_Na bn_Da
EndChar
StartChar: bn_N_Na
Encoding: 360 -1 362
OldEncoding: 65707
Width: 870
VWidth: 1000
Flags: HW
Fore
586 391 m 0
 586 668 456 812 342 804 c 0
 311.809 801.881 276 780 276 780 c 0
 276 780 392 756 392 640 c 0
 392 592 296.111 492 224 492 c 0
 160 492 53 544 52 692 c 0
 50.8652 859.996 241 929 320 929 c 0
 405 929 439 916 503 872 c 0
 548.821 840.498 570 794 586 763 c 1
 586 933 l 1
 871 933 l 1
 871 850 l 1
 696 850 l 1
 696 0 l 1
 586 85 l 1
 586 203.038 l 1
 541.401 261.231 454.233 358.631 374 353 c 0
 343.809 350.881 308 329 308 329 c 0
 308 329 424 305 424 189 c 0
 424 141 328.111 41 256 41 c 0
 192 41 85 93 84 241 c 0
 82.8652 408.996 273 478 352 478 c 0
 437 478 522 435 586 391 c 0
EndSplineSet
AnchorPoint: "ukaar" 667 1 basechar 0
Ligature: 0 0 'pres' bn_half_Na bn_Na
LCarets: 0 0 '    ' 1 0 
EndChar
StartChar: bn_N_ma
Encoding: 361 -1 363
OldEncoding: 65708
Width: 1378
VWidth: 1000
Flags: HW
Fore
649.821 385.125 m 1
 644.542 650.968 523.358 804 406 804 c 0
 310 804 307 760 307 760 c 0
 307 760 471 760.045 471 584 c 0
 471 452 356.111 396 284 396 c 0
 220 396 83 431.932 83 612 c 0
 83 848 305 929 384 929 c 0
 469 929 503 916 567 872 c 0
 612.821 840.498 634 794 650 763 c 1
 650 933 l 1
 1260 933 l 1
 1260 850 l 1
 1072 850 l 1
 1072 0 l 0
 916 52 l 1
 916 52 908 224 764 264 c 1
 868 184 792 28 672 28 c 0
 600 28 488 104 488 200 c 0
 488 275.716 576 380 649.821 385.125 c 1
760 387.43 m 1
 856 388 944 269 944 269 c 1
 944 850 l 1
 760 850 l 1
 760 387.43 l 1
EndSplineSet
AnchorPoint: "ukaar" 999 1 basechar 0
Ligature: 0 0 'pres' bn_half_Na bn_ma
LCarets: 0 0 '    ' 1 0 
EndChar
StartChar: bn_t_ba
Encoding: 365 -1 367
OldEncoding: 65712
Width: 1001
Flags: HW
Fore
361 127 m 1
 571 245 l 1
 571 17 l 1
 361 127 l 1
0 850 m 1
 0 933 l 1
 1003 933 l 1
 1003 850 l 1
 0 850 l 1
686 321.584 m 1
 783.239 365.6 856.64 440.899 856.64 524.96 c 0
 856.64 740.977 685.359 832.96 540.64 832.96 c 0
 481.603 832.96 339.76 805.6 339.76 664.479 c 0
 339.76 575.199 409.6 496 496 496 c 0
 588.34 496 665.251 599.901 649.359 638.56 c 0
 628.64 688.96 628.64 688.96 628.64 688.96 c 0
 692 688.96 712 622.583 712 564 c 16
 712 512 620.64 412.96 500.64 412.96 c 0
 402.131 412.96 314.36 416.04 246 528 c 0
 162.777 664.302 136.64 804.96 136.64 804.96 c 1
 53.6396 760.96 l 1
 59.6396 710.96 93.5244 591.771 156.64 484.96 c 0
 202.37 407.57 297.673 308.526 442.35 285.767 c 1
 200 150 l 1
 214 54 l 1
 306 22 486 -31 592 -86 c 1
 644 -112 l 1
 686 -96 l 1
 686 321.584 l 1
EndSplineSet
Ligature: 0 0 'blws' bn_ta bn_ba_phala
LCarets: 0 0 '    ' 1 0 
EndChar
StartChar: bn_t_ma
Encoding: 366 -1 368
OldEncoding: 65713
Width: 1394
VWidth: 1000
Flags: HW
Fore
0 850 m 1
 0 933 l 1
 1391 933 l 1
 1391 850 l 1
 0 850 l 1
812 480 m 1
 940 356 l 1
 1052 360 1084 313 1084 313 c 1
 1084 850 l 1
 1216 850 l 1
 1216 0 l 1
 1136 0 1108 188 999 204 c 1
 999 88 964 0 832 0 c 8
 745.846 0 680.184 62.712 668 148 c 24
 655.816 233.288 704 316 784 336 c 0
 784 336 749.326 348.384 717.875 369.706 c 1
 657.07 327.026 580.119 300 508 300 c 0
 400 300 248 412 196 500 c 0
 132.885 606.811 69 788 69 788 c 1
 152 832 l 1
 152 832 177.954 690.06 276 564 c 0
 360 456 432 444 500 444 c 0
 576 444 692 520 692 572 c 8
 692 623.878 692 688.96 628.64 688.96 c 0
 628 660 l 0
 646.692 622.614 568.34 552 476 552 c 0
 389.6 552 348 648 348 704 c 0
 348 776.111 481.603 832.96 540.64 832.96 c 0
 685.359 832.96 860 688 860 572 c 8
 860 531.53 812 480 812 480 c 1
EndSplineSet
Ligature: 0 0 'pres' bn_half_ta bn_ma
LCarets: 0 0 '    ' 1 0 
EndChar
StartChar: bn_t_na
Encoding: 367 -1 369
OldEncoding: 65714
Width: 1006
VWidth: 1000
Flags: HW
Fore
548 72 m 1
 548 72 468 192 340 204 c 1
 340 204 360 176.133 360 116 c 0
 360 48 320 0 228 0 c 1
 184 0 96 20 96 120 c 8
 96 215.975 208 292 272 292 c 0
 396 292 546 211 546 211 c 1
 545 344 l 1
 664 380 l 1
 664 0 l 1
 548 72 l 1
832 552 m 0
 832 419.04 659.36 300 508 300 c 0
 400 300 248 412 196 500 c 0
 132.885 606.811 69 788 69 788 c 1
 152 832 l 1
 152 832 177.954 690.06 276 564 c 0
 360 456 432 444 500 444 c 0
 576 444 692 520 692 572 c 8
 692 623.878 692 688.96 628.64 688.96 c 0
 628 660 l 0
 646.692 622.614 568.34 552 476 552 c 0
 389.6 552 348 648 348 704 c 0
 348 776.111 481.603 832.96 540.64 832.96 c 0
 685.359 832.96 832 724 832 552 c 0
0 850 m 1
 0 933 l 1
 1007 933 l 1
 1007 850 l 1
 0 850 l 1
EndSplineSet
Ligature: 0 0 'pres' bn_half_ta bn_na
EndChar
StartChar: bn_t_tha
Encoding: 368 -1 370
OldEncoding: 65715
Width: 1229
VWidth: 1000
Flags: HW
Fore
652 933 m 0
 652 933 852 812 848 616 c 0
 844.817 460.032 580 304 580 304 c 1
 920 176 l 1
 920 933 l 1
 1229 933 l 1
 1229 854 l 1
 1038 854 l 1
 1038 0 l 1
 908 30 l 1
 782 112 396 200 272 204 c 0
 228 320 l 1
 228 320 560 428 660 528 c 0
 728 596 715.355 736.323 676 756 c 0
 544 600 l 1
 464 608 l 1
 454 674 428 804 324 804 c 0
 324 804 336 721.246 336 668 c 16
 336 600 307.969 548.36 260 544 c 0
 216 540 116 592 116 708 c 8
 116 830.727 213.977 919.881 336 933 c 24
 432.578 943.383 508 852 544 796 c 1
 577 842 652 933 652 933 c 0
EndSplineSet
LCarets: 0 255 '    ' 1 0 
Ligature: 0 0 'pres' bn_half_ta bn_tha
EndChar
StartChar: bn_t_ta
Encoding: 370 -1 372
OldEncoding: 65717
Width: 1115
VWidth: 1000
Flags: HW
Fore
0 848 m 1
 0 931 l 1
 1120 931 l 1
 1120 848 l 1
 0 848 l 1
964 260 m 0
 964 120 752 0 568 0 c 0
 336 0 206.567 166.997 120 348 c 0
 76 440 32 556 32 740 c 1
 136 756 l 1
 136 646 168 496 216 412 c 0
 282.712 295.254 399.95 148 560 148 c 0
 740 148 800 231.847 800 284 c 0
 800 328 748.257 388.128 716 372 c 0
 692 360 688 292 624 308 c 0
 553.186 325.703 515.499 460.271 568 508 c 0
 612 548 752 500 752 540 c 0
 752 612.001 672.4 716 624 716 c 1
 571.542 716 512 700 492 672 c 1
 492 672 536 628 536 584 c 1
 536 526 472.087 444 380 444 c 0
 300 444 236 511.913 236 604 c 0
 236 732 428.396 833 594.2 833 c 16
 776 833 952 664.64 952 616 c 0
 952 484 905.68 456 852 428 c 1
 880 412 964 376 964 260 c 0
EndSplineSet
AnchorPoint: "ukaar" 787 1 basechar 0
Ligature: 0 0 'pres' bn_half_ta bn_ta
LCarets: 0 0 '    ' 1 0 
EndChar
StartChar: bn_t_ra
Encoding: 371 -1 373
OldEncoding: 65718
Width: 1004
VWidth: 1000
Flags: HW
Fore
351 0 m 8
 179.696 0 66 228 48 318 c 0
 31.8446 398.777 39 519 39 654 c 1
 141 654 l 1
 129 567 126 426 150 345 c 8
 178.708 248.109 220.006 153 324 153 c 0
 416 153 482.938 264 555 264 c 0
 663 264 729 201 771 174 c 1
 771 497 l 0
 771 590 660 695 603 695 c 0
 561.058 695 465 614 465 614 c 1
 489 614 561 556.024 561 497 c 16
 561 419 480 335 408 335 c 8
 319.744 335 267 407 267 512 c 1
 267 638 510 806 603 806 c 8
 755.251 806 884 560 884 535 c 1
 884 30 l 1
 790 0 l 1
 761 44 703.205 117 624 117 c 16
 552 117 492 0 351 0 c 8
0 850 m 1
 0 933 l 1
 1005 933 l 1
 1005 850 l 1
 0 850 l 1
EndSplineSet
AnchorPoint: "ukaar" 852 -1 basechar 0
Ligature: 0 0 'vatu' bn_ta bn_ra_phala
LCarets: 0 0 '    ' 1 0 
EndChar
StartChar: bn_d_da
Encoding: 374 -1 376
OldEncoding: 65721
Width: 1094
VWidth: 1000
Flags: HW
Fore
648 256 m 0
 648 360 711 437 711 437 c 1
 640 408 528 268 480 164 c 1
 352 224 l 1
 352 224 396 440 440 516 c 1
 368 480 244 344 224 286 c 1
 114 315 l 1
 114 850 l 1
 230 850 l 1
 230 515 l 1
 230 515 324 664 448 768 c 1
 608 716 l 1
 544 452 l 1
 544 452 668 600 752 632 c 1
 924 496 l 1
 875 443 792 312.1 792 232 c 0
 792 108 872 0 872 0 c 0
 761 0 l 1
 688 118 648 208 648 256 c 0
0 850 m 1
 0 933 l 1
 1094 933 l 1
 1094 850 l 1
 0 850 l 1
EndSplineSet
AnchorPoint: "ukaar" 803 1 basechar 0
LCarets: 0 255 '    ' 1 0 
Ligature: 0 0 'pres' bn_half_da bn_da
EndChar
StartChar: bn_d_bha
Encoding: 375 -1 377
OldEncoding: 65722
Width: 1120
VWidth: 1000
Flags: HW
Fore
0 850 m 1
 0 933 l 1
 1120 933 l 1
 1120 850 l 1
 0 850 l 1
568 492 m 1
 582.535 524.395 579.913 606.007 592 636 c 1
 488 584 374 487 276 388 c 1
 153 516 l 1
 153 847 l 1
 274 847 l 1
 274 578 l 1
 370 663 514 759 634 787 c 1
 786 675 l 1
 707.979 608.012 659.77 544.129 635.989 477.479 c 1
 658.915 452.774 692 420.714 692 364 c 0
 820 372 812 576 812 576 c 1
 1020 428 l 1
 1020 428 892 0 556 0 c 0
 424 0 239.587 99.6575 160 196 c 0
 84 288 24 476 24 476 c 1
 80 540 l 1
 80 540 133.712 367.35 240 256 c 0
 324 168 468.001 124 540 124 c 0
 712 124 840 268 836 332 c 1
 836 332 728 204 584 204 c 0
 504 204 420 252 420 348 c 0
 420 404.989 479.328 481.468 568 492 c 1
EndSplineSet
LCarets: 0 255 '    ' 1 0 
Ligature: 0 0 'pres' bn_half_da bn_bha
EndChar
StartChar: bn_d_ra
Encoding: 376 -1 378
OldEncoding: 65723
Width: 906
VWidth: 1000
Flags: HW
Fore
588 556 m 1
 476 524 352 456 224 330 c 1
 114 359 l 1
 114 850 l 1
 230 850 l 1
 230 514 l 1
 332 596 448 676 571 731 c 1
 780 628 l 1
 731 575 672 456.853 672 372 c 0
 672 292 764 72 764 72 c 0
 672 0 l 1
 643 44 587.438 96 516 96 c 16
 444 96 406 0 265 0 c 8
 73.0557 0 -56.5098 262.273 -80 351 c 0
 -107 453 -98 507 -98 507 c 1
 4 507 l 1
 4 507 -2 459 22 378 c 8
 56.5566 261.371 134.006 153 238 153 c 0
 330 153 422.083 224 470 224 c 0
 538 224 584 204 584 204 c 1
 584 204 538.657 310.069 536 361 c 0
 530 476 588 556 588 556 c 1
0 850 m 1
 0 933 l 1
 904 933 l 1
 904 850 l 1
 0 850 l 1
EndSplineSet
LCarets: 0 255 '    ' 1 0 
Ligature: 0 0 'vatu' bn_da bn_ra_phala
EndChar
StartChar: bn_d_ma
Encoding: 377 -1 379
OldEncoding: 65724
Width: 1173
VWidth: 1000
Flags: HW
Fore
543 352 m 1
 522.073 393.854 487.774 419.418 484 444 c 0
 477.675 485.199 478.463 496.4 496 544 c 1
 376 460 326 386 224 260 c 1
 114 315 l 1
 114 850 l 1
 230 850 l 1
 230 470 l 1
 309 572 436 712 516 756 c 1
 740 656 l 1
 740 656 624 540 624 468 c 0
 624 392 675 356 675 356 c 1
 787 360 885 244 885 244 c 1
 885 850 l 1
 1022 850 l 1
 1022 0 l 1
 914 0 807 248 703 248 c 1
 751 172 667 64 580 64 c 8
 499.188 64 431 108 431 208 c 0
 431 312.308 543 352 543 352 c 1
0 850 m 1
 0 933 l 1
 1172 933 l 1
 1172 850 l 1
 0 850 l 1
EndSplineSet
LCarets: 0 255 '    ' 1 0 
Ligature: 0 0 'pres' bn_half_da bn_ma
EndChar
StartChar: bn_d_ba
Encoding: 378 -1 380
OldEncoding: 65725
Width: 904
VWidth: 1000
Flags: HW
Fore
304 160 m 1
 248 224 l 1
 628 540 l 0
 580 580 l 1
 583 585 l 1
 459 513 326 412 224 286 c 1
 114 315 l 1
 114 850 l 1
 230 850 l 1
 230 470 l 1
 309 572 450 662 571 731 c 1
 760 612 l 1
 760 0 l 1
 632 68 428 152 304 160 c 1
0 850 m 1
 0 933 l 1
 904 933 l 1
 904 850 l 1
 0 850 l 1
440 232 m 25
 624 164 l 25
 625 379 l 25
 440 232 l 25
EndSplineSet
LCarets: 0 255 '    ' 1 0 
Ligature: 0 0 'blws' bn_da bn_ba_phala
EndChar
StartChar: bn_d_dha
Encoding: 379 -1 381
OldEncoding: 65726
Width: 1143
VWidth: 1000
Flags: HW
Fore
0 850 m 1
 0 933 l 1
 1143 933 l 1
 1143 850 l 1
 0 850 l 1
440 232 m 25
 624 164 l 25
 625 379 l 25
 440 232 l 25
760 434.33 m 1
 760 0 l 1
 632 68 428 152 304 160 c 1
 248 224 l 1
 628 540 l 0
 580 580 l 1
 583 585 l 1
 459 513 326 412 224 286 c 1
 114 315 l 1
 114 850 l 1
 230 850 l 1
 230 470 l 1
 309 572 450 662 571 731 c 1
 760 584 l 1
 798.297 603.061 842.393 618.686 872 624 c 1
 915 609 962 572 976 550 c 1
 976 0 l 1
 866 60 l 1
 866 486 l 1
 843.395 480.896 795.265 458.244 760 434.33 c 1
EndSplineSet
LCarets: 0 255 '    ' 1 0 
Ligature: 0 0 'pres' bn_half_da bn_dha
EndChar
StartChar: bn_d_d_ba
Encoding: 381 -1 383
OldEncoding: 65728
Width: 979
VWidth: 1000
Flags: HW
Fore
584 100 m 25
 736 28 l 25
 734 208 l 25
 584 100 l 25
858 551 m 0
 858 514 856 -96 856 -96 c 1
 736 -92 598 -8 482 4 c 1
 452 124 l 1
 467 165 728 347 740 384 c 1
 700 504 l 1
 630 423 436 240 384 144 c 1
 261 209 l 2
 258 210 256 217 256 228 c 0
 256 263 329 332 357 454 c 0
 372 539 386 590 394 606 c 1
 370 586 l 1
 326 534 254 433 162 286 c 1
 55 315 l 1
 55 850 l 1
 188 850 l 1
 188 512 l 1
 241 622 312 703 391 785 c 1
 541 703 l 1
 512 587 468 432 428 332 c 1
 453 409 510 462 556 510 c 2
 618 570 l 2
 640 593 662 616 679 638 c 1
 858 551 l 0
0 850 m 1
 0 933 l 1
 979 933 l 1
 979 850 l 1
 0 850 l 1
EndSplineSet
Ligature: 0 0 'blws' bn_d_da bn_ba_phala
LCarets: 0 0 '    ' 1 0 
EndChar
StartChar: bn_dh_na
Encoding: 386 -1 388
OldEncoding: 65733
Width: 812
VWidth: 1000
Flags: HW
Fore
724 0 m 1
 600 72 l 1
 600 128 l 1
 554 174 517 226 401 226 c 0
 400 226 391 226 388 226 c 1
 403 205 l 1
 418 182 425 159 425 137 c 0
 425 116 418 93 401 80 c 0
 362 41 340 28 304 28 c 0
 267 28 214 41 183 58 c 0
 133 89 116 120 116 173 c 0
 116 203 132 232 154 257 c 0
 202 309 268 335 362 335 c 0
 449 335 488 316 542 296 c 0
 563 286 585 271 600 253 c 1
 588 304 l 1
 459 416 352 449 148 508 c 1
 68 616 l 1
 606 837 l 1
 606 933 l 1
 841 933 l 1
 841 850 l 1
 725 850 l 1
 724 0 l 1
307 570 m 1
 604 432 l 1
 604 700 l 1
 307 570 l 1
111 798 m 1
 97 821 90 845 90 866 c 0
 90 916 125 960 172 976 c 1
 196 987 220 995 242 995 c 0
 307 995 377 950 377 891 c 0
 377 862 357 826 331 819 c 1
 294 807 266 800 258 800 c 2
 253 800 l 2
 247 800 242 800 239 803 c 1
 263 765 295 742 340 742 c 0
 365 742 394 754 411 763 c 2
 336 718 l 1
 336 718 307 711 288 711 c 0
 225 711 169 736 126 782 c 2
 111 798 l 1
EndSplineSet
Ligature: 0 0 'pres' bn_half_dha bn_na
LCarets: 0 0 '    ' 1 0 
EndChar
StartChar: bn_n_ta
Encoding: 387 -1 389
OldEncoding: 65734
Width: 1158
VWidth: 1000
Flags: HW
Fore
1036 292 m 0
 1036 107.957 760 0 621 0 c 0
 441 0 272 116 200 216 c 0
 127.509 316.682 33 576 33 576 c 1
 116 620 l 1
 116 620 204 368 284 284 c 0
 360.1 204.095 461 132 617 132 c 0
 777.05 132 892 236 892 288 c 0
 892 288 883.36 400 772 400 c 0
 788 340 l 0
 788 281.44 764.34 232 672 232 c 0
 585.6 232 519.76 275.199 519.76 364.479 c 0
 519.76 505.6 661.603 532.96 720.64 532.96 c 0
 865.359 532.96 1036 444 1036 292 c 0
516 584 m 0
 516 500.079 428 444 356 444 c 0
 296 444 216 528 216 600 c 0
 216 672.111 287.203 797.136 390 798 c 16
 628 800 735.887 644 780 644 c 0
 852 644 852 735 852 847 c 1
 996 847 l 1
 996 594 940 476 776 476 c 0
 663.715 476 608 684 468 684 c 1
 468 684 516 676 516 584 c 0
0 850 m 1
 0 933 l 1
 1162 933 l 1
 1162 850 l 1
 0 850 l 1
EndSplineSet
Ligature: 0 0 'pres' bn_half_na bn_ta
EndChar
StartChar: bn_n_tha
Encoding: 388 -1 390
OldEncoding: 65735
Width: 1162
VWidth: 1000
Flags: HW
Fore
385 585 m 0
 385 501.079 297 445 225 445 c 0
 165 445 85 529 85 601 c 0
 85 673.111 156.203 798.136 259 799 c 16
 497 801 604.887 645 649 645 c 0
 721 645 721 738 721 850 c 1
 865 850 l 1
 865 597 809 477 645 477 c 0
 532.715 477 477 685 337 685 c 1
 337 685 385 677 385 585 c 0
981 310 m 0
 981 197 800 132 732 115 c 1
 1092 -9 l 1
 1092 -143 l 1
 1003 -61 819 -27 653 25 c 0
 551 57 366 21 366 21 c 0
 300 177 l 1
 300 177 496 183 561 183 c 0
 694 183 817 252 817 300 c 0
 817 360 737 409 674 409 c 1
 674 409 684 409 684 339 c 0
 684 298 582.685 244.499 507 255 c 24
 445.403 263.546 387 295 387 360 c 8
 387 471.407 471 500 636 500 c 1
 853 500 981 379 981 310 c 0
0 850 m 1
 0 933 l 1
 1162 933 l 1
 1162 850 l 1
 0 850 l 1
EndSplineSet
Ligature: 0 0 'pres' bn_half_na bn_tha
EndChar
StartChar: bn_n_da
Encoding: 389 -1 391
OldEncoding: 65736
Width: 1350
VWidth: 1000
Flags: HW
Fore
0 850 m 1
 0 933 l 1
 1352 933 l 1
 1352 850 l 1
 0 850 l 1
558 557.861 m 1
 558 850 l 1
 678 850 l 1
 678 469 l 1
 757 571 898 661 1019 730 c 1
 1228 627 l 1
 1179 574 1068 461 1068 275 c 0
 1068 137 1172 0 1172 0 c 0
 1061 0 l 1
 988 118 942 211 942 338 c 0
 942 409 968 514 1012 563 c 1
 1015 568 l 1
 891 496 774 411 672 285 c 1
 558 314 l 1
 560 380 l 1
 520.91 445.121 441.744 568 392 568 c 0
 359.751 568 300 544 300 544 c 1
 300 544 364.712 479.903 368 424 c 0
 372 356 312.105 284 236 284 c 0
 136 284 96 392 96 484 c 0
 96 612 248 690 332 690 c 0
 449.834 690 505.976 608.422 558 557.861 c 1
EndSplineSet
LCarets: 0 255 '    ' 1 0 
Ligature: 0 0 'pres' bn_half_na bn_da
EndChar
StartChar: bn_n_ma
Encoding: 390 -1 392
OldEncoding: 65737
Width: 1263
VWidth: 1000
Flags: HW
Fore
936 305 m 1
 936 850 l 1
 0 850 l 1
 0 933 l 1
 1268 933 l 1
 1268 850 l 1
 1080 850 l 1
 1080 0 l 0
 924 52 l 1
 924 52 919 250 775 290 c 1
 879 210 765 30 645 30 c 0
 573 30 450 55 455 215 c 0
 458.751 335.046 571.179 414.875 645 420 c 1
 650 469 l 1
 645 564 545 675 485 670 c 0
 429.051 665.338 392 661 360 625 c 1
 360 625 455 600 455 480 c 8
 455 377.555 362.3 298.539 260 304 c 24
 160.711 309.3 90 402 90 494 c 0
 90 649 310 784 430 784 c 0
 521.883 784 593.841 720.568 656 682.4 c 1
 656 850 l 1
 780 851 l 1
 780 420 l 1
 876 420.57 936 305 936 305 c 1
EndSplineSet
Ligature: 0 0 'pres' bn_half_na bn_ma
EndChar
StartChar: bn_n_dha
Encoding: 391 -1 393
OldEncoding: 65738
Width: 1127
VWidth: 1000
Flags: HW
Fore
364 676 m 1
 364 676 376 456 228 456 c 8
 151.688 456 103.996 512.087 100 604 c 0
 96 696 204 816 356 808 c 0
 467.916 802.109 594 708 594 708 c 1
 594 850 l 1
 735 850 l 1
 735 611 l 1
 736 611 l 0
 735 611 862 656 862 656 c 1
 936 652 968 580 972 536 c 1
 972 68 l 1
 844 124 l 1
 844 528 l 1
 736 476 l 1
 736 0 l 1
 626 0 l 1
 569 44 256 200 196 208 c 1
 136 304 l 1
 588 568 l 1
 518.746 652.075 460 680 364 676 c 1
0 850 m 1
 0 933 l 1
 1127 933 l 1
 1127 850 l 1
 0 850 l 1
604 422 m 1
 382 296 l 1
 604 164 l 1
 604 422 l 1
EndSplineSet
LCarets: 0 255 '    ' 1 0 
Ligature: 0 0 'pres' bn_half_na bn_dha
EndChar
StartChar: bn_n_d_ra
Encoding: 392 -1 394
OldEncoding: 65739
Width: 1422
VWidth: 1000
Flags: HW
Fore
608 408 m 1
 608 408 520 612 444 612 c 0
 411.751 612 388 600 388 600 c 1
 388 600 440.712 559.903 444 504 c 0
 448 436 396 356 320 352 c 0
 232.031 347.37 160 408 168 528 c 0
 176.515 655.717 312 740 396 740 c 0
 487.883 740 608 552 608 552 c 1
 608 408 l 1
1264 72 m 0
 1172 0 l 1
 1143 44 1024 120 868 116 c 0
 731.81 112.508 541 0 400 0 c 8
 252.458 0 144 100 84 208 c 0
 32.7584 300.235 0 476 0 476 c 1
 88 508 l 1
 88 508 136.986 318.021 172 268 c 0
 228 188 295.715 152 408 152 c 0
 504 152 700 272 796 272 c 0
 884 272 1028 228 1028 228 c 1
 1028 228 976 325 976 376 c 0
 976 446.945 988 515 1032 564 c 1
 1035 569 l 1
 911 497 796 444 672 336 c 1
 584 388 l 1
 582 850 l 1
 721 850 l 1
 721 554 l 1
 721 554 918 662 1039 731 c 1
 1248 628 l 1
 1199 575 1128 484 1128 348 c 0
 1128 272.033 1264 72 1264 72 c 0
0 850 m 1
 0 933 l 1
 1422 933 l 1
 1422 850 l 1
 0 850 l 1
EndSplineSet
Ligature: 0 0 'pres' bn_half_na bn_d_ra
EndChar
StartChar: bn_n_na
Encoding: 393 -1 395
OldEncoding: 65740
Width: 938
VWidth: 1000
Flags: HW
Fore
0 850 m 1
 0 933 l 1
 932 933 l 1
 932 850 l 1
 0 850 l 1
656 708.4 m 5
 656 850 l 5
 776 850 l 5
 776 0 l 5
 668 68 l 5
 668 68 524 288 396 280 c 4
 339.967 276.498 336 276 304 240 c 5
 304 240 408 236 408 144 c 12
 408 63.4668 340.433 -4.02148 260 0 c 28
 170.429 4.47754 115.996 84.0869 112 176 c 4
 108 268 244 392 396 384 c 4
 507.916 378.109 615 319 656 276 c 4
 656 519.66 l 5
 599.377 579.697 478.584 693.911 384 688 c 0
 327.967 684.498 324 684 292 648 c 1
 292 648 396 644 396 552 c 8
 396 471.467 328.433 403.979 248 408 c 24
 158.429 412.478 103.996 492.087 100 584 c 0
 96 676 232 800 384 792 c 0
 475.756 787.171 593.841 746.568 656 708.4 c 5
EndSplineSet
Ligature: 0 0 'pres' bn_half_na bn_na
LCarets: 0 0 '    ' 1 0 
EndChar
StartChar: bn_n_sa
Encoding: 394 -1 396
OldEncoding: 65741
Width: 1240
VWidth: 1000
Flags: HW
Fore
711 344 m 1
 711 344 766.967 379.898 804 376 c 0
 880 368 946 279 946 279 c 1
 946 850 l 1
 0 850 l 1
 0 933 l 1
 1240 933 l 1
 1240 850 l 1
 1074 850 l 1
 1074 0 l 0
 1006 52 l 1
 1006 52 924 212 804 212 c 0
 755.833 212 608 24 416 24 c 0
 308 24 140 228 140 228 c 1
 216 304 l 0
 216 304 300 164 404 176 c 0
 489.461 185.861 580 284 580 284 c 1
 578 399.011 522.768 632 428 632 c 0
 428 632 332 652 300 616 c 1
 300 616 404 612 404 520 c 8
 404 439.467 336.433 371.979 256 376 c 24
 166.429 380.478 111.996 460.087 108 552 c 0
 104 644 240 768 392 760 c 0
 483.756 755.171 501.841 742.908 564 704.74 c 1
 564 846.34 l 1
 711 846.34 l 1
 711 344 l 1
EndSplineSet
Ligature: 0 0 'pres' bn_half_na bn_sa
LCarets: 0 0 '    ' 1 0 
EndChar
StartChar: bn_n_ba
Encoding: 395 -1 397
OldEncoding: 65742
Width: 998
VWidth: 1000
Flags: HW
Fore
433 220 m 1
 644 148 l 1
 644 350 l 1
 433 220 l 1
645 512 m 1
 771 544 l 1
 771 0 l 1
 709 0 l 1
 657 26 l 1
 551 81 343 136 251 168 c 1
 228 252 l 1
 645 512 l 1
385 584 m 4
 385 500.079 297 444 225 444 c 4
 165 444 85 528 85 600 c 4
 85 672.111 156.203 797.136 259 798 c 20
 497 800 604.887 644 649 644 c 4
 721 644 721 735 721 847 c 5
 865 847 l 5
 865 594 809 476 645 476 c 4
 532.715 476 477 684 337 684 c 5
 337 684 385 676 385 584 c 4
0 850 m 5
 0 933 l 5
 1002 933 l 5
 1002 850 l 5
 0 850 l 5
EndSplineSet
Ligature: 0 0 'blws' bn_na bn_ba_phala
LCarets: 0 0 '    ' 1 0 
EndChar
StartChar: bn_n_t_ra
Encoding: 399 -1 401
OldEncoding: 65746
Width: 998
VWidth: 1000
Flags: HW
Fore
355 -174 m 12
 170.399 -174 60 88 32 172 c 4
 5.9502 250.149 -24 492 -24 492 c 5
 78 492 l 5
 78 492 98.3014 304.477 124 224 c 4
 162 105 224.006 -21 328 -21 c 4
 420 -21 486.938 90 559 90 c 4
 667 90 718 50 760 23 c 5
 760 205 l 4
 760 298 668 374 611 374 c 4
 569.058 374 499 338 499 338 c 5
 523 338 535 271.881 535 226 c 20
 535 148 475 110 403 110 c 12
 326.496 110 279 157 279 262 c 5
 279 388 514 514 607 514 c 12
 759.251 514 888 268 888 243 c 5
 888 -144 l 5
 794 -174 l 5
 765 -130 707.205 -57 628 -57 c 20
 556 -57 496 -174 355 -174 c 12
385 584 m 0
 385 500.079 297 444 225 444 c 0
 165 444 85 528 85 600 c 0
 85 672.111 156.203 797.136 259 798 c 16
 497 800 604.887 644 649 644 c 0
 721 644 721 735 721 847 c 1
 865 847 l 1
 865 594 809 476 645 476 c 0
 532.715 476 477 684 337 684 c 1
 337 684 385 676 385 584 c 0
0 850 m 1
 0 933 l 1
 1002 933 l 1
 1002 850 l 1
 0 850 l 1
EndSplineSet
Ligature: 0 0 'pres' bn_half_na bn_t_ra
LCarets: 0 0 '    ' 1 0 
EndChar
StartChar: bn_n_ya
Encoding: 400 -1 402
OldEncoding: 65747
Width: 1148
VWidth: 1000
Flags: HW
Fore
0 850 m 1
 0 933 l 1
 1167 933 l 1
 1167 850 l 1
 0 850 l 1
838 850 m 1
 838 825 l 2
 838 751 841 654 841 560 c 0
 841 458 838 361 823 300 c 1
 811 236 783 180 754 128 c 2
 753 127 l 1
 758 127 l 0
 819 127 910 214 925 262 c 1
 959 328 975 501 975 782 c 0
 975 798 971 815 971 831 c 2
 971 850 l 1
 838 850 l 1
254 651 m 2
 300 670 346 678 398 678 c 0
 442 678 485 673 532 661 c 1
 601 646 660 599 705 522 c 0
 717 502 725 486 730 468 c 1
 732 497 734 526 734 554 c 0
 734 662 717 766 684 850 c 1
 1103 850 l 1
 1101 837 1101 767 1101 640 c 0
 1101 370 1068 174 908 58 c 0
 853 19 794 0 730 0 c 1
 708 0 l 2
 596 0 512 37 459 110 c 1
 464 108 468 105 471 105 c 0
 483 105 503 114 529 124 c 0
 616 166 683 230 684 318 c 1
 683 388 626 508 567 543 c 1
 532 562 492 570 447 570 c 0
 423 570 394 570 369 562 c 1
 369 564 372 564 374 564 c 0
 387 564 404 551 423 527 c 0
 451 489 476 437 476 381 c 0
 468 311 408 262 324 247 c 1
 261 247 207 269 157 310 c 0
 114 342 90 378 85 411 c 1
 85 422 l 1
 84 429 84 437 84 445 c 0
 84 494 125 553 159 590 c 0
 188 622 218 642 253 651 c 2
 254 651 l 2
EndSplineSet
Ligature: 0 0 'psts' bn_na bn_ya_phala
EndChar
StartChar: bn_p_ta
Encoding: 401 -1 403
OldEncoding: 65748
Width: 1273
VWidth: 1000
Flags: HW
Fore
801 498 m 1
 801 498 776 568 724 628 c 1
 676 620 410 316 346 316 c 8
 299.696 316 246 380 246 380 c 0
 246 380 306.468 444.027 306 448 c 0
 300.472 494.988 190 556 118 556 c 0
 118 556 78 612 86 660 c 0
 95.5576 717.347 278.331 933 458 933 c 24
 612.355 933 762 759 802 736 c 1
 802 933 l 1
 1272 933 l 1
 1272 850 l 1
 918 850 l 1
 918 492.296 l 1
 1035.35 461.412 1144 368.036 1144 196 c 0
 1144 12.083 909 -117 726 -117 c 0
 546 -117 360 -24 285 42 c 0
 191.863 123.96 45 351 45 351 c 1
 126 423 l 1
 126 423 228.315 246.238 351 144 c 0
 459 54 522 15 722 15 c 0
 912 15 1000 156 1000 208 c 8
 1000 275.729 979.36 360 916 360 c 0
 916 360 936.719 333 936.719 309.6 c 0
 936.719 273.01 875.7 167.04 783.36 167.04 c 0
 696.96 167.04 627.12 246.239 627.12 335.52 c 0
 627.12 459.981 734.451 491.241 801 498 c 1
260 656 m 0
 260 656 408 580 408 524 c 0
 630 744 l 0
 630 744 528.109 824 452 824 c 16
 416 824 260 700 260 656 c 0
EndSplineSet
Ligature: 0 0 'pres' bn_half_pa bn_ta
LCarets: 0 0 '    ' 1 0 
EndChar
StartChar: bn_p_la
Encoding: 402 -1 404
OldEncoding: 65749
Width: 1063
VWidth: 1000
Flags: HW
Fore
802 228 m 0
 734.987 276.637 608 156 608 156 c 1
 608 156 508 276 448 276 c 0
 384 276 305 227 305 169 c 0
 305 145 322 119 322 119 c 1
 322 119 348 196 392 196 c 8
 457.315 196 520 153.315 520 88 c 16
 520 24 459.117 -16 396 -16 c 16
 282 -16 192 47 192 165 c 0
 192 242 272 376 462 376 c 0
 547.617 376 608 292 608 292 c 1
 608 292 706 428.486 802 372 c 1
 800 508 776 568 724 628 c 1
 676 620 392 324 328 324 c 8
 289.274 324 246 380 246 380 c 0
 246 380 306.468 444.027 306 448 c 0
 300.472 494.988 190 556 118 556 c 0
 118 556 78 612 86 660 c 0
 95.5576 717.347 278.331 922.837 458 933 c 24
 612.355 941.731 762 759 802 736 c 1
 802 933 l 1
 1065 933 l 1
 1065 850 l 1
 918 850 l 1
 918 0 l 1
 802 85 l 1
 802 85 802.946 227.313 802 228 c 0
260 656 m 0
 260 656 408 580 408 524 c 0
 630 744 l 0
 630 744 528.109 824 452 824 c 16
 416 824 260 700 260 656 c 0
EndSplineSet
Ligature: 0 0 'pres' bn_half_pa bn_la
LCarets: 0 0 '    ' 1 0 
EndChar
StartChar: bn_p_pa
Encoding: 403 -1 405
OldEncoding: 65750
Width: 1065
VWidth: 1000
Flags: HW
Fore
261 303 m 0
 261 303 395 223 395 167 c 0
 651 351 l 0
 651 351 549.109 431 473 431 c 16
 437 431 261 347 261 303 c 0
810 0 m 1
 810 164 800 189 748 249 c 1
 700 241 382 0 318 0 c 8
 274.474 0 228 66 228 66 c 0
 228 66 288.468 122.027 288 126 c 0
 282.472 172.988 207 207 135 207 c 0
 135 207 95 263 103 311 c 0
 112.558 368.347 306.477 549.438 482 554 c 24
 629.199 557.826 770 390 810 367 c 1
 810 531 776 568 724 628 c 1
 676 620 322 399 258 399 c 8
 218.881 399 164 434 164 434 c 0
 164 434 224.468 498.027 224 502 c 0
 218.472 548.988 177 591 105 591 c 0
 105 591 65 647 73 695 c 0
 82.5576 752.347 281.519 929.165 458 933 c 24
 615.28 936.418 770 759 810 736 c 1
 810 933 l 1
 1065 933 l 1
 1065 850 l 1
 920 850 l 1
 920 0 l 1
 810 0 l 1
247 691 m 0
 247 691 324 620 324 564 c 0
 630 744 l 0
 630 744 528.109 824 452 824 c 16
 416 824 247 735 247 691 c 0
EndSplineSet
LCarets: 0 255 '    ' 1 0 
Ligature: 0 0 'pres' bn_half_pa bn_pa
EndChar
StartChar: bn_p_na
Encoding: 404 -1 406
OldEncoding: 65751
Width: 1063
VWidth: 1000
Flags: HW
Fore
260 656 m 4
 260 656 374 616 374 560 c 4
 630 744 l 4
 630 744 528.109 824 452 824 c 20
 416 824 260 700 260 656 c 4
804 307.372 m 5
 804 367 l 5
 804 531 776 568 724 628 c 5
 676 620 376 352 312 352 c 12
 265.696 352 212 416 212 416 c 4
 212 416 272.468 480.027 272 484 c 4
 266.472 530.988 190 556 118 556 c 4
 118 556 78 612 86 660 c 4
 95.5576 717.347 278.331 922.837 458 933 c 28
 612.355 941.731 762 759 802 736 c 5
 802 933 l 5
 1065 933 l 5
 1065 850 l 5
 918 850 l 5
 918 0 l 1
 804 85 l 1
 804 85 660 284 532 276 c 0
 475.967 272.498 464 252 464 252 c 1
 464 252 560 228 560 136 c 8
 560 59.8789 504 0 420 0 c 8
 333.705 0 279.996 76.0869 276 168 c 0
 272 260 400 392 552 384 c 0
 643.756 379.171 741.84 342.634 804 307.372 c 5
EndSplineSet
LCarets: 0 255 '    ' 1 0 
Ligature: 0 0 'pres' bn_half_pa bn_na
EndChar
StartChar: bn_p_sa
Encoding: 407 -1 409
OldEncoding: 65754
Width: 1490
VWidth: 1000
Flags: HW
Fore
1241 466 m 1
 1242 590 1053 598 1053 598 c 1
 1017 598 911 324 793 326 c 0
 698.992 327.594 625 490 625 490 c 0
 685 574 l 1
 685 574 762.431 486 793 486 c 0
 873.1 486 929 586 929 646 c 8
 929 713.963 877 770 837 794 c 0
 818.972 804.817 677 852 677 852 c 1
 919 852 l 1
 960 835 1032 748 1041 696 c 1
 1063 698 1105 702 1133 702 c 0
 1174 702 1209 684 1240 656 c 1
 1240 852 l 1
 1361 852 l 1
 1361 2 l 1
 1240 60 l 1
 1241 466 l 1
569 852 m 1
 1520 852 l 1
 1520 935 l 1
 569 935 l 1
 569 852 l 1
831 790 m 0
 831 654 l 0
 831 654 790 686 713 706 c 1
 348 381 l 1
 283 392 217 414 217 449 c 1
 217 454 l 1
 217 462 227 470 249 477 c 0
 266 478 275 481 275 481 c 0
 275 481 273 479 265 478 c 1
 287 482 299 489 299 502 c 0
 299 505 300 510 300 514 c 0
 294 572 247 595 159 609 c 1
 126 609 l 2
 97 609 67 609 67 609 c 2
 94 609 l 0
 53 609 44 622 44 650 c 0
 44 668 49 686 60 707 c 0
 106 821 273 933 449 933 c 2
 456 933 l 2
 480 933 510 930 538 922 c 0
 611 904 678 874 737 825 c 0
 778 790 824 790 831 790 c 0
220 706 m 1
 261 702 299 678 336 651 c 0
 362 632 389 570 389 570 c 1
 621 775 l 1
 609 785 597 792 585 798 c 2
 585 800 l 1
 582 800 l 2
 541 826 495 838 452 838 c 0
 391 838 328 815 278 781 c 0
 239 754 220 728 220 706 c 1
EndSplineSet
Ligature: 0 0 'pres' bn_half_pa bn_sa
LCarets: 0 0 '    ' 1 0 
EndChar
StartChar: bn_ph_la
Encoding: 409 -1 411
OldEncoding: 65756
Width: 1265
VWidth: 1000
Flags: HW
Fore
813 0 m 1
 704 32 l 1
 702 88 l 1
 702 88 646.875 174.871 593 173 c 24
 510.751 170.143 436 32 436 32 c 1
 436 32 372 164 292 164 c 0
 240 164 220 144 220 144 c 0
 220 144 272 101.212 272 64 c 16
 272 0 220 -40 136 -40 c 0
 87.834 -40 32 24 36 88 c 0
 37.9961 119.938 54 264 246 264 c 0
 382 264 440 168 440 168 c 1
 483.992 227.654 588 256 588 256 c 1
 484 320 168 372 168 372 c 1
 124 497 l 1
 124 497 360 584 422 642 c 1
 422 642 115 798 115 850 c 0
 324 850 l 0
 428 774 556 653 556 653 c 1
 556 600 l 1
 396 472 l 1
 675 325 l 1
 675 850 l 1
 813 850 l 1
 813 835 l 0
 908 790 1120 748 1121 516 c 0
 1121.52 395.898 1031 376 976 376 c 0
 901 376 861 431 861 516 c 0
 861 596.156 981 636 981 636 c 1
 981 636 967 716 813 720 c 1
 813 0 l 1
0 850 m 1
 0 933 l 1
 1264 933 l 1
 1264 850 l 1
 0 850 l 1
EndSplineSet
Ligature: 0 0 'pres' bn_half_pha bn_la
LCarets: 0 0 '    ' 1 0 
EndChar
StartChar: bn_b_ja
Encoding: 410 -1 412
OldEncoding: 65757
Width: 1527
VWidth: 1000
Flags: HW
Fore
815 585 m 1
 927 465 1135 414 1260 449 c 1
 1330 319 l 1
 1258 231 1230 200.359 1230 110 c 16
 1230 14 1410 -130 1410 -130 c 1
 1315 -195 l 1
 1315 -195 1095 -37.4609 1095 119 c 0
 1095 271 1155 294 1155 294 c 1
 1055 314 920 359 830 424 c 1
 830 424 763 379 763 295 c 0
 763 251 798.9 244 835 244 c 0
 870 244 920 304 920 304 c 1
 1050 180 l 1
 1050 180 1015 85 970 0 c 0
 932.28 -71.2529 819.689 -130 715 -130 c 0
 555 -130 352.007 75.9863 280 220 c 0
 340 315 l 1
 340 315 574.63 0 710 0 c 0
 830 0 910 85 907 143 c 0
 907 143 854 103 795 103 c 8
 686.847 103 605 214.016 605 305 c 0
 605 411 625 410 625 410 c 0
 625 410 631.727 412.242 641.027 417.031 c 1
 522.632 461.205 320.786 513.895 275 520 c 1
 204 628 l 1
 657 837 l 1
 657 850 l 1
 0 850 l 1
 0 933 l 1
 1525 933 l 1
 1525 850 l 1
 814 850 l 1
 815 585 l 1
674 694 m 1
 485 600 l 1
 674 530 l 1
 674 694 l 1
EndSplineSet
Ligature: 0 0 'pres' bn_half_ba bn_ja
EndChar
StartChar: bn_b_da
Encoding: 411 -1 413
OldEncoding: 65758
Width: 1296
VWidth: 1000
Flags: HW
Fore
1048 0 m 0
 937 0 l 1
 864 118 836 193 836 320 c 0
 836 391 912 515 956 564 c 1
 959 569 l 1
 835 497 738 414 636 288 c 1
 528 240 l 1
 440 328 256 452 132 480 c 1
 100 580 l 1
 506 850 l 1
 622 850 l 1
 622 470 l 1
 701 572 842 662 963 731 c 1
 1172 628 l 1
 1123 575 964 388 964 240 c 0
 964 140 1048 0 1048 0 c 0
0 850 m 1
 0 933 l 1
 1296 933 l 1
 1296 850 l 1
 0 850 l 1
280 552 m 25
 500 420 l 25
 500 696 l 25
 280 552 l 25
EndSplineSet
LCarets: 0 255 '    ' 1 0 
Ligature: 0 0 'pres' bn_half_ba bn_da
EndChar
StartChar: bn_b_dha
Encoding: 412 -1 414
OldEncoding: 65759
Width: 1207
VWidth: 1000
Flags: HW
Fore
816 476 m 1
 816 0 l 1
 706 0 l 1
 649 44 253 188 193 196 c 1
 122 304 l 1
 355.44 417.671 l 1
 278.462 444.704 213.553 465.126 192 468 c 1
 121 576 l 1
 657 837 l 1
 657 850 l 1
 815 850 l 1
 815 611 l 1
 816 611 l 0
 815 611 942 656 942 656 c 1
 1016 652 1048 580 1052 536 c 1
 1052 68 l 1
 924 124 l 1
 924 528 l 1
 816 476 l 1
662 704.328 m 1
 387 570.328 l 1
 539 500 l 1
 662 562.328 l 1
 662 704.328 l 1
0 850 m 1
 0 933 l 1
 1207 933 l 1
 1207 850 l 1
 0 850 l 1
662 422 m 1
 392 288 l 1
 662 164 l 1
 662 422 l 1
EndSplineSet
LCarets: 0 255 '    ' 1 0 
Ligature: 0 0 'pres' bn_half_ba bn_dha
EndChar
